<svg xmlns="http://www.w3.org/2000/svg" width="207.652" height="67.813" viewBox="0 0 207.652 67.813">
  <g id="K_J_Somaiya_College_of_Engineering" data-name="K J Somaiya College of Engineering" transform="translate(-76 -325)">
    <g id="Group_5" data-name="Group 5" transform="translate(76 325)">
      <g id="Group_4576" data-name="Group 4576" transform="translate(0 0)">
        <path id="Path_8819" data-name="Path 8819" d="M246.66,216.1a1.178,1.178,0,0,1-.128.042c-.577.069-.577.069-.823-.455-.142-.3-.142-.3-.489-.274-.282.022-.564.046-.845.057a.308.308,0,0,0-.342.278,5.626,5.626,0,0,1-.167.571l-.7.053c.034-.129.055-.221.082-.311q.474-1.534.951-3.069c.077-.252.082-.259.339-.267.575-.016.426-.125.689.408.426.864.839,1.736,1.258,2.6.054.112.105.227.168.362m-1.921-2.507-.082.007c-.119.42-.24.838-.375,1.31l1.022-.068c-.2-.452-.373-.856-.571-1.249" transform="translate(-218.438 -212.62)" fill="#b7202e"/>
        <path id="Path_8820" data-name="Path 8820" d="M249.581,215.217a1.316,1.316,0,1,1,1.336,1.295,1.238,1.238,0,0,1-1.336-1.295m1.98-.074-.028,0a1.54,1.54,0,0,0,0-.174.629.629,0,0,0-1.235-.129,1.133,1.133,0,0,0-.021.688.622.622,0,0,0,.567.467.6.6,0,0,0,.615-.4,3.057,3.057,0,0,0,.1-.45" transform="translate(-219.659 -212.837)" fill="#b7202e"/>
        <path id="Path_8821" data-name="Path 8821" d="M254.016,216.893l-.615-.138c.192-.834.381-1.642.571-2.477l.555.112q-.011.169-.021.338c.1-.046.179-.088.263-.122a1.024,1.024,0,0,1,1.025.1.607.607,0,0,1,.285.543,2.232,2.232,0,0,1-.044.408q-.155.713-.326,1.422c-.012.055-.038.108-.068.193-.2-.047-.39-.091-.6-.141.09-.4.176-.763.257-1.132a4.914,4.914,0,0,0,.1-.515c.029-.287-.06-.434-.28-.508a.522.522,0,0,0-.616.2,1.08,1.08,0,0,0-.133.321c-.1.4-.192.793-.289,1.189-.013.055-.034.11-.064.2" transform="translate(-220.388 -212.91)" fill="#b7202e"/>
        <path id="Path_8822" data-name="Path 8822" d="M248.015,212.6h.618c.043.585,0,1.163,0,1.741s-.017,1.164-.026,1.767h-.642c-.013-1.167.059-2.318.051-3.506" transform="translate(-219.343 -212.6)" fill="#b7202e"/>
        <path id="Path_8823" data-name="Path 8823" d="M263.826,246.488a20.923,20.923,0,0,1-41.737.1,10.561,10.561,0,0,0,10.423,8.809,10.433,10.433,0,0,0,9.823-7.044c-.129-.082-.264-.169-.4-.254a7.525,7.525,0,0,1-2.745-2.868,5.431,5.431,0,0,1-.668-2.428,4.935,4.935,0,0,1,.711-2.732,10.086,10.086,0,0,1,.922-1.269,12.816,12.816,0,0,0,1.763-2.527,6.178,6.178,0,0,0,.674-2.489,7.855,7.855,0,0,0-.183-1.827c-.081-.408-.143-.823-.21-1.237a1.924,1.924,0,0,1,0-.259,1.875,1.875,0,0,1,.229.119,13.625,13.625,0,0,1,4.521,5.189,9.728,9.728,0,0,1-.379,9.131,8.816,8.816,0,0,1-1.969,2.164c-.255.208-.508.42-.759.633-.081.068-.15.151-.228.223a.35.35,0,0,0-.081.421,10.672,10.672,0,0,0,.878,1.875,10.3,10.3,0,0,0,7.176,5.01,10.446,10.446,0,0,0,11.463-6.16,11.845,11.845,0,0,0,.773-2.584" transform="translate(-214.356 -215.309)" fill="#b7202e"/>
        <path id="Path_8824" data-name="Path 8824" d="M217.839,256.637c-.068-.237-.132-.46-.2-.7a.749.749,0,0,1,.117-.082,1.263,1.263,0,0,0,.81-1.432,2.828,2.828,0,0,0-.285-1.036,1.083,1.083,0,0,0-.58-.55.775.775,0,0,0-1.073.543,7.44,7.44,0,0,0-.117,1.071c-.029.426-.033.856-.065,1.282a2.8,2.8,0,0,1-.108.542,1.682,1.682,0,0,1-2.569.923,2.187,2.187,0,0,1-.852-1.049,3.656,3.656,0,0,1-.245-2.173,2.031,2.031,0,0,1,1.45-1.573.847.847,0,0,1,.14-.017l.215.695a1.415,1.415,0,0,1-.143.082,1.454,1.454,0,0,0-.952,1.289,2.482,2.482,0,0,0,.5,1.865.953.953,0,0,0,.842.383.807.807,0,0,0,.752-.516,2.65,2.65,0,0,0,.163-.705c.039-.426.033-.857.067-1.284a5.788,5.788,0,0,1,.134-1.009,1.458,1.458,0,0,1,1.386-1.181,1.617,1.617,0,0,1,1.519.757,3.186,3.186,0,0,1,.5,1.3,3.074,3.074,0,0,1,0,1.132,1.777,1.777,0,0,1-1.4,1.437" transform="translate(-212.603 -219.521)" fill="#b7202e"/>
        <path id="Path_8825" data-name="Path 8825" d="M220.841,263.774l-.435.365.01.06a1.707,1.707,0,0,1,1.4.652,1.33,1.33,0,0,1,.192,1.537c.126.015.226.031.326.038a1.639,1.639,0,0,1,1.354.845,1.223,1.223,0,0,1-.149,1.559,2.463,2.463,0,0,1-.3.28q-1.223.958-2.441,1.908c-.038.029-.082.053-.152.1l-.455-.571c.09-.075.163-.14.236-.2.66-.517,1.321-1.03,1.979-1.549a4.6,4.6,0,0,0,.483-.423.708.708,0,0,0,.128-.885,1.092,1.092,0,0,0-1.432-.536,2.616,2.616,0,0,0-.5.3c-.634.489-1.261.978-1.891,1.467-.082.064-.168.125-.269.2l-.452-.581c.091-.081.163-.143.236-.2.682-.536,1.368-1.066,2.046-1.605a2.984,2.984,0,0,0,.48-.466.691.691,0,0,0,.019-.867,1.089,1.089,0,0,0-1.4-.43,3.949,3.949,0,0,0-.716.446c-.56.421-1.108.86-1.661,1.291-.082.065-.168.125-.271.2l-.467-.587,3.679-2.878.419.518" transform="translate(-213.368 -221.475)" fill="#b7202e"/>
        <path id="Path_8826" data-name="Path 8826" d="M232.325,226.752l.437.563-.489.421q1.211,1.556,2.421,3.108a1.428,1.428,0,0,1-.213.056c-.116.013-.235,0-.35.023a.571.571,0,0,1-.611-.276c-.543-.726-1.109-1.433-1.667-2.147-.064-.082-.134-.163-.214-.264a3.581,3.581,0,0,0-.918.775l2.759,2.862c-.326.055-.6.113-.875.142-.067.007-.155-.068-.213-.126-.316-.318-.624-.643-.936-.964-.067-.068-.138-.132-.236-.226l-.822.907.652.607a.318.318,0,0,1-.317.157c-.351,0-.7-.008-1.052-.015a.378.378,0,0,1-.4-.233.433.433,0,0,1,.105-.482c.376-.408.743-.824,1.114-1.238.065-.073.126-.147.212-.245l-.58-.6c-.7.6-1.223,1.315-1.868,1.964l-.541-.479,1.407-1.564c.082.059.15.105.217.151l.018-.022-.13-.19a20.59,20.59,0,0,1,3.09-2.667" transform="translate(-215.496 -215.085)" fill="#b7202e"/>
        <path id="Path_8827" data-name="Path 8827" d="M255.171,223.553l.064.62c-.232.023-.433.041-.633.065a1.218,1.218,0,0,0-.254.06.3.3,0,0,0-.245.351.318.318,0,0,0,.284.326,2.957,2.957,0,0,0,.606-.02,2.022,2.022,0,0,0,.336-.1l-.028.326a8.041,8.041,0,0,0,.652-1.772l-2.193-.613.191-.682c.087.013.152.016.214.032l1.376.394,1.128.32a3.816,3.816,0,0,0-.261-.334,4.506,4.506,0,0,0-1.489-1.06.365.365,0,0,1-.269-.39c0-.192-.029-.384-.049-.64a3.222,3.222,0,0,1,1.549,1.035,1.105,1.105,0,0,0-.019-.182c-.082-.245-.17-.5-.262-.743a.591.591,0,0,0-.338-.414.215.215,0,0,1-.108-.153c-.031-.249-.046-.5-.072-.81a6.522,6.522,0,0,1,.815.387.8.8,0,0,1,.262.408c.141.435.271.874.374,1.319.113.483.2.972.277,1.463.035.23.1.388.349.426a.824.824,0,0,1,.163.082l-.232.666-.612-.195c-.258.61-.457,1.238-.687,1.853s-.447,1.223-.691,1.889c-.192-.267-.358-.479-.5-.708a.35.35,0,0,1,.007-.245c.077-.245.167-.493.267-.781h-.365a1.15,1.15,0,0,1-1.194-1.111.848.848,0,0,1,.387-.8,1.767,1.767,0,0,1,1.189-.261" transform="translate(-220.428 -213.814)" fill="#b7202e"/>
        <path id="Path_8828" data-name="Path 8828" d="M245.511,222.84a2.209,2.209,0,0,1-.051-.245c-.012-.144-.015-.289-.023-.459.319-.028.617-.054.915-.082.245-.019.489-.038.734-.052a.544.544,0,0,1,.44.082c.046.041.151.02.227.02h1.674a1.576,1.576,0,0,1,.024.72l-.61.029c-.007.117-.019.22-.019.326q0,1.636,0,3.274a.437.437,0,0,0,.2.408,1.035,1.035,0,0,1,.326,1.185.928.928,0,0,1-.929.664,1.487,1.487,0,0,1-1.008-.321,3.323,3.323,0,0,1-.424-.4,9.592,9.592,0,0,1-.881-1.251.42.42,0,0,1,.538.2,3.505,3.505,0,0,0,.8.925,1.123,1.123,0,0,0,1.085.264.489.489,0,0,0,.383-.459.378.378,0,0,0-.535-.4,1.467,1.467,0,0,0-.338.225,1.764,1.764,0,0,0-.193.21l-.375-.544a.942.942,0,0,1,.953-.5c-.024-.145-.134-.183-.216-.231a.361.361,0,0,1-.185-.364c.009-.467,0-.935,0-1.4,0-.1-.008-.209-.015-.351-.458.038-.9.061-1.323.114a.377.377,0,0,0-.307.46,1.556,1.556,0,0,0,.135.413,3.4,3.4,0,0,0,.708.959c.063.06.133.113.229.194l-.285.212a1.106,1.106,0,0,1-.163-.128c-.277-.326-.571-.642-.823-.986a1.924,1.924,0,0,1-.389-1.2.754.754,0,0,1,.212-.559.587.587,0,0,1,.3-.163c.522-.055,1.045-.089,1.6-.133.024.173.046.321.067.472a2.941,2.941,0,0,0,.012-1.107l-.278-.016c-.057,0-.134.013-.171-.017-.174-.142-.369-.082-.558-.071-.408.027-.815.06-1.223.087-.076.006-.151,0-.234,0" transform="translate(-218.874 -214.334)" fill="#b7202e"/>
        <path id="Path_8829" data-name="Path 8829" d="M258.321,276.764c-.259-.763-.495-1.458-.742-2.182.245-.082.463-.163.708-.245.7,2.038,1.4,4.062,2.107,6.114l-.646.223-.205-.489c-.05.086-.082.138-.109.192a1.677,1.677,0,0,1-1.664.948,2.072,2.072,0,0,1-1.581-.978,3.376,3.376,0,0,1-.571-2.132,1.783,1.783,0,0,1,2.5-1.526c.042.023.089.033.2.082m-1.962,1.712a3.217,3.217,0,0,0,.591,1.63,1.294,1.294,0,0,0,.951.562,1.184,1.184,0,0,0,1.272-1.277,3.045,3.045,0,0,0-.671-1.8,1.215,1.215,0,0,0-1.362-.408,1.249,1.249,0,0,0-.78,1.3" transform="translate(-220.82 -223.414)" fill="#b7202e"/>
        <path id="Path_8830" data-name="Path 8830" d="M252.306,275.817l.163.852c-.249.052-.466.1-.7.143-.037-.053-.073-.1-.133-.187a.8.8,0,0,0-.048.091l-.934,2.643-1.105,3.141c-.1.271-.1.271-.391.28-.147,0-.291.008-.438.011-.029,0-.058-.007-.126-.014-.9-2.092-1.8-4.2-2.722-6.359l.887-.041L249,282.023a1.2,1.2,0,0,0,.09-.17l1.763-5.385c.075-.232.082-.235.326-.245.124-.007.245-.011.382-.017l.052-.258.693-.127" transform="translate(-218.967 -223.687)" fill="#b7202e"/>
        <path id="Path_8831" data-name="Path 8831" d="M270.93,274.532c-.092.081-.156.14-.221.195-.12.1-.24.194-.373.3l-.457-.3c-.119.082-.1.226-.134.338a2.439,2.439,0,0,1-1.214,1.5,1.342,1.342,0,0,1-.815.185,1.309,1.309,0,0,1-1.087-1.744,2.237,2.237,0,0,1,.48-.761q.489-.54.978-1.087a3.715,3.715,0,0,0,.222-.313c-.13-.139-.245-.279-.378-.4a.635.635,0,0,0-.628-.141,1.885,1.885,0,0,0-1.118.882.8.8,0,0,0-.053.6c.022.1.06.2.1.348-.2.117-.4.245-.616.372a1.407,1.407,0,0,1-.146-1.283,2.974,2.974,0,0,1,1.875-1.675,1.025,1.025,0,0,1,1.073.285,5.789,5.789,0,0,1,.465.523c.261.316.508.642.774.952a4.213,4.213,0,0,0,1.266,1.218m-2.239-1.188c-.2.258-.364.489-.543.7s-.385.439-.571.659a1.464,1.464,0,0,0-.135.19.7.7,0,0,0,.023.844.734.734,0,0,0,.84.236,1.631,1.631,0,0,0,1.011-1.386,1.887,1.887,0,0,0-.62-1.246" transform="translate(-222.692 -222.89)" fill="#b7202e"/>
        <path id="Path_8832" data-name="Path 8832" d="M237.132,278.309l-.648-.292a1.467,1.467,0,0,1,1.341-.917,3.24,3.24,0,0,1,1.891.5,1.11,1.11,0,0,1,.536,1.33c-.159.641-.355,1.275-.526,1.914-.082.309-.163.621-.214.938a3.89,3.89,0,0,0-.006.6c-.17-.046-.308-.082-.446-.121-.322-.092-.333-.109-.315-.446,0-.056.009-.112.016-.182-.135-.052-.236.033-.337.07a2.425,2.425,0,0,1-2.032-.163,1.259,1.259,0,0,1-.581-1.694,1.272,1.272,0,0,1,1.18-.771,7.18,7.18,0,0,1,.986.073c.377.036.753.086,1.132.118.249.02.27,0,.338-.254a.8.8,0,0,0-.464-1.06,3.36,3.36,0,0,0-.805-.24.848.848,0,0,0-.83.326c-.068.082-.134.163-.216.264m2.057,1.582a1,1,0,0,0-.135-.033c-.435-.035-.871-.072-1.3-.1a4.219,4.219,0,0,0-.583-.018.668.668,0,0,0-.633.514.678.678,0,0,0,.27.773,1.654,1.654,0,0,0,.585.245,1.351,1.351,0,0,0,1.445-.461,2.438,2.438,0,0,0,.36-.921" transform="translate(-217.012 -223.924)" fill="#b7202e"/>
        <path id="Path_8833" data-name="Path 8833" d="M225.964,276.107l-.581-.51.221-.542-.362-.036a2.364,2.364,0,0,1-1.807-1.1,1.278,1.278,0,0,1,.761-1.952,1.425,1.425,0,0,1,1.022.122c.234.117.452.263.677.4.342.205.677.421,1.025.617.227.127.252.112.414-.082a.8.8,0,0,0,.013-1.181,3.268,3.268,0,0,0-.563-.5.889.889,0,0,0-1.017-.055c-.067.037-.135.071-.224.117-.156-.18-.307-.352-.474-.543a1.429,1.429,0,0,1,1.316-.35,3.036,3.036,0,0,1,1.843,1.43,1.084,1.084,0,0,1-.118,1.331c-.385.476-.792.936-1.19,1.4-.032.037-.065.072-.1.109a3.9,3.9,0,0,0-.858,1.324m.789-2.411c-.073-.049-.1-.071-.134-.088-.389-.219-.778-.439-1.167-.652a3.751,3.751,0,0,0-.464-.245.705.705,0,0,0-.942.389.756.756,0,0,0,.129.769,1.651,1.651,0,0,0,.788.571,1.237,1.237,0,0,0,1.348-.277c.145-.142.278-.3.442-.47" transform="translate(-214.564 -222.7)" fill="#b7202e"/>
        <path id="Path_8834" data-name="Path 8834" d="M278.06,258.912c-.1.214-.2.422-.311.641a1.485,1.485,0,0,1-.873-1.431,3.332,3.332,0,0,1,.5-1.718,1.157,1.157,0,0,1,1.467-.571c.561.163,1.112.354,1.67.524a4.353,4.353,0,0,0,1.7.333c-.071.223-.132.415-.192.609a.18.18,0,0,1-.2.132c-.125,0-.249-.013-.417-.022.036.135.063.253.1.368a2.41,2.41,0,0,1-.2,1.92,1.271,1.271,0,0,1-1.43.711,1.286,1.286,0,0,1-1.046-1.27,6.633,6.633,0,0,1,.087-.956c.051-.408.12-.809.168-1.214.029-.245.007-.264-.216-.337a.815.815,0,0,0-1.115.455,3.5,3.5,0,0,0-.258.86.772.772,0,0,0,.267.709l.29.259m1.63-1.972c-.038.375-.072.734-.113,1.088-.031.26-.082.518-.1.779a.719.719,0,0,0,.547.79.734.734,0,0,0,.835-.383,1.663,1.663,0,0,0,.179-1.266,1.442,1.442,0,0,0-1.345-1.008" transform="translate(-224.889 -220.186)" fill="#b7202e"/>
        <path id="Path_8835" data-name="Path 8835" d="M277.964,265.606c-.121.222-.229.416-.357.648-1.9-1.042-3.768-2.087-5.662-3.136.13-.232.245-.431.371-.661l2.016,1.113c-.023-.149-.032-.233-.048-.317a1.928,1.928,0,0,1,.823-1.928,1.176,1.176,0,0,1,1.007-.146,3.349,3.349,0,0,1,.646.265c.847.46,1.688.931,2.527,1.4.042.024.082.052.147.1l-.352.643c-.109-.054-.195-.094-.279-.139-.757-.419-1.513-.842-2.275-1.258a2.407,2.407,0,0,0-.48-.209.843.843,0,0,0-.941.3,1.2,1.2,0,0,0,.183,1.78c.445.311.933.561,1.405.832.362.208.734.408,1.1.609.05.028.1.064.168.113" transform="translate(-223.978 -221.126)" fill="#b7202e"/>
        <path id="Path_8836" data-name="Path 8836" d="M267.841,237.177c-.129.063-.223.114-.32.156-.212.093-.365,0-.373-.237a.475.475,0,0,1,.016-.174c.09-.3.181-.6.284-.89a.546.546,0,0,1,.149-.21c.2-.185.335-.163.482.07.03.047.067.091.121.163l.986-.545a7.6,7.6,0,0,0-.607-1.034c-1.132.707-2.234,1.393-3.367,2.1a1.453,1.453,0,0,1-.027-.222c0-.155.033-.311.025-.465a.4.4,0,0,1,.225-.4c.805-.489,1.6-1,2.4-1.5.089-.056.177-.116.293-.192-.086-.163-.163-.307-.264-.489l.607-.382a36.521,36.521,0,0,1,2.106,3.559l-.616.343-.38-.639-1.014.563.526.971-.708.4c-.184-.32-.355-.622-.544-.952" transform="translate(-222.653 -216.173)" fill="#b7202e"/>
        <path id="Path_8837" data-name="Path 8837" d="M233.556,225.828l1.087-.6,1.089-.607a.84.84,0,0,0-.148-.126c-.3-.132-.6-.272-.914-.382a1.044,1.044,0,0,0-.929.082.38.38,0,0,1-.523-.055,5.666,5.666,0,0,0-.473-.362,1.819,1.819,0,0,1,1.473-.338,8.011,8.011,0,0,1,1.752.789.337.337,0,0,0,.475-.01l.362.638-.646.384.682,1.253-.575.318c-.126.072-.256.139-.381.215a.542.542,0,0,0-.2.8.756.756,0,0,0,1.127.138c-.02-.028-.035-.06-.059-.088a.455.455,0,0,1-.088-.582.571.571,0,0,1,.58-.309.375.375,0,0,1,.206.095c.219.251.437.51.314.886a.433.433,0,0,0,0,.105,1.751,1.751,0,0,1,.709.469c-.158.09-.3.174-.434.25-.2-.114-.371-.216-.546-.315a.267.267,0,0,0-.275,0,1.585,1.585,0,0,1-2.1-.611,1.822,1.822,0,0,1-.222-.6.632.632,0,0,1,.382-.742c.17-.1.338-.192.507-.289.016-.009.027-.028.068-.075l-.319-.589-1.63.9c-.121-.215-.232-.415-.355-.637" transform="translate(-216.454 -214.497)" fill="#b7202e"/>
        <path id="Path_8838" data-name="Path 8838" d="M216.684,263.478a1.794,1.794,0,0,1-1.169-.448,2.346,2.346,0,0,1-.847-1.582,1.912,1.912,0,0,1,.734-1.782,3.5,3.5,0,0,1,1.857-.785,1.875,1.875,0,0,1,1.228.29,2.351,2.351,0,0,1,1.027,2.295A1.972,1.972,0,0,1,219,262.5a3.561,3.561,0,0,1-2.318.978m.762-3.837a2.772,2.772,0,0,0-1.756.815,1.327,1.327,0,0,0,.986,2.251,2.59,2.59,0,0,0,1.825-.8,1.253,1.253,0,0,0,.262-1.458,1.316,1.316,0,0,0-1.317-.8" transform="translate(-212.981 -220.734)" fill="#b7202e"/>
        <path id="Path_8839" data-name="Path 8839" d="M225.88,235.51l-.314.461-.6-.366a22.029,22.029,0,0,1,2.2-3.334l.571.408-.364.541,3.207,2.34a3.826,3.826,0,0,1-.824.293c-.082.018-.2-.059-.28-.118-.759-.545-1.513-1.1-2.27-1.644-.093-.067-.189-.133-.3-.211a4.976,4.976,0,0,0-.615.933l3.391,2.038a3.244,3.244,0,0,1-.795.386c-.066.025-.181-.046-.26-.094-.794-.473-1.586-.951-2.378-1.426-.115-.07-.233-.134-.365-.21" transform="translate(-214.966 -216.057)" fill="#b7202e"/>
        <path id="Path_8840" data-name="Path 8840" d="M260.091,275.85l.712-.382,2.923,2.671a.492.492,0,0,0,.016-.117q-.223-1.458-.447-2.914c-.037-.245-.06-.483-.1-.722a.211.211,0,0,1,.126-.26c.163-.082.326-.163.517-.263.065.469.126.9.183,1.332.172,1.293.347,2.585.508,3.881a7.883,7.883,0,0,1,.073,1.134,1.151,1.151,0,0,1-.878,1.141c-.213.059-.235.053-.364-.128-.082-.119-.163-.24-.258-.382l.3-.128a.786.786,0,0,0,.54-.869v-.029a1.211,1.211,0,0,0-.474-1c-1.074-.9-2.12-1.84-3.169-2.767-.064-.055-.124-.116-.207-.2" transform="translate(-221.674 -223.326)" fill="#b7202e"/>
        <path id="Path_8841" data-name="Path 8841" d="M231.889,274.4c.266.141.489.257.719.382l-.579,3.922,2.943-2.664.635.334a1.03,1.03,0,0,1-.129.169q-2.077,1.838-4.163,3.669a3.144,3.144,0,0,1-.734.475,1.115,1.115,0,0,1-1.247-.217.236.236,0,0,1-.086-.306c.063-.15.122-.3.193-.478.115.082.208.144.3.2a.793.793,0,0,0,1.021-.073,1.29,1.29,0,0,0,.557-.961c.131-1.3.318-2.609.483-3.913.021-.163.047-.326.082-.544" transform="translate(-215.782 -223.425)" fill="#b7202e"/>
        <path id="Path_8842" data-name="Path 8842" d="M261.844,227.022c.139-.12.278-.238.442-.377.053.042.155.116.254.192.376.293.749.589,1.127.881.09.069.172.135.1.268.047-.027.1-.055.171-.1l1.787,1.665-.482.533a23.986,23.986,0,0,0-2.4-2.058l-2.45,3.133c-.1-.313-.2-.571-.262-.825a.339.339,0,0,1,.082-.231c.144-.2.3-.4.476-.626l-.2-.048a1.174,1.174,0,0,1-.652-1.8.9.9,0,0,1,1-.36c.523.122.58.2.539.726,0,.056-.019.11-.033.188a2.37,2.37,0,0,0-.311-.116,3.749,3.749,0,0,0-.628-.1.549.549,0,0,0-.315.121.245.245,0,0,0,0,.417.939.939,0,0,0,.6.2h.614l.923-1.183c-.118-.1-.216-.175-.311-.254s-.152-.131-.064-.24Z" transform="translate(-221.593 -215.069)" fill="#b7202e"/>
        <path id="Path_8843" data-name="Path 8843" d="M239.325,223.384l.192.374.037-.013-.087-.412a9.97,9.97,0,0,1,1.929-.543l.178.643c-.214.07-.4.132-.612.205l1.08,3.792a3.425,3.425,0,0,1-.84-.245c-.052-.019-.082-.121-.109-.192-.07-.21-.13-.424-.2-.666-.1.073-.171.13-.245.184a1.176,1.176,0,0,1-1.767-.695,1.078,1.078,0,0,1,.779-1.21.225.225,0,0,1,.159.036c.144.112.281.232.435.362-.163.107-.3.191-.43.291a.978.978,0,0,0-.389.5.346.346,0,0,0,.082.377c.11.1.236.061.355.007a1.26,1.26,0,0,0,.545-.512c.06-.1.125-.188.21-.319q-.2-.693-.435-1.507c-.742.267-1.426.586-2.17.862l-.278-.673,1.592-.642" transform="translate(-217.404 -214.483)" fill="#b7202e"/>
        <path id="Path_8844" data-name="Path 8844" d="M262.759,233.174c-.2-.024-.307-.1-.316-.3a5.705,5.705,0,0,1,.1-1.657,1.375,1.375,0,0,1,.645-.867.766.766,0,0,1,1.233.635l.014.2c.632-.02.792.139.748.755l.276-.1a3.334,3.334,0,0,1,.229.265c.2.273.707.11.821-.189a.314.314,0,0,0-.076-.326c-.142-.172-.279-.348-.435-.543l.55-.457c.449.5.838,1.026,1.286,1.562l-.557.457-.36-.4c-.055.067-.105.121-.149.179a1.4,1.4,0,0,1-.819.52,1,1,0,0,1-.666-.119.345.345,0,0,0,.011.48,1.3,1.3,0,0,0,.639.441c.118.042.245.063.413.105a6.635,6.635,0,0,1-.683.549c-.039.028-.134.007-.19-.02a1.172,1.172,0,0,1-.763-1.549c.076-.238.2-.461.3-.7-.207-.34-.439-.373-.716-.089-.163.167-.32.339-.507.538l-.265-.6c.131-.143.26-.286.391-.427.1-.108.215-.209.121-.379a.474.474,0,0,0-.5-.227.727.727,0,0,0-.469.408,3.3,3.3,0,0,0-.254,1.1c-.024.239-.041.479-.061.726" transform="translate(-222.125 -215.694)" fill="#b7202e"/>
        <path id="Path_8845" data-name="Path 8845" d="M268.8,269.91l.531-.578,3.606,1.56a4.013,4.013,0,0,0-.337-.706c-.112-.237-.236-.47-.356-.7s-.238-.469-.357-.7l-.359-.7c-.119-.234-.235-.467-.36-.713l.522-.563c.1.183.173.326.245.473l1.843,3.744c.129.263.13.264-.068.473-.346.364-.235.338-.678.157q-1.987-.805-3.97-1.62c-.077-.032-.154-.069-.262-.12" transform="translate(-223.397 -222.125)" fill="#b7202e"/>
        <path id="Path_8846" data-name="Path 8846" d="M216.8,235.4c.113.257.2.484.311.7a.477.477,0,0,0,.226.163c.245.111.5.209.787.326-.082.215-.163.408-.25.632l-3.285-1.329c.088-.217.163-.4.256-.626.478.188.941.371,1.4.554l.05-.051c-.042-.093-.082-.187-.125-.279-.226-.475-.448-.951-.681-1.423a.416.416,0,0,1-.013-.389c.089-.191.163-.39.265-.631.07.145.121.245.168.349.167.373.332.747.5,1.119.114.252.122.255.4.2.63-.122,1.26-.249,1.89-.372.1-.019.2-.029.354-.051-.108.27-.188.5-.294.714a.318.318,0,0,1-.214.113c-.508.082-1.018.156-1.529.232-.057.008-.112.025-.217.05" transform="translate(-212.971 -216.196)" fill="#b7202e"/>
        <path id="Path_8847" data-name="Path 8847" d="M235.148,219.12c.2-.055.408-.112.611-.163a.19.19,0,0,1,.132.039.408.408,0,0,0,.416.039c.417-.139.515-.342.365-.758-.035-.1-.082-.2-.134-.331-.055.082-.094.13-.123.184a.928.928,0,0,1-1.421.3,1.579,1.579,0,0,1-.608-1.525.964.964,0,0,1,1.3-.782c.053.018.107.033.189.06l-.055-.312.511-.194a1.148,1.148,0,0,1,.088.155c.26.671.526,1.341.771,2.018a3.351,3.351,0,0,1,.157.707.624.624,0,0,1-.245.571,2.023,2.023,0,0,1-1.339.5.619.619,0,0,1-.626-.506m-.136-2.055a1.341,1.341,0,0,0,.273.747.539.539,0,0,0,.611.221.576.576,0,0,0,.4-.577,1.193,1.193,0,0,0-.32-.792.555.555,0,0,0-.968.4" transform="translate(-216.756 -213.169)" fill="#b7202e"/>
        <path id="Path_8848" data-name="Path 8848" d="M221.9,225.322l.456-.434,1.461.766.045-.042c-.25-.489-.571-.933-.841-1.432l.429-.448,1.485.838a3.3,3.3,0,0,0-.392-.783c-.131-.249-.274-.489-.42-.747.138-.146.263-.277.389-.408a15.587,15.587,0,0,1,1.3,2.337l-.451.413c-.447-.245-.917-.5-1.386-.763l-.05.052c.253.465.55.9.823,1.386l-.435.461c-.79-.394-1.572-.781-2.407-1.2" transform="translate(-214.321 -214.454)" fill="#b7202e"/>
        <path id="Path_8849" data-name="Path 8849" d="M232.079,216.222l1.712,3.09c-.17.1-.326.191-.489.289-.07-.089-.128-.163-.2-.252a1.179,1.179,0,0,0-.073.136.978.978,0,0,1-1.626.43,1.841,1.841,0,0,1-.635-1.154,1,1,0,0,1,1.16-1.136c.046.006.092,0,.188,0l-.593-1.092.561-.311m-.047,1.765a.571.571,0,0,0-.625.6,1.3,1.3,0,0,0,.421.838.55.55,0,0,0,.668.108.564.564,0,0,0,.265-.624,1.343,1.343,0,0,0-.4-.727,1.442,1.442,0,0,0-.326-.191" transform="translate(-216.067 -213.269)" fill="#b7202e"/>
        <path id="Path_8850" data-name="Path 8850" d="M267.169,222.384l-.252.227-.448-.35c.717-.937,1.438-1.847,2.169-2.784.1.068.183.126.264.189s.146.123.239.2c-.245.326-.482.637-.745.983.114.014.177.024.24.028a.994.994,0,0,1,.924,1.245,1.744,1.744,0,0,1-.921,1.149.964.964,0,0,1-1.436-.724c0-.037-.016-.074-.035-.163m.358-.151a.522.522,0,0,0,.815.47,1.34,1.34,0,0,0,.6-.795.489.489,0,0,0-.156-.528.518.518,0,0,0-.537-.126,1.223,1.223,0,0,0-.72.978" transform="translate(-222.884 -213.871)" fill="#b7202e"/>
        <path id="Path_8851" data-name="Path 8851" d="M282.729,253.935c-.042.245-.082.47-.121.734l-4.6-.815c.043-.231.082-.426.12-.648l.633.073a7.285,7.285,0,0,1-.463-.571.787.787,0,0,1-.073-.675,1.386,1.386,0,0,1,.365-.628l.62.36c-.051.093-.09.159-.125.227a.82.82,0,0,0,.392,1.218,4.038,4.038,0,0,0,.885.282c.7.139,1.4.249,2.1.372.077.014.151.038.276.068" transform="translate(-225.098 -219.43)" fill="#b7202e"/>
        <path id="Path_8852" data-name="Path 8852" d="M228.818,239.133v.455c-.157.055-.326.124-.5.174a.51.51,0,0,0-.388.347,1.041,1.041,0,0,1-.224.337.369.369,0,0,1-.426.105.448.448,0,0,1-.312-.353.683.683,0,0,1,.408-.739.351.351,0,0,0,.2-.408c-.024-.209-.17-.3-.35-.2a6.034,6.034,0,0,0-.562.416c-.163.124-.311.266-.483.375a1.11,1.11,0,0,1-.4.157.447.447,0,0,1-.538-.516.3.3,0,0,1,.015-.086c.245-.646.489-1.29.734-1.946a2.7,2.7,0,0,1,.677.218l-.579,1.555.053.028a2.212,2.212,0,0,1,.195-.2,4.894,4.894,0,0,1,.646-.489.627.627,0,0,1,.922.264,4.335,4.335,0,0,1,.245.628c.082-.012.19-.028.3-.047s.226-.043.377-.072" transform="translate(-215.014 -216.939)" fill="#b7202e"/>
        <path id="Path_8853" data-name="Path 8853" d="M267.141,240.755c.074-.326.133-.584.185-.839.028-.134.141-.15.237-.188q1.081-.441,2.163-.876c.262-.106.52-.215.8-.331q-.085-.265-.163-.532l.658-.267.757,1.86c-.223.094-.431.182-.668.28l-.266-.6-1.824.734c-.6.245-1.206.489-1.875.757" transform="translate(-223.022 -217.023)" fill="#b7202e"/>
        <path id="Path_8854" data-name="Path 8854" d="M274.142,230.735c.046-.095.082-.171.127-.258q-.111-.053-.223-.1a1.073,1.073,0,0,1-.578-.624.7.7,0,0,1,.218-.839.684.684,0,0,1,.886-.011,5.411,5.411,0,0,1,.43.392c.114.105.227.213.343.317a.441.441,0,0,0,.095.05c.245-.147.286-.227.245-.408a.631.631,0,0,0-.638-.476c-.035-.077-.082-.163-.114-.25s-.057-.158-.09-.254a.815.815,0,0,1,.835.143,2.007,2.007,0,0,1,.571.867.619.619,0,0,1-.231.774c-.245.175-.5.337-.752.5a2.638,2.638,0,0,0-.8.677c-.112-.174-.21-.326-.322-.5m.916-.854a6.384,6.384,0,0,0-.559-.5.3.3,0,0,0-.489.245.547.547,0,0,0,.116.343c.231.286.579.253.929-.094" transform="translate(-224.249 -215.349)" fill="#b7202e"/>
        <path id="Path_8855" data-name="Path 8855" d="M221.481,227.139a1.347,1.347,0,0,1,.046,2.69,1.441,1.441,0,0,1-1.386-1.351,1.371,1.371,0,0,1,1.34-1.342m-.128.614a.607.607,0,0,0-.6.815,1.067,1.067,0,0,0,.9.639.611.611,0,0,0,.577-.831,1.079,1.079,0,0,0-.88-.623" transform="translate(-213.996 -215.16)" fill="#b7202e"/>
        <path id="Path_8856" data-name="Path 8856" d="M229.677,221.161l.547-.245a.944.944,0,0,1-.145.909,1.4,1.4,0,0,1-.783.529,1.038,1.038,0,0,1-.96-.214,1.733,1.733,0,0,1-.633-1.021,1.06,1.06,0,0,1,.424-1.106,1.1,1.1,0,0,1,1.2-.156,1.688,1.688,0,0,1,.686.665c-.444.351-.926.639-1.362.978a.571.571,0,0,0,.7.3c.249-.081.337-.25.326-.642m-.408-.571c-.269-.352-.571-.415-.823-.205a.513.513,0,0,0,.009.776l.815-.571" transform="translate(-215.479 -213.92)" fill="#b7202e"/>
        <path id="Path_8857" data-name="Path 8857" d="M238.842,216.5c.114.362.3.529.557.532s.4-.119.53-.5l.606-.051a.987.987,0,0,1-.435.792,1.474,1.474,0,0,1-.854.25.951.951,0,0,1-.751-.332,1.639,1.639,0,0,1-.382-1.493,1.05,1.05,0,0,1,.89-.815,1.067,1.067,0,0,1,1.174.454,1.453,1.453,0,0,1,.274.717l-1.61.444m.9-.648c-.145-.438-.424-.6-.734-.459a.5.5,0,0,0-.221.719c.311-.082.625-.17.956-.26" transform="translate(-217.462 -213.016)" fill="#b7202e"/>
        <path id="Path_8858" data-name="Path 8858" d="M278.034,235.662c-.245-.514-.474-1.005-.7-1.491a.517.517,0,0,0-.439.543c.009.293.143.418.578.522l.154.55a.862.862,0,0,1-.823-.24,1.355,1.355,0,0,1-.431-.931,1.231,1.231,0,0,1,.12-.558,1.68,1.68,0,0,1,1.676-.745,1.179,1.179,0,0,1,.553,1.918,1.631,1.631,0,0,1-.683.433m.064-.764c.368-.14.507-.427.374-.717s-.437-.366-.8-.188l.422.9" transform="translate(-224.796 -216.244)" fill="#b7202e"/>
        <path id="Path_8859" data-name="Path 8859" d="M271.771,225.765c-.4-.413-.782-.8-1.158-1.19a.545.545,0,0,0-.24.667c.1.259.269.332.725.3.065.093.139.194.208.3.038.055.067.116.106.187a.884.884,0,0,1-.947-.031,2.057,2.057,0,0,1-.484-.456,1,1,0,0,1-.082-1.151,1.749,1.749,0,0,1,.862-.8,1.165,1.165,0,0,1,1.467,1.619,1.868,1.868,0,0,1-.458.555m-.186-.734c.313-.3.333-.612.086-.836a.514.514,0,0,0-.776.115l.691.721" transform="translate(-223.574 -214.615)" fill="#b7202e"/>
        <path id="Path_8860" data-name="Path 8860" d="M259.511,217.328l-1.569-.5a.538.538,0,0,0,.1.7c.226.195.423.179.773-.082l.523.274a.892.892,0,0,1-.877.428,2.039,2.039,0,0,1-.664-.195.991.991,0,0,1-.571-.973,1.77,1.77,0,0,1,.377-1.083,1.105,1.105,0,0,1,1.256-.371,1.071,1.071,0,0,1,.8,1.06,1.589,1.589,0,0,1-.145.746m-.5-.562a.528.528,0,0,0-.091-.652.457.457,0,0,0-.536-.1.447.447,0,0,0-.311.452l.939.3" transform="translate(-221.115 -213.128)" fill="#b7202e"/>
        <path id="Path_8861" data-name="Path 8861" d="M220.625,231.942c-.313-.18-.607-.35-.9-.516-.177-.1-.352-.207-.536-.3-.271-.13-.457-.093-.6.1a.526.526,0,0,0,.043.695,1.771,1.771,0,0,0,.35.26c.292.178.588.343.882.515.073.045.144.093.233.151l-.311.549c-.734-.425-1.458-.84-2.2-1.272l.275-.5.309.116c-.014-.122-.024-.215-.033-.309a1.008,1.008,0,0,1,.112-.593.75.75,0,0,1,1.1-.363c.534.278,1.05.589,1.6.9-.113.2-.213.368-.326.561" transform="translate(-213.524 -215.727)" fill="#b7202e"/>
        <path id="Path_8862" data-name="Path 8862" d="M279.9,238.62c-.095-.163-.188-.326-.286-.494a.652.652,0,0,0,.007-.835c-.055-.092-.131-.182-.259-.139a.211.211,0,0,0-.13.238c0,.155.018.311.025.465a5.643,5.643,0,0,1,.022.642.681.681,0,0,1-.941.611.879.879,0,0,1-.456-.348,1.768,1.768,0,0,1-.326-1.156.887.887,0,0,1,.416-.7l.294.542a.642.642,0,0,0-.112.862.571.571,0,0,0,.128.157.217.217,0,0,0,.38-.148,1.956,1.956,0,0,0-.014-.291c-.013-.252-.035-.5-.034-.757a.646.646,0,0,1,.443-.652.686.686,0,0,1,.795.2,1.779,1.779,0,0,1,.419,1.185.706.706,0,0,1-.368.619" transform="translate(-225.015 -216.82)" fill="#b7202e"/>
        <path id="Path_8863" data-name="Path 8863" d="M228.541,277.733l-.637-.415,2.543-3.919.639.413-2.545,3.921" transform="translate(-215.524 -223.241)" fill="#b7202e"/>
        <path id="Path_8864" data-name="Path 8864" d="M276.854,268.318l-.435.622-3.825-2.678.43-.629,3.832,2.685" transform="translate(-224.098 -221.934)" fill="#b7202e"/>
        <path id="Path_8865" data-name="Path 8865" d="M254.906,282.568l-.747.134-.89-4.578c.253-.047.484-.092.747-.143l.89,4.588" transform="translate(-220.358 -224.087)" fill="#b7202e"/>
        <path id="Path_8866" data-name="Path 8866" d="M263.6,216.268l.6.326-1.424,2.576,1.555.876c-.088.163-.163.312-.262.489l-2.169-1.2c.571-1.025,1.127-2.032,1.7-3.073" transform="translate(-222.008 -213.277)" fill="#b7202e"/>
        <path id="Path_8867" data-name="Path 8867" d="M276.144,232.963l-.382.289a3.642,3.642,0,0,1-.314-.387.571.571,0,0,1,.2-.892c.3-.194.62-.367.929-.55.1-.059.2-.12.312-.188l-.092-.3c.121-.073.245-.145.381-.226l.2.22a.362.362,0,0,0,.115-.041.478.478,0,0,1,.679.012c.074.057.158.1.277.179l-.739.443c.064.134.121.255.192.408-.129.081-.254.159-.4.245l-.28-.382c-.393.231-.779.452-1.159.683a.192.192,0,0,0-.053.3c.037.055.081.108.128.18" transform="translate(-224.6 -215.79)" fill="#b7202e"/>
        <path id="Path_8868" data-name="Path 8868" d="M225.049,221.054l.5-.408,2.267,2.7-.489.426-2.283-2.719" transform="translate(-214.977 -214.087)" fill="#b7202e"/>
        <path id="Path_8869" data-name="Path 8869" d="M256.758,226.98c.148-.288.271-.537.4-.784.055-.1.155-.107.256-.082a1.008,1.008,0,0,1,.692.537,1.6,1.6,0,0,1-.55,2.038.464.464,0,0,1-.594-.033.326.326,0,0,1,.082-.576,2.038,2.038,0,0,0,.408-.217.9.9,0,0,0,.258-.307.364.364,0,0,0-.228-.535,2.3,2.3,0,0,0-.489-.064,1.405,1.405,0,0,0-.245.027" transform="translate(-221.022 -214.978)" fill="#b7202e"/>
        <path id="Path_8870" data-name="Path 8870" d="M272.131,227.89l-.4-.5,1.981-1.6.359.435-.192.245c.239.035.474.015.63.209a.577.577,0,0,1,.157.419l-.489.185c-.038-.073-.066-.134-.1-.192a.4.4,0,0,0-.586-.2,3.189,3.189,0,0,0-.513.333c-.28.209-.548.431-.844.666" transform="translate(-223.938 -214.924)" fill="#b7202e"/>
        <path id="Path_8871" data-name="Path 8871" d="M223.457,239.464l.953-2.482.683.261-.951,2.482-.685-.26" transform="translate(-214.608 -216.894)" fill="#b7202e"/>
        <path id="Path_8872" data-name="Path 8872" d="M266.472,219.295l.548.341-1.348,2.161-.55-.339c.456-.734.9-1.436,1.351-2.163" transform="translate(-222.62 -213.837)" fill="#b7202e"/>
        <path id="Path_8873" data-name="Path 8873" d="M265.934,239.855a1.1,1.1,0,0,1,.6.62.571.571,0,0,1,.011.508,2.618,2.618,0,0,1-.281.474c-.229.29-.477.565-.721.843-.121.137-.126.133-.371.046.038-.066.07-.132.112-.192.219-.311.445-.616.659-.929.146-.215.136-.272-.046-.454-.13-.13-.27-.251-.429-.4.077-.088.148-.174.225-.258s.159-.17.245-.261" transform="translate(-222.627 -217.4)" fill="#b7202e"/>
        <path id="Path_8874" data-name="Path 8874" d="M259.888,225.819c-.526-.267-1.025-.523-1.542-.786.112-.221.211-.42.326-.652l1.543.783c-.113.227-.216.43-.326.652" transform="translate(-221.328 -214.777)" fill="#b7202e"/>
        <path id="Path_8875" data-name="Path 8875" d="M261.992,226.782l-.007.007c-.071.1-.149.063-.228.013-.436-.272-.873-.544-1.336-.834.128-.208.245-.4.383-.622.489.3.964.6,1.453.906l-.264.531" transform="translate(-221.723 -214.847)" fill="#b7202e"/>
        <path id="Path_8876" data-name="Path 8876" d="M271.5,265.5l-.722-.5.438-.617.714.5c-.144.209-.276.4-.43.624" transform="translate(-223.764 -221.731)" fill="#b7202e"/>
        <path id="Path_8877" data-name="Path 8877" d="M232.117,271.548l.613.4a4.141,4.141,0,0,1-.461.747c-.207-.135-.408-.263-.63-.408.163-.254.315-.484.479-.739" transform="translate(-216.232 -222.899)" fill="#b7202e"/>
        <path id="Path_8878" data-name="Path 8878" d="M267.041,218.771l.31-.5.545.333-.308.5-.546-.337" transform="translate(-222.98 -213.648)" fill="#b7202e"/>
      </g>
    </g>
    <g id="Group_19886" data-name="Group 19886" transform="translate(141.152 326.01)">
      <path id="Path_50637" data-name="Path 50637" d="M1.7-1.5l-.516-.594,2.75-2.922.012-.016-.5-.051v-.605H5.566v.605l-.535.105ZM.258,0V-.6L.879-.719V-4.965L.258-5.082v-.605H2.465v.605l-.6.117V-.719l.6.117V0ZM3.57,0V-.6l.5-.051v0l-1.5-2.07.617-.691L5.227-.7l.543.1V0ZM10,.082a2.259,2.259,0,0,1-.963-.2,1.531,1.531,0,0,1-.668-.6A2.033,2.033,0,0,1,8.1-1.715l.008-.023h.934a1.223,1.223,0,0,0,.254.807.841.841,0,0,0,.637.24.866.866,0,0,0,.461-.117.755.755,0,0,0,.293-.336,1.235,1.235,0,0,0,.1-.523v-3.3l-.762-.113v-.609H12.39v.605l-.625.117v3.3a2,2,0,0,1-.2.926,1.423,1.423,0,0,1-.6.609A1.991,1.991,0,0,1,10,.082Zm6.984,0A3.882,3.882,0,0,1,15.9-.062a3.224,3.224,0,0,1-.973-.48V-1.852h.762L15.816-1a1.7,1.7,0,0,0,.51.238,2.3,2.3,0,0,0,.658.09,1.507,1.507,0,0,0,.584-.1.808.808,0,0,0,.361-.279.727.727,0,0,0,.125-.426.746.746,0,0,0-.109-.4.949.949,0,0,0-.363-.314,3.221,3.221,0,0,0-.687-.256,4.872,4.872,0,0,1-1.064-.406,1.769,1.769,0,0,1-.645-.562,1.371,1.371,0,0,1-.217-.773A1.367,1.367,0,0,1,15.216-5a1.681,1.681,0,0,1,.689-.555,2.456,2.456,0,0,1,1.02-.207,3.23,3.23,0,0,1,1.119.164,2.681,2.681,0,0,1,.822.449V-3.93H18.12l-.141-.8a1.493,1.493,0,0,0-.416-.193,2.029,2.029,0,0,0-.6-.08,1.312,1.312,0,0,0-.523.1.836.836,0,0,0-.355.275.7.7,0,0,0-.129.424.633.633,0,0,0,.113.375.987.987,0,0,0,.379.291,4.617,4.617,0,0,0,.719.264,3.341,3.341,0,0,1,1.4.68,1.428,1.428,0,0,1,.477,1.105,1.372,1.372,0,0,1-.256.826,1.656,1.656,0,0,1-.719.549A2.773,2.773,0,0,1,16.984.082Zm4.566,0A1.935,1.935,0,0,1,20.5-.191a1.791,1.791,0,0,1-.672-.76A2.548,2.548,0,0,1,19.6-2.07v-.082a2.526,2.526,0,0,1,.234-1.113,1.819,1.819,0,0,1,.672-.762A1.9,1.9,0,0,1,21.542-4.3a1.925,1.925,0,0,1,1.047.275,1.806,1.806,0,0,1,.672.76A2.535,2.535,0,0,1,23.5-2.152v.082a2.548,2.548,0,0,1-.234,1.119,1.8,1.8,0,0,1-.67.76A1.918,1.918,0,0,1,21.55.082Zm0-.758a.816.816,0,0,0,.541-.178,1.063,1.063,0,0,0,.318-.492,2.277,2.277,0,0,0,.105-.725v-.082a2.245,2.245,0,0,0-.105-.719,1.069,1.069,0,0,0-.32-.492.823.823,0,0,0-.547-.18.812.812,0,0,0-.539.18,1.056,1.056,0,0,0-.318.492,2.284,2.284,0,0,0-.1.719v.082a2.317,2.317,0,0,0,.1.725A1.036,1.036,0,0,0,21-.854.831.831,0,0,0,21.55-.676ZM24.007,0V-.6l.59-.117V-3.5l-.621-.117v-.605H25.5l.047.555a1.455,1.455,0,0,1,.518-.467,1.506,1.506,0,0,1,.721-.166,1.3,1.3,0,0,1,.709.186,1.147,1.147,0,0,1,.447.561,1.5,1.5,0,0,1,.514-.547,1.381,1.381,0,0,1,.748-.2,1.24,1.24,0,0,1,1,.434,2,2,0,0,1,.365,1.313v1.84l.59.117V0H29.03V-.6l.555-.117V-2.562a1.189,1.189,0,0,0-.18-.75.648.648,0,0,0-.527-.215.726.726,0,0,0-.533.207.988.988,0,0,0-.271.527V-.719l.535.117V0H26.557V-.6l.535-.117V-2.562a1.175,1.175,0,0,0-.184-.74.646.646,0,0,0-.531-.225.937.937,0,0,0-.486.117.85.85,0,0,0-.314.332V-.719l.551.117V0Zm9,.082A1.424,1.424,0,0,1,32-.25a1.183,1.183,0,0,1-.359-.914,1.157,1.157,0,0,1,.219-.7,1.424,1.424,0,0,1,.641-.471,2.742,2.742,0,0,1,1.023-.17h.645v-.355a.719.719,0,0,0-.2-.535.8.8,0,0,0-.584-.2A1.292,1.292,0,0,0,33-3.541a1.018,1.018,0,0,0-.3.15l-.09.57h-.723l-.008-1.043a2.789,2.789,0,0,1,.7-.322,2.858,2.858,0,0,1,.852-.119,1.951,1.951,0,0,1,1.268.377,1.313,1.313,0,0,1,.463,1.08V-.984q0,.086,0,.168t.01.16L35.6-.6V0H34.311q-.039-.137-.072-.266a2,2,0,0,1-.049-.258,1.747,1.747,0,0,1-.51.436A1.339,1.339,0,0,1,33.007.082Zm.223-.762a1.153,1.153,0,0,0,.555-.139.986.986,0,0,0,.387-.35v-.707h-.656a.957.957,0,0,0-.666.205.63.63,0,0,0-.225.479.47.47,0,0,0,.156.379A.675.675,0,0,0,33.229-.68ZM36.041,0V-.6l.586-.117V-3.5l-.621-.117v-.605h1.605V-.719l.582.117V0Zm.547-5.184v-.91h1.023v.91Zm3.105,6.891a1.933,1.933,0,0,1-.279-.023,1.976,1.976,0,0,1-.275-.059l.109-.738q.07.012.17.02t.158.008A.589.589,0,0,0,39.991.76a1.113,1.113,0,0,0,.273-.428l.129-.34L38.948-3.551l-.492-.07v-.605H40.5v.605l-.52.078.734,1.969.129.367h.023l.867-2.34-.52-.074v-.605h1.941v.605l-.457.066L41.065.637a2.529,2.529,0,0,1-.291.541,1.274,1.274,0,0,1-.437.387A1.335,1.335,0,0,1,39.694,1.707ZM44.826.082a1.424,1.424,0,0,1-1-.332,1.183,1.183,0,0,1-.359-.914,1.157,1.157,0,0,1,.219-.7,1.424,1.424,0,0,1,.641-.471,2.742,2.742,0,0,1,1.023-.17h.645v-.355a.719.719,0,0,0-.2-.535.8.8,0,0,0-.584-.2,1.292,1.292,0,0,0-.387.053,1.018,1.018,0,0,0-.3.15l-.09.57h-.723L43.7-3.863a2.789,2.789,0,0,1,.7-.322,2.858,2.858,0,0,1,.852-.119,1.951,1.951,0,0,1,1.268.377,1.313,1.313,0,0,1,.463,1.08V-.984q0,.086,0,.168t.01.16l.43.055V0H46.131q-.039-.137-.072-.266a2,2,0,0,1-.049-.258,1.747,1.747,0,0,1-.51.436A1.339,1.339,0,0,1,44.826.082Zm.223-.762A1.153,1.153,0,0,0,45.6-.818a.986.986,0,0,0,.387-.35v-.707h-.656a.957.957,0,0,0-.666.205.63.63,0,0,0-.225.479.47.47,0,0,0,.156.379A.675.675,0,0,0,45.049-.68Zm7.007.762a3.882,3.882,0,0,1-1.082-.145A3.224,3.224,0,0,1,50-.543V-1.852h.762L50.888-1a1.7,1.7,0,0,0,.51.238,2.3,2.3,0,0,0,.658.09,1.507,1.507,0,0,0,.584-.1A.808.808,0,0,0,53-1.055a.727.727,0,0,0,.125-.426.746.746,0,0,0-.109-.4.949.949,0,0,0-.363-.314,3.221,3.221,0,0,0-.687-.256A4.872,4.872,0,0,1,50.9-2.859a1.769,1.769,0,0,1-.645-.562,1.371,1.371,0,0,1-.217-.773A1.367,1.367,0,0,1,50.289-5a1.681,1.681,0,0,1,.689-.555A2.456,2.456,0,0,1,52-5.766a3.23,3.23,0,0,1,1.119.164,2.681,2.681,0,0,1,.822.449V-3.93h-.746l-.141-.8a1.493,1.493,0,0,0-.416-.193,2.029,2.029,0,0,0-.6-.08,1.312,1.312,0,0,0-.523.1.836.836,0,0,0-.355.275.7.7,0,0,0-.129.424.633.633,0,0,0,.113.375.987.987,0,0,0,.379.291,4.617,4.617,0,0,0,.719.264,3.341,3.341,0,0,1,1.4.68,1.428,1.428,0,0,1,.477,1.105,1.372,1.372,0,0,1-.256.826,1.656,1.656,0,0,1-.719.549A2.773,2.773,0,0,1,52.056.082Zm4.551,0a1.906,1.906,0,0,1-1.029-.271,1.8,1.8,0,0,1-.672-.75,2.461,2.461,0,0,1-.236-1.1V-2.18A2.463,2.463,0,0,1,54.9-3.273a1.816,1.816,0,0,1,.67-.756A1.885,1.885,0,0,1,56.6-4.3a2.369,2.369,0,0,1,.945.174,2.1,2.1,0,0,1,.66.432l0,1.129h-.75l-.145-.746a.8.8,0,0,0-.277-.182.965.965,0,0,0-.367-.068.88.88,0,0,0-.553.176,1.087,1.087,0,0,0-.348.486,2.017,2.017,0,0,0-.119.725v.137a2.038,2.038,0,0,0,.121.75,1.008,1.008,0,0,0,.338.461.83.83,0,0,0,.5.156.816.816,0,0,0,.553-.184.879.879,0,0,0,.279-.508h.852l.012.023a1.773,1.773,0,0,1-.244.736,1.365,1.365,0,0,1-.555.506A1.961,1.961,0,0,1,56.607.082ZM58.771,0V-.6l.586-.117V-5.371l-.621-.117v-.605h1.6V-3.68a1.466,1.466,0,0,1,.512-.461,1.427,1.427,0,0,1,.688-.164,1.307,1.307,0,0,1,1.025.416,1.879,1.879,0,0,1,.373,1.283V-.719l.586.117V0H61.4V-.6l.555-.117V-2.613a1.024,1.024,0,0,0-.2-.7.737.737,0,0,0-.574-.215.993.993,0,0,0-.486.119,1.029,1.029,0,0,0-.361.334V-.719l.555.117V0Zm7.1.082a1.935,1.935,0,0,1-1.047-.273,1.791,1.791,0,0,1-.672-.76,2.548,2.548,0,0,1-.234-1.119v-.082a2.526,2.526,0,0,1,.234-1.113,1.819,1.819,0,0,1,.672-.762A1.9,1.9,0,0,1,65.864-4.3a1.925,1.925,0,0,1,1.047.275,1.806,1.806,0,0,1,.672.76,2.535,2.535,0,0,1,.234,1.117v.082a2.548,2.548,0,0,1-.234,1.119,1.8,1.8,0,0,1-.67.76A1.918,1.918,0,0,1,65.872.082Zm0-.758a.816.816,0,0,0,.541-.178,1.063,1.063,0,0,0,.318-.492,2.277,2.277,0,0,0,.105-.725v-.082a2.245,2.245,0,0,0-.105-.719,1.069,1.069,0,0,0-.32-.492.823.823,0,0,0-.547-.18.812.812,0,0,0-.539.18,1.056,1.056,0,0,0-.318.492,2.284,2.284,0,0,0-.1.719v.082a2.317,2.317,0,0,0,.1.725,1.036,1.036,0,0,0,.32.492A.831.831,0,0,0,65.872-.676Zm4.535.758A1.935,1.935,0,0,1,69.36-.191a1.791,1.791,0,0,1-.672-.76,2.548,2.548,0,0,1-.234-1.119v-.082a2.526,2.526,0,0,1,.234-1.113,1.819,1.819,0,0,1,.672-.762A1.9,1.9,0,0,1,70.4-4.3a1.925,1.925,0,0,1,1.047.275,1.806,1.806,0,0,1,.672.76,2.535,2.535,0,0,1,.234,1.117v.082a2.548,2.548,0,0,1-.234,1.119,1.8,1.8,0,0,1-.67.76A1.918,1.918,0,0,1,70.407.082Zm0-.758a.816.816,0,0,0,.541-.178,1.063,1.063,0,0,0,.318-.492,2.277,2.277,0,0,0,.105-.725v-.082a2.245,2.245,0,0,0-.105-.719,1.069,1.069,0,0,0-.32-.492.823.823,0,0,0-.547-.18.812.812,0,0,0-.539.18,1.056,1.056,0,0,0-.318.492,2.284,2.284,0,0,0-.1.719v.082a2.317,2.317,0,0,0,.1.725,1.036,1.036,0,0,0,.32.492A.831.831,0,0,0,70.407-.676ZM72.759,0V-.6l.59-.117V-5.371l-.625-.117v-.605h1.605V-.719l.59.117V0Zm6.531.082a1.935,1.935,0,0,1-1.047-.273,1.791,1.791,0,0,1-.672-.76,2.548,2.548,0,0,1-.234-1.119v-.082a2.526,2.526,0,0,1,.234-1.113,1.819,1.819,0,0,1,.672-.762A1.9,1.9,0,0,1,79.282-4.3a1.925,1.925,0,0,1,1.047.275A1.806,1.806,0,0,1,81-3.27a2.535,2.535,0,0,1,.234,1.117v.082A2.548,2.548,0,0,1,81-.951a1.8,1.8,0,0,1-.67.76A1.918,1.918,0,0,1,79.289.082Zm0-.758a.816.816,0,0,0,.541-.178,1.063,1.063,0,0,0,.318-.492,2.277,2.277,0,0,0,.105-.725v-.082a2.245,2.245,0,0,0-.105-.719,1.069,1.069,0,0,0-.32-.492.823.823,0,0,0-.547-.18.812.812,0,0,0-.539.18,1.056,1.056,0,0,0-.318.492,2.284,2.284,0,0,0-.1.719v.082a2.317,2.317,0,0,0,.1.725,1.036,1.036,0,0,0,.32.492A.831.831,0,0,0,79.289-.676ZM81.8,0V-.6l.59-.117v-2.8h-.645v-.7h.645v-.5A1.44,1.44,0,0,1,82.776-5.8a1.468,1.468,0,0,1,1.076-.379,2.517,2.517,0,0,1,.344.025,3.026,3.026,0,0,1,.336.064l-.1.738a1.74,1.74,0,0,0-.2-.033,2.123,2.123,0,0,0-.238-.014.6.6,0,0,0-.467.172.725.725,0,0,0-.154.5v.5h.945v.7h-.945v2.8L84.11-.6V0Zm4.922,0V-.6l.621-.117V-4.965l-.621-.117v-.605h4.332v1.465h-.766l-.066-.707H88.328V-3.32h2v.762h-2V-.75h2l.066-.723h.758V0ZM91.8,0V-.6l.586-.117V-3.5l-.617-.117v-.605h1.523l.051.613a1.534,1.534,0,0,1,.525-.51,1.4,1.4,0,0,1,.713-.182,1.3,1.3,0,0,1,1.016.4,1.822,1.822,0,0,1,.363,1.252V-.719l.586.117V0H94.425V-.6l.551-.117V-2.645a.976.976,0,0,0-.191-.682.751.751,0,0,0-.57-.2.954.954,0,0,0-.5.127.979.979,0,0,0-.346.354V-.719l.535.117V0Zm7,1.707a3.245,3.245,0,0,1-.693-.084,2.769,2.769,0,0,1-.67-.232l.2-.719a2.97,2.97,0,0,0,.551.184,2.508,2.508,0,0,0,.57.07A.875.875,0,0,0,99.47.658,1.143,1.143,0,0,0,99.695-.1V-.43a1.314,1.314,0,0,1-.465.381,1.4,1.4,0,0,1-.617.131,1.524,1.524,0,0,1-.889-.258,1.624,1.624,0,0,1-.57-.723,2.742,2.742,0,0,1-.2-1.078v-.082a3.226,3.226,0,0,1,.2-1.18,1.769,1.769,0,0,1,.566-.785A1.411,1.411,0,0,1,98.6-4.3a1.363,1.363,0,0,1,.672.158,1.413,1.413,0,0,1,.484.451l.074-.531h.848V-.094a1.95,1.95,0,0,1-.223.955,1.524,1.524,0,0,1-.645.625A2.157,2.157,0,0,1,98.8,1.707Zm.078-2.4a.926.926,0,0,0,.486-.121.927.927,0,0,0,.33-.352V-3.051a.986.986,0,0,0-.332-.35.888.888,0,0,0-.48-.127.773.773,0,0,0-.533.186,1.092,1.092,0,0,0-.309.516,2.665,2.665,0,0,0-.1.768v.082a1.7,1.7,0,0,0,.225.934A.787.787,0,0,0,98.878-.7Zm1.668-2.789-.414-.742h1.055v.605ZM101.515,0V-.6l.586-.117V-3.5l-.621-.117v-.605h1.605V-.719l.582.117V0Zm.547-5.184v-.91h1.023v.91ZM104.077,0V-.6l.586-.117V-3.5l-.617-.117v-.605h1.523l.051.613a1.534,1.534,0,0,1,.525-.51,1.4,1.4,0,0,1,.713-.182,1.3,1.3,0,0,1,1.016.4,1.822,1.822,0,0,1,.363,1.252V-.719l.586.117V0H106.7V-.6l.551-.117V-2.645a.976.976,0,0,0-.191-.682.751.751,0,0,0-.57-.2.954.954,0,0,0-.5.127.979.979,0,0,0-.346.354V-.719l.535.117V0Zm7.117.082a1.976,1.976,0,0,1-1.041-.268,1.823,1.823,0,0,1-.687-.74,2.324,2.324,0,0,1-.244-1.082v-.164a2.434,2.434,0,0,1,.24-1.1,1.888,1.888,0,0,1,.662-.758,1.719,1.719,0,0,1,.961-.275,1.86,1.86,0,0,1,.963.23,1.466,1.466,0,0,1,.588.654,2.376,2.376,0,0,1,.2,1.018v.563h-2.594l-.008.02a1.523,1.523,0,0,0,.139.59.972.972,0,0,0,.352.406,1,1,0,0,0,.557.148,1.968,1.968,0,0,0,.625-.094,1.921,1.921,0,0,0,.52-.266l.309.617a2.141,2.141,0,0,1-.637.355A2.572,2.572,0,0,1,111.194.082Zm-.937-2.613h1.637v-.1a1.3,1.3,0,0,0-.084-.486.686.686,0,0,0-.262-.326.8.8,0,0,0-.451-.117.684.684,0,0,0-.418.133.931.931,0,0,0-.287.361,1.766,1.766,0,0,0-.146.518ZM115.424.082a1.976,1.976,0,0,1-1.041-.268,1.823,1.823,0,0,1-.687-.74,2.324,2.324,0,0,1-.244-1.082v-.164a2.434,2.434,0,0,1,.24-1.1,1.888,1.888,0,0,1,.662-.758,1.719,1.719,0,0,1,.961-.275,1.86,1.86,0,0,1,.963.23,1.466,1.466,0,0,1,.588.654,2.376,2.376,0,0,1,.2,1.018v.563h-2.594l-.008.02a1.523,1.523,0,0,0,.139.59.972.972,0,0,0,.352.406,1,1,0,0,0,.557.148,1.968,1.968,0,0,0,.625-.094,1.921,1.921,0,0,0,.52-.266l.309.617a2.141,2.141,0,0,1-.637.355A2.572,2.572,0,0,1,115.424.082Zm-.937-2.613h1.637v-.1a1.3,1.3,0,0,0-.084-.486.686.686,0,0,0-.262-.326.8.8,0,0,0-.451-.117.684.684,0,0,0-.418.133.931.931,0,0,0-.287.361,1.766,1.766,0,0,0-.146.518ZM117.659,0V-.6l.586-.117V-3.5l-.617-.117v-.605h1.523l.051.531.008.086a1.4,1.4,0,0,1,.412-.516.939.939,0,0,1,.572-.18,1.486,1.486,0,0,1,.232.02,1.587,1.587,0,0,1,.2.043l-.113.91-.551-.031a.686.686,0,0,0-.443.105.96.96,0,0,0-.291.336v2.2l.586.117V0Zm3.359,0V-.6l.586-.117V-3.5l-.621-.117v-.605h1.605V-.719l.582.117V0Zm.547-5.184v-.91h1.023v.91ZM123.58,0V-.6l.586-.117V-3.5l-.617-.117v-.605h1.523l.051.613a1.534,1.534,0,0,1,.525-.51,1.4,1.4,0,0,1,.713-.182,1.3,1.3,0,0,1,1.016.4,1.822,1.822,0,0,1,.363,1.252V-.719l.586.117V0h-2.121V-.6l.551-.117V-2.645a.976.976,0,0,0-.191-.682.751.751,0,0,0-.57-.2.954.954,0,0,0-.5.127.979.979,0,0,0-.346.354V-.719l.535.117V0Zm7,1.707a3.245,3.245,0,0,1-.693-.084,2.769,2.769,0,0,1-.67-.232l.2-.719a2.971,2.971,0,0,0,.551.184,2.508,2.508,0,0,0,.57.07.875.875,0,0,0,.709-.268,1.143,1.143,0,0,0,.225-.756V-.43a1.314,1.314,0,0,1-.465.381,1.4,1.4,0,0,1-.617.131,1.524,1.524,0,0,1-.889-.258,1.624,1.624,0,0,1-.57-.723,2.741,2.741,0,0,1-.2-1.078v-.082a3.226,3.226,0,0,1,.2-1.18,1.769,1.769,0,0,1,.566-.785,1.411,1.411,0,0,1,.881-.281,1.363,1.363,0,0,1,.672.158,1.413,1.413,0,0,1,.484.451l.074-.531h.848V-.094a1.95,1.95,0,0,1-.223.955,1.524,1.524,0,0,1-.645.625A2.157,2.157,0,0,1,130.58,1.707Zm.078-2.4a.926.926,0,0,0,.486-.121.927.927,0,0,0,.33-.352V-3.051a.985.985,0,0,0-.332-.35.888.888,0,0,0-.48-.127.773.773,0,0,0-.533.186,1.092,1.092,0,0,0-.309.516,2.665,2.665,0,0,0-.1.768v.082a1.7,1.7,0,0,0,.225.934A.787.787,0,0,0,130.658-.7Zm1.668-2.789-.414-.742h1.055v.605Z" transform="translate(0.242 54.012)" fill="#58595b"/>
      <path id="Path_50638" data-name="Path 50638" d="M1.885,1.447a2.014,2.014,0,0,1-.573-.432A3.125,3.125,0,0,1,.808.3,4.324,4.324,0,0,1,.449-.663,4.754,4.754,0,0,1,.314-1.825v-.054A4.74,4.74,0,0,1,.449-3.037,4.358,4.358,0,0,1,.808-4a3.114,3.114,0,0,1,.5-.719,1.96,1.96,0,0,1,.573-.428H1.9l.146.425a1.982,1.982,0,0,0-.4.422,2.852,2.852,0,0,0-.325.616,4.2,4.2,0,0,0-.219.806,5.746,5.746,0,0,0-.079.993v.067a5.746,5.746,0,0,0,.079.993,4.236,4.236,0,0,0,.219.808A2.918,2.918,0,0,0,1.655.6a2.176,2.176,0,0,0,.4.435L1.9,1.447ZM2.374,0V-.489l.479-.1V-2.863H2.329v-.571h.524v-.4a1.17,1.17,0,0,1,.313-.873,1.193,1.193,0,0,1,.874-.308A2.045,2.045,0,0,1,4.319-5a2.459,2.459,0,0,1,.273.052l-.079.6a1.414,1.414,0,0,0-.165-.027,1.725,1.725,0,0,0-.194-.011.484.484,0,0,0-.379.14.589.589,0,0,0-.125.406v.4h.768v.571H3.65V-.584l.6.1V0Zm4,.067a1.572,1.572,0,0,1-.851-.222,1.455,1.455,0,0,1-.546-.617,2.07,2.07,0,0,1-.19-.909v-.067a2.052,2.052,0,0,1,.19-.9,1.478,1.478,0,0,1,.546-.619A1.543,1.543,0,0,1,6.363-3.5a1.564,1.564,0,0,1,.851.224,1.467,1.467,0,0,1,.546.617,2.06,2.06,0,0,1,.19.908v.067a2.07,2.07,0,0,1-.19.909,1.458,1.458,0,0,1-.544.617A1.558,1.558,0,0,1,6.37.067Zm0-.616a.663.663,0,0,0,.44-.144.864.864,0,0,0,.259-.4,1.85,1.85,0,0,0,.086-.589v-.067a1.824,1.824,0,0,0-.086-.584.869.869,0,0,0-.26-.4.669.669,0,0,0-.444-.146.659.659,0,0,0-.438.146.858.858,0,0,0-.259.4,1.856,1.856,0,0,0-.084.584v.067a1.882,1.882,0,0,0,.084.589.842.842,0,0,0,.26.4A.675.675,0,0,0,6.37-.549ZM8.423,0V-.489l.476-.1V-2.847l-.5-.1v-.492H9.635L9.677-3l.006.07a1.139,1.139,0,0,1,.335-.419.763.763,0,0,1,.465-.146,1.207,1.207,0,0,1,.189.016,1.289,1.289,0,0,1,.163.035l-.092.74L10.3-2.733a.557.557,0,0,0-.36.086.78.78,0,0,0-.236.273v1.79l.476.1V0Zm2.72,0V-.489l.479-.1V-2.847l-.5-.1v-.492h1.238l.038.451a1.182,1.182,0,0,1,.421-.379A1.224,1.224,0,0,1,13.4-3.5a1.06,1.06,0,0,1,.576.151.932.932,0,0,1,.363.455,1.215,1.215,0,0,1,.417-.444,1.122,1.122,0,0,1,.608-.162,1.008,1.008,0,0,1,.814.352,1.626,1.626,0,0,1,.3,1.066V-.584l.479.1V0h-1.73V-.489l.451-.1v-1.5a.966.966,0,0,0-.146-.609.527.527,0,0,0-.428-.175.59.59,0,0,0-.433.168.8.8,0,0,0-.221.428V-.584l.435.1V0H13.215V-.489l.435-.1v-1.5a.955.955,0,0,0-.149-.6.525.525,0,0,0-.432-.182.762.762,0,0,0-.4.1.691.691,0,0,0-.255.27V-.584l.448.1V0Zm7.75.067a1.605,1.605,0,0,1-.846-.217,1.481,1.481,0,0,1-.559-.6,1.888,1.888,0,0,1-.2-.879v-.133a1.978,1.978,0,0,1,.2-.893,1.534,1.534,0,0,1,.538-.616A1.4,1.4,0,0,1,18.8-3.5a1.511,1.511,0,0,1,.782.187,1.191,1.191,0,0,1,.478.532,1.93,1.93,0,0,1,.162.827v.457H18.119l-.006.016A1.237,1.237,0,0,0,18.225-1a.79.79,0,0,0,.286.33.813.813,0,0,0,.452.121,1.6,1.6,0,0,0,.508-.076,1.561,1.561,0,0,0,.422-.216l.251.5a1.74,1.74,0,0,1-.517.289A2.09,2.09,0,0,1,18.893.067Zm-.762-2.123h1.33v-.083a1.055,1.055,0,0,0-.068-.4A.557.557,0,0,0,19.18-2.8a.653.653,0,0,0-.367-.1.556.556,0,0,0-.34.108.756.756,0,0,0-.233.294,1.435,1.435,0,0,0-.119.421ZM20.708,0V-.489l.476-.1V-2.847l-.5-.1v-.492h1.238L21.962-3l.006.07a1.139,1.139,0,0,1,.335-.419.763.763,0,0,1,.465-.146,1.207,1.207,0,0,1,.189.016,1.289,1.289,0,0,1,.163.035l-.092.74-.448-.025a.557.557,0,0,0-.36.086.78.78,0,0,0-.236.273v1.79l.476.1V0Zm2.567,0V-.489l.479-.1v-3.78l-.508-.1v-.492h1.3V-.584l.479.1V0ZM26.25,1.387a1.57,1.57,0,0,1-.227-.019A1.605,1.605,0,0,1,25.8,1.32l.089-.6q.057.01.138.016t.129.006a.479.479,0,0,0,.336-.125A.9.9,0,0,0,26.713.27l.1-.276L25.643-2.885l-.4-.057v-.492h1.663v.492l-.422.063.6,1.6.1.3H27.2l.7-1.9-.422-.06v-.492h1.577v.492l-.371.054L27.364.517a2.055,2.055,0,0,1-.236.44,1.035,1.035,0,0,1-.355.314A1.085,1.085,0,0,1,26.25,1.387ZM32.1-1.219,31.68-1.7l2.234-2.374.01-.013-.409-.041v-.492h1.723v.492l-.435.086ZM30.924,0V-.489l.5-.1v-3.45l-.5-.1v-.492h1.793v.492l-.489.1v3.45l.489.1V0Zm2.691,0V-.489l.409-.041v0L32.806-2.215l.5-.562L34.961-.568l.441.079V0Zm5.224.067a1.835,1.835,0,0,1-.782-.159,1.244,1.244,0,0,1-.543-.484,1.652,1.652,0,0,1-.221-.817l.006-.019h.759a.993.993,0,0,0,.206.655.683.683,0,0,0,.517.2.7.7,0,0,0,.375-.1.614.614,0,0,0,.238-.273,1,1,0,0,0,.083-.425V-4.034l-.619-.092v-.5h1.923v.492l-.508.1v2.679a1.622,1.622,0,0,1-.165.752,1.156,1.156,0,0,1-.484.5A1.618,1.618,0,0,1,38.839.067Zm5.674,0a3.154,3.154,0,0,1-.879-.117,2.619,2.619,0,0,1-.79-.39V-1.5h.619l.1.689a1.38,1.38,0,0,0,.414.194,1.873,1.873,0,0,0,.535.073,1.224,1.224,0,0,0,.474-.081.657.657,0,0,0,.294-.227.591.591,0,0,0,.1-.346.606.606,0,0,0-.089-.327.771.771,0,0,0-.3-.255,2.617,2.617,0,0,0-.559-.208,3.959,3.959,0,0,1-.865-.33,1.437,1.437,0,0,1-.524-.457,1.114,1.114,0,0,1-.176-.628,1.111,1.111,0,0,1,.2-.657,1.366,1.366,0,0,1,.56-.451,2,2,0,0,1,.828-.168,2.624,2.624,0,0,1,.909.133,2.179,2.179,0,0,1,.668.365v.993h-.606l-.114-.647A1.213,1.213,0,0,0,44.985-4a1.649,1.649,0,0,0-.49-.065,1.066,1.066,0,0,0-.425.079.679.679,0,0,0-.289.224.571.571,0,0,0-.1.344.514.514,0,0,0,.092.3.8.8,0,0,0,.308.236,3.751,3.751,0,0,0,.584.214,2.714,2.714,0,0,1,1.139.552,1.161,1.161,0,0,1,.387.9,1.115,1.115,0,0,1-.208.671,1.345,1.345,0,0,1-.584.446A2.253,2.253,0,0,1,44.514.067Zm3.71,0a1.572,1.572,0,0,1-.851-.222,1.455,1.455,0,0,1-.546-.617,2.07,2.07,0,0,1-.19-.909v-.067a2.052,2.052,0,0,1,.19-.9,1.478,1.478,0,0,1,.546-.619,1.543,1.543,0,0,1,.844-.225,1.564,1.564,0,0,1,.851.224,1.467,1.467,0,0,1,.546.617,2.06,2.06,0,0,1,.19.908v.067a2.07,2.07,0,0,1-.19.909,1.458,1.458,0,0,1-.544.617A1.558,1.558,0,0,1,48.224.067Zm0-.616a.663.663,0,0,0,.44-.144.864.864,0,0,0,.259-.4,1.85,1.85,0,0,0,.086-.589v-.067a1.824,1.824,0,0,0-.086-.584.869.869,0,0,0-.26-.4.669.669,0,0,0-.444-.146.659.659,0,0,0-.438.146.858.858,0,0,0-.259.4,1.856,1.856,0,0,0-.084.584v.067a1.882,1.882,0,0,0,.084.589.842.842,0,0,0,.26.4A.675.675,0,0,0,48.224-.549Zm2,.549V-.489l.479-.1V-2.847l-.5-.1v-.492h1.238l.038.451a1.182,1.182,0,0,1,.421-.379,1.224,1.224,0,0,1,.586-.135,1.06,1.06,0,0,1,.576.151.932.932,0,0,1,.363.455,1.215,1.215,0,0,1,.417-.444,1.122,1.122,0,0,1,.608-.162,1.008,1.008,0,0,1,.814.352,1.626,1.626,0,0,1,.3,1.066V-.584l.479.1V0H54.3V-.489l.451-.1v-1.5a.966.966,0,0,0-.146-.609.527.527,0,0,0-.428-.175.59.59,0,0,0-.433.168.8.8,0,0,0-.221.428V-.584l.435.1V0H52.293V-.489l.435-.1v-1.5a.955.955,0,0,0-.149-.6.525.525,0,0,0-.432-.182.762.762,0,0,0-.4.1.691.691,0,0,0-.255.27V-.584l.448.1V0Zm7.312.067a1.157,1.157,0,0,1-.816-.27.961.961,0,0,1-.292-.743.94.94,0,0,1,.178-.568,1.157,1.157,0,0,1,.521-.382,2.228,2.228,0,0,1,.832-.138h.524v-.289a.584.584,0,0,0-.163-.435.646.646,0,0,0-.474-.162,1.05,1.05,0,0,0-.314.043.827.827,0,0,0-.244.122l-.073.463h-.587l-.006-.847A2.266,2.266,0,0,1,57.18-3.4a2.322,2.322,0,0,1,.692-.1,1.585,1.585,0,0,1,1.03.306,1.067,1.067,0,0,1,.376.878V-.8q0,.07,0,.136t.008.13l.349.044V0H58.593q-.032-.111-.059-.216a1.621,1.621,0,0,1-.04-.209,1.42,1.42,0,0,1-.414.354A1.088,1.088,0,0,1,57.533.067Zm.181-.619a.937.937,0,0,0,.451-.113.8.8,0,0,0,.314-.284v-.574h-.533a.778.778,0,0,0-.541.167.512.512,0,0,0-.182.389.382.382,0,0,0,.127.308A.548.548,0,0,0,57.713-.552ZM60,0V-.489l.476-.1V-2.847l-.5-.1v-.492h1.3v2.85l.473.1V0Zm.444-4.212v-.74h.832v.74Zm2.523,5.6a1.57,1.57,0,0,1-.227-.019,1.605,1.605,0,0,1-.224-.048L62.6.72q.057.01.138.016t.129.006a.479.479,0,0,0,.336-.125A.9.9,0,0,0,63.429.27l.1-.276L62.36-2.885l-.4-.057v-.492h1.663v.492l-.422.063.6,1.6.1.3h.019l.7-1.9-.422-.06v-.492h1.577v.492l-.371.054L64.08.517a2.055,2.055,0,0,1-.236.44,1.035,1.035,0,0,1-.355.314A1.085,1.085,0,0,1,62.966,1.387Zm4.17-1.32A1.157,1.157,0,0,1,66.32-.2a.961.961,0,0,1-.292-.743.94.94,0,0,1,.178-.568,1.157,1.157,0,0,1,.521-.382,2.228,2.228,0,0,1,.832-.138h.524v-.289a.584.584,0,0,0-.163-.435.646.646,0,0,0-.474-.162,1.05,1.05,0,0,0-.314.043.827.827,0,0,0-.244.122l-.073.463h-.587l-.006-.847a2.266,2.266,0,0,1,.565-.262,2.322,2.322,0,0,1,.692-.1,1.585,1.585,0,0,1,1.03.306,1.067,1.067,0,0,1,.376.878V-.8q0,.07,0,.136t.008.13l.349.044V0H68.2q-.032-.111-.059-.216a1.621,1.621,0,0,1-.04-.209,1.42,1.42,0,0,1-.414.354A1.088,1.088,0,0,1,67.136.067Zm.181-.619a.937.937,0,0,0,.451-.113.8.8,0,0,0,.314-.284v-.574h-.533a.778.778,0,0,0-.541.167.512.512,0,0,0-.182.389.382.382,0,0,0,.127.308A.548.548,0,0,0,67.317-.552Zm6.055.619a2.227,2.227,0,0,1-1.166-.29,1.9,1.9,0,0,1-.74-.812,2.73,2.73,0,0,1-.255-1.214v-.117a2.706,2.706,0,0,1,.254-1.2,1.973,1.973,0,0,1,.727-.822,2.065,2.065,0,0,1,1.13-.3,2.589,2.589,0,0,1,.854.136,2.124,2.124,0,0,1,.686.384V-3.1h-.609l-.083-.714a1.171,1.171,0,0,0-.232-.13,1.351,1.351,0,0,0-.278-.083,1.767,1.767,0,0,0-.328-.029,1.2,1.2,0,0,0-.713.209,1.306,1.306,0,0,0-.452.587,2.315,2.315,0,0,0-.156.885v.124a2.261,2.261,0,0,0,.165.906,1.291,1.291,0,0,0,.474.582,1.32,1.32,0,0,0,.741.2,1.767,1.767,0,0,0,.414-.049,1.63,1.63,0,0,0,.36-.129l.086-.647h.6v1.06a2.335,2.335,0,0,1-.652.282A3.069,3.069,0,0,1,73.372.067Zm3.6,0a1.572,1.572,0,0,1-.851-.222,1.455,1.455,0,0,1-.546-.617,2.07,2.07,0,0,1-.19-.909v-.067a2.052,2.052,0,0,1,.19-.9,1.478,1.478,0,0,1,.546-.619,1.543,1.543,0,0,1,.844-.225,1.564,1.564,0,0,1,.851.224,1.467,1.467,0,0,1,.546.617,2.06,2.06,0,0,1,.19.908v.067a2.07,2.07,0,0,1-.19.909,1.458,1.458,0,0,1-.544.617A1.558,1.558,0,0,1,76.968.067Zm0-.616a.663.663,0,0,0,.44-.144.864.864,0,0,0,.259-.4,1.85,1.85,0,0,0,.086-.589v-.067a1.824,1.824,0,0,0-.086-.584.869.869,0,0,0-.26-.4.669.669,0,0,0-.444-.146.659.659,0,0,0-.438.146.858.858,0,0,0-.259.4,1.856,1.856,0,0,0-.084.584v.067a1.883,1.883,0,0,0,.084.589.842.842,0,0,0,.26.4A.675.675,0,0,0,76.968-.549ZM78.879,0V-.489l.479-.1v-3.78l-.508-.1v-.492h1.3V-.584l.479.1V0Zm2.066,0V-.489l.479-.1v-3.78l-.508-.1v-.492h1.3V-.584l.479.1V0ZM84.6.067a1.605,1.605,0,0,1-.846-.217,1.481,1.481,0,0,1-.559-.6,1.888,1.888,0,0,1-.2-.879v-.133a1.978,1.978,0,0,1,.2-.893,1.534,1.534,0,0,1,.538-.616,1.4,1.4,0,0,1,.781-.224,1.511,1.511,0,0,1,.782.187,1.191,1.191,0,0,1,.478.532,1.93,1.93,0,0,1,.162.827v.457H83.826l-.006.016A1.237,1.237,0,0,0,83.933-1a.79.79,0,0,0,.286.33.813.813,0,0,0,.452.121,1.6,1.6,0,0,0,.508-.076A1.561,1.561,0,0,0,85.6-.841l.251.5a1.74,1.74,0,0,1-.517.289A2.09,2.09,0,0,1,84.6.067Zm-.762-2.123h1.33v-.083a1.055,1.055,0,0,0-.068-.4.557.557,0,0,0-.213-.265.653.653,0,0,0-.367-.1.556.556,0,0,0-.34.108.756.756,0,0,0-.233.294,1.435,1.435,0,0,0-.119.421Zm4.107,3.444a2.636,2.636,0,0,1-.563-.068,2.25,2.25,0,0,1-.544-.189L87,.546A2.413,2.413,0,0,0,87.451.7a2.038,2.038,0,0,0,.463.057A.711.711,0,0,0,88.49.535a.929.929,0,0,0,.182-.614v-.27a1.068,1.068,0,0,1-.378.309,1.134,1.134,0,0,1-.5.106,1.238,1.238,0,0,1-.722-.209,1.319,1.319,0,0,1-.463-.587,2.228,2.228,0,0,1-.16-.876v-.067a2.621,2.621,0,0,1,.16-.958,1.437,1.437,0,0,1,.46-.638,1.147,1.147,0,0,1,.716-.229,1.108,1.108,0,0,1,.546.129A1.148,1.148,0,0,1,88.723-3l.06-.432h.689V-.076A1.584,1.584,0,0,1,89.292.7a1.238,1.238,0,0,1-.524.508A1.753,1.753,0,0,1,87.946,1.387Zm.063-1.952a.753.753,0,0,0,.4-.1.753.753,0,0,0,.268-.286v-1.53a.8.8,0,0,0-.27-.284.721.721,0,0,0-.39-.1.628.628,0,0,0-.433.151.887.887,0,0,0-.251.419,2.165,2.165,0,0,0-.081.624v.067a1.383,1.383,0,0,0,.182.759A.639.639,0,0,0,88.009-.565Zm1.355-2.266-.336-.6h.857v.492Zm2.393,2.9a1.605,1.605,0,0,1-.846-.217,1.481,1.481,0,0,1-.559-.6,1.888,1.888,0,0,1-.2-.879v-.133a1.978,1.978,0,0,1,.2-.893,1.534,1.534,0,0,1,.538-.616,1.4,1.4,0,0,1,.781-.224,1.511,1.511,0,0,1,.782.187,1.191,1.191,0,0,1,.478.532,1.93,1.93,0,0,1,.162.827v.457H90.983l-.006.016A1.237,1.237,0,0,0,91.089-1a.79.79,0,0,0,.286.33.813.813,0,0,0,.452.121,1.6,1.6,0,0,0,.508-.076,1.561,1.561,0,0,0,.422-.216l.251.5a1.74,1.74,0,0,1-.517.289A2.09,2.09,0,0,1,91.757.067ZM91-2.057h1.33v-.083a1.055,1.055,0,0,0-.068-.4.557.557,0,0,0-.213-.265.653.653,0,0,0-.367-.1.556.556,0,0,0-.34.108.756.756,0,0,0-.233.294,1.435,1.435,0,0,0-.119.421ZM96.734.067a1.572,1.572,0,0,1-.851-.222,1.455,1.455,0,0,1-.546-.617,2.07,2.07,0,0,1-.19-.909v-.067a2.052,2.052,0,0,1,.19-.9,1.478,1.478,0,0,1,.546-.619,1.543,1.543,0,0,1,.844-.225,1.564,1.564,0,0,1,.851.224,1.467,1.467,0,0,1,.546.617,2.06,2.06,0,0,1,.19.908v.067a2.07,2.07,0,0,1-.19.909,1.458,1.458,0,0,1-.544.617A1.558,1.558,0,0,1,96.734.067Zm0-.616a.663.663,0,0,0,.44-.144.864.864,0,0,0,.259-.4,1.85,1.85,0,0,0,.086-.589v-.067a1.824,1.824,0,0,0-.086-.584.869.869,0,0,0-.26-.4.669.669,0,0,0-.444-.146.659.659,0,0,0-.438.146.858.858,0,0,0-.259.4,1.856,1.856,0,0,0-.084.584v.067a1.883,1.883,0,0,0,.084.589.842.842,0,0,0,.26.4A.675.675,0,0,0,96.734-.549ZM98.774,0V-.489l.479-.1V-2.863H98.73v-.571h.524v-.4a1.17,1.17,0,0,1,.313-.873,1.193,1.193,0,0,1,.874-.308A2.045,2.045,0,0,1,100.72-5a2.459,2.459,0,0,1,.273.052l-.079.6a1.414,1.414,0,0,0-.165-.027,1.725,1.725,0,0,0-.194-.011.484.484,0,0,0-.379.14.589.589,0,0,0-.125.406v.4h.768v.571h-.768V-.584l.6.1V0Zm4,0V-.489l.5-.1v-3.45l-.5-.1v-.492h3.52v1.19h-.622l-.054-.574h-1.539V-2.7H105.7v.619h-1.622V-.609H105.7l.054-.587h.616V0ZM106.9,0V-.489l.476-.1V-2.847l-.5-.1v-.492h1.238l.041.5a1.246,1.246,0,0,1,.427-.414,1.137,1.137,0,0,1,.579-.148,1.058,1.058,0,0,1,.825.325,1.481,1.481,0,0,1,.3,1.017V-.584l.476.1V0h-1.723V-.489l.448-.1V-2.149a.793.793,0,0,0-.156-.554.611.611,0,0,0-.463-.163.775.775,0,0,0-.4.1.8.8,0,0,0-.281.287V-.584l.435.1V0Zm5.687,1.387a2.636,2.636,0,0,1-.563-.068,2.25,2.25,0,0,1-.544-.189l.165-.584a2.413,2.413,0,0,0,.448.149,2.038,2.038,0,0,0,.463.057.711.711,0,0,0,.576-.217.929.929,0,0,0,.182-.614v-.27a1.068,1.068,0,0,1-.378.309,1.134,1.134,0,0,1-.5.106,1.238,1.238,0,0,1-.722-.209,1.319,1.319,0,0,1-.463-.587,2.228,2.228,0,0,1-.16-.876v-.067a2.621,2.621,0,0,1,.16-.958,1.437,1.437,0,0,1,.46-.638,1.147,1.147,0,0,1,.716-.229,1.108,1.108,0,0,1,.546.129,1.148,1.148,0,0,1,.394.367l.06-.432h.689V-.076a1.584,1.584,0,0,1-.181.776,1.238,1.238,0,0,1-.524.508A1.753,1.753,0,0,1,112.586,1.387Zm.063-1.952a.753.753,0,0,0,.4-.1.753.753,0,0,0,.268-.286v-1.53a.8.8,0,0,0-.27-.284.721.721,0,0,0-.39-.1.628.628,0,0,0-.433.151.887.887,0,0,0-.251.419,2.165,2.165,0,0,0-.081.624v.067a1.383,1.383,0,0,0,.182.759A.639.639,0,0,0,112.65-.565ZM114-2.831l-.336-.6h.857v.492ZM114.792,0V-.489l.476-.1V-2.847l-.5-.1v-.492h1.3v2.85l.473.1V0Zm.444-4.212v-.74h.832v.74ZM116.874,0V-.489l.476-.1V-2.847l-.5-.1v-.492h1.238l.041.5a1.246,1.246,0,0,1,.427-.414,1.137,1.137,0,0,1,.579-.148,1.058,1.058,0,0,1,.825.325,1.481,1.481,0,0,1,.3,1.017V-.584l.476.1V0h-1.723V-.489l.448-.1V-2.149A.793.793,0,0,0,119.3-2.7a.611.611,0,0,0-.463-.163.775.775,0,0,0-.4.1.8.8,0,0,0-.281.287V-.584l.435.1V0Zm5.783.067a1.605,1.605,0,0,1-.846-.217,1.481,1.481,0,0,1-.559-.6,1.888,1.888,0,0,1-.2-.879v-.133a1.978,1.978,0,0,1,.2-.893,1.534,1.534,0,0,1,.538-.616,1.4,1.4,0,0,1,.781-.224,1.511,1.511,0,0,1,.782.187,1.191,1.191,0,0,1,.478.532,1.93,1.93,0,0,1,.162.827v.457h-2.107l-.006.016a1.237,1.237,0,0,0,.113.479.79.79,0,0,0,.286.33.813.813,0,0,0,.452.121,1.6,1.6,0,0,0,.508-.076,1.561,1.561,0,0,0,.422-.216l.251.5a1.74,1.74,0,0,1-.517.289A2.09,2.09,0,0,1,122.656.067Zm-.762-2.123h1.33v-.083a1.055,1.055,0,0,0-.068-.4.557.557,0,0,0-.213-.265.653.653,0,0,0-.367-.1.556.556,0,0,0-.34.108.756.756,0,0,0-.233.294,1.435,1.435,0,0,0-.119.421Zm4.2,2.123a1.605,1.605,0,0,1-.846-.217,1.481,1.481,0,0,1-.559-.6,1.888,1.888,0,0,1-.2-.879v-.133a1.978,1.978,0,0,1,.2-.893,1.534,1.534,0,0,1,.538-.616A1.4,1.4,0,0,1,126-3.5a1.511,1.511,0,0,1,.782.187,1.191,1.191,0,0,1,.478.532,1.93,1.93,0,0,1,.162.827v.457h-2.107l-.006.016a1.237,1.237,0,0,0,.113.479.79.79,0,0,0,.286.33.813.813,0,0,0,.452.121,1.6,1.6,0,0,0,.508-.076,1.561,1.561,0,0,0,.422-.216l.251.5a1.74,1.74,0,0,1-.517.289A2.09,2.09,0,0,1,126.093.067Zm-.762-2.123h1.33v-.083a1.055,1.055,0,0,0-.068-.4.557.557,0,0,0-.213-.265.653.653,0,0,0-.367-.1.556.556,0,0,0-.34.108.756.756,0,0,0-.233.294,1.435,1.435,0,0,0-.119.421ZM127.909,0V-.489l.476-.1V-2.847l-.5-.1v-.492h1.238l.041.432.006.07a1.139,1.139,0,0,1,.335-.419.763.763,0,0,1,.465-.146,1.207,1.207,0,0,1,.189.016,1.289,1.289,0,0,1,.163.035l-.092.74-.448-.025a.557.557,0,0,0-.36.086.78.78,0,0,0-.236.273v1.79l.476.1V0Zm2.729,0V-.489l.476-.1V-2.847l-.5-.1v-.492h1.3v2.85l.473.1V0Zm.444-4.212v-.74h.832v.74ZM132.72,0V-.489l.476-.1V-2.847l-.5-.1v-.492h1.238l.041.5a1.246,1.246,0,0,1,.427-.414,1.137,1.137,0,0,1,.579-.148,1.058,1.058,0,0,1,.825.325,1.481,1.481,0,0,1,.3,1.017V-.584l.476.1V0h-1.723V-.489l.448-.1V-2.149a.793.793,0,0,0-.156-.554.611.611,0,0,0-.463-.163.775.775,0,0,0-.4.1.8.8,0,0,0-.281.287V-.584l.435.1V0Zm5.687,1.387a2.636,2.636,0,0,1-.563-.068,2.25,2.25,0,0,1-.544-.189l.165-.584a2.414,2.414,0,0,0,.448.149,2.038,2.038,0,0,0,.463.057.711.711,0,0,0,.576-.217.929.929,0,0,0,.182-.614v-.27a1.068,1.068,0,0,1-.378.309,1.134,1.134,0,0,1-.5.106,1.238,1.238,0,0,1-.722-.209,1.319,1.319,0,0,1-.463-.587,2.227,2.227,0,0,1-.16-.876v-.067a2.621,2.621,0,0,1,.16-.958,1.437,1.437,0,0,1,.46-.638,1.147,1.147,0,0,1,.716-.229,1.108,1.108,0,0,1,.546.129,1.148,1.148,0,0,1,.394.367l.06-.432h.689V-.076a1.584,1.584,0,0,1-.181.776,1.238,1.238,0,0,1-.524.508A1.753,1.753,0,0,1,138.407,1.387Zm.063-1.952a.753.753,0,0,0,.4-.1.753.753,0,0,0,.268-.286v-1.53a.8.8,0,0,0-.27-.284.721.721,0,0,0-.39-.1.628.628,0,0,0-.433.151.887.887,0,0,0-.251.419,2.165,2.165,0,0,0-.081.624v.067a1.383,1.383,0,0,0,.182.759A.639.639,0,0,0,138.471-.565Zm1.355-2.266-.336-.6h.857v.492Zm.873,4.278-.149-.409a1.936,1.936,0,0,0,.394-.424,2.964,2.964,0,0,0,.325-.62,4.184,4.184,0,0,0,.221-.814,5.829,5.829,0,0,0,.079-1v-.067a5.519,5.519,0,0,0-.083-.989,4.383,4.383,0,0,0-.224-.812,3.077,3.077,0,0,0-.325-.627,1.981,1.981,0,0,0-.387-.428l.149-.406h.019a1.88,1.88,0,0,1,.578.43,3.355,3.355,0,0,1,.514.727,4.234,4.234,0,0,1,.368.965,4.628,4.628,0,0,1,.136,1.147v.054a4.66,4.66,0,0,1-.136,1.152,4.164,4.164,0,0,1-.368.963,3.345,3.345,0,0,1-.514.722,1.992,1.992,0,0,1-.578.435Z" transform="translate(0.186 65.355)" fill="#58595b"/>
      <path id="Line_2563" data-name="Line 2563" d="M135.4.385,0,.375v-.75l135.4.01Z" transform="translate(-0.152 41.49)" fill="#58595b"/>
      <path id="Path_50626" data-name="Path 50626" d="M4.289-28.321,1.8-35.038l-.648-.084v-.81H3.913v.81l-.69.11,1.584,4.637.141.5h.031l.146-.491,1.6-4.647-.789-.1v-.81H8.623v.81l-.659.084-2.4,6.718Zm4.924,0v-.805l.831-.157v-5.682l-.831-.157v-.81h2.975v.81l-.826.157v5.682l.826.157v.805Zm3.67,0v-.805l.836-.162v-5.667l-.836-.167v-.81h3.189a3.286,3.286,0,0,1,1.785.481,3.289,3.289,0,0,1,1.195,1.323,4.192,4.192,0,0,1,.429,1.929v.152a4.259,4.259,0,0,1-.418,1.916A3.243,3.243,0,0,1,17.884-28.8a3.237,3.237,0,0,1-1.775.484Zm2.154-1.014h1a1.838,1.838,0,0,0,1.142-.358,2.258,2.258,0,0,0,.724-.972,3.627,3.627,0,0,0,.251-1.383V-32.2a3.646,3.646,0,0,0-.251-1.4,2.207,2.207,0,0,0-.724-.959,1.866,1.866,0,0,0-1.142-.35h-1Zm6.927,1.014v-.805l.826-.157V-31l-2.29-4.02-.69-.1v-.81h2.865v.81l-.727.094,1.411,2.666.115.23.021-.01.11-.214,1.526-2.671-.863-.094v-.81h2.807v.81l-.716.1L24.1-31.1v1.819l.831.157v.805Zm4.313,0v-.805l.554-.078,2.52-6.728h1.281L33.12-29.2l.554.078v.805h-2.42v-.805l.544-.1-.4-1.2H28.561l-.413,1.2.549.1v.805Zm2.63-3.11h2.149l-.988-2.818-.068-.2h-.031l-.073.214Zm7.225,3.11-2.494-6.718-.648-.084v-.81h2.765v.81l-.69.11,1.584,4.637.141.5h.031l.146-.491,1.6-4.647-.789-.1v-.81h2.682v.81l-.659.084-2.4,6.718Zm4.924,0v-.805l.831-.157v-5.682l-.831-.157v-.81H44.03v.81l-.826.157v5.682l.826.157v.805Zm3.67,0v-.805l.831-.157v-5.682l-.831-.157v-.81h2.98v.81l-.831.157v2.373H50.2v-2.373l-.831-.157v-.81h2.975v.81l-.831.157v5.682l.831.157v.805H49.373v-.805l.831-.157v-2.284h-3.33v2.284l.831.157v.805Zm7.957,0v-.805l.554-.078,2.52-6.728h1.281L59.525-29.2l.554.078v.805h-2.42v-.805l.544-.1-.4-1.2H54.966l-.413,1.2.549.1v.805Zm2.63-3.11H57.46l-.988-2.818-.068-.2h-.031l-.073.214Zm5.39,3.11v-.805l.831-.157v-5.682l-.831-.157v-.81h3.518a3.656,3.656,0,0,1,1.464.264,2.035,2.035,0,0,1,.925.755,2.133,2.133,0,0,1,.319,1.187,2.123,2.123,0,0,1-.316,1.166,2.109,2.109,0,0,1-.883.771,3.124,3.124,0,0,1-1.33.285l-1.547.016v2.206l.831.157v.805Zm4.951,0-1.453-3.5,1.234-.2,1.234,2.765.6.125v.816Zm-2.8-4.193h1.312a1.675,1.675,0,0,0,1.1-.3,1.083,1.083,0,0,0,.355-.876,1.179,1.179,0,0,0-.345-.891,1.465,1.465,0,0,0-1.051-.332H62.85Zm11.464,4.3a3.5,3.5,0,0,1-1.511-.311,2.387,2.387,0,0,1-1.027-.9,2.606,2.606,0,0,1-.369-1.417v-4.13l-.831-.157v-.81h2.975v.81l-.831.157v4.13a1.806,1.806,0,0,0,.2.886,1.268,1.268,0,0,0,.559.536,1.882,1.882,0,0,0,.842.178,1.937,1.937,0,0,0,.86-.178,1.284,1.284,0,0,0,.565-.533,1.783,1.783,0,0,0,.2-.889v-4.13l-.831-.157v-.81h2.975v.81l-.826.157v4.13a2.627,2.627,0,0,1-.369,1.427,2.349,2.349,0,0,1-1.032.891A3.665,3.665,0,0,1,74.314-28.211Zm4.4-.11v-.805l.831-.157v-5.682l-.831-.157v-.81h2.164l3.492,5.557.031-.01v-4.579l-.962-.157v-.81h2.98v.81l-.831.157v6.644H84.335L80.76-33.857l-.031.005v4.569l.962.157v.805Zm8.354,0v-.805l.831-.157v-5.682l-.831-.157v-.81h2.975v.81l-.826.157v5.682l.826.157v.805Zm6.712,0-2.494-6.718-.648-.084v-.81H93.4v.81l-.69.11,1.584,4.637.141.5h.031l.146-.491,1.6-4.647-.789-.1v-.81H98.11v.81l-.659.084-2.4,6.718Zm4.93,0-.005-.805.831-.157v-5.682l-.831-.157.005-.81H104.5l-.005,1.955-1.019.005-.089-.946h-2.535v2.154h2.671v1.019h-2.671v2.42h2.677l.089-.967h1.014v1.971Zm6.827,0v-.805l.831-.157v-5.682l-.831-.157v-.81h3.518a3.657,3.657,0,0,1,1.464.264,2.036,2.036,0,0,1,.925.755,2.133,2.133,0,0,1,.319,1.187,2.123,2.123,0,0,1-.316,1.166,2.109,2.109,0,0,1-.883.771,3.124,3.124,0,0,1-1.33.285l-1.547.016v2.206l.831.157v.805Zm4.951,0-1.453-3.5,1.234-.2,1.234,2.765.6.125v.816Zm-2.8-4.193h1.312a1.675,1.675,0,0,0,1.1-.3,1.083,1.083,0,0,0,.355-.876,1.179,1.179,0,0,0-.345-.891,1.465,1.465,0,0,0-1.051-.332h-1.37Zm8.113,4.3a5.2,5.2,0,0,1-1.448-.193,4.314,4.314,0,0,1-1.3-.643V-30.8h1.019l.167,1.134a2.273,2.273,0,0,0,.682.319,3.084,3.084,0,0,0,.881.12,2.016,2.016,0,0,0,.782-.133,1.082,1.082,0,0,0,.484-.374.973.973,0,0,0,.167-.57,1,1,0,0,0-.146-.538,1.27,1.27,0,0,0-.486-.421,4.31,4.31,0,0,0-.92-.342,6.52,6.52,0,0,1-1.425-.544,2.367,2.367,0,0,1-.863-.753,1.834,1.834,0,0,1-.29-1.035,1.83,1.83,0,0,1,.332-1.082,2.249,2.249,0,0,1,.923-.742,3.286,3.286,0,0,1,1.364-.277,4.323,4.323,0,0,1,1.5.22,3.589,3.589,0,0,1,1.1.6v1.636h-1l-.188-1.066a2,2,0,0,0-.557-.259,2.715,2.715,0,0,0-.808-.107,1.757,1.757,0,0,0-.7.131,1.118,1.118,0,0,0-.476.369.94.94,0,0,0-.173.567.847.847,0,0,0,.152.5,1.321,1.321,0,0,0,.507.389,6.177,6.177,0,0,0,.962.353,4.471,4.471,0,0,1,1.877.91,1.912,1.912,0,0,1,.638,1.479,1.836,1.836,0,0,1-.342,1.106,2.216,2.216,0,0,1-.962.734A3.711,3.711,0,0,1,115.8-28.211Zm3.476-.11v-.805l.831-.157v-5.682l-.831-.157v-.81h2.975v.81l-.826.157v5.682l.826.157v.805Zm5.479,0v-.805l.831-.157v-5.641H124.05l-.115.972h-.988v-1.981h6.592v1.981h-.993l-.115-.972H126.9v5.641l.831.157v.805Zm7.632,0v-.805l.826-.157V-31l-2.29-4.02-.69-.1v-.81h2.865v.81l-.727.094,1.411,2.666.115.23.021-.01.11-.214,1.526-2.671-.863-.094v-.81H137.5v.81l-.716.1L134.521-31.1v1.819l.831.157v.805Z" transform="translate(-0.8 63.983)" fill="#b7202e"/>
      <path id="Path_50625" data-name="Path 50625" d="M14.786-78a14.521,14.521,0,0,1-4.047-.541,12.057,12.057,0,0,1-3.638-1.8V-85.23H9.95l.468,3.171a6.351,6.351,0,0,0,1.907.891,8.621,8.621,0,0,0,2.462.336,5.635,5.635,0,0,0,2.184-.373,3.024,3.024,0,0,0,1.351-1.045,2.718,2.718,0,0,0,.468-1.593,2.789,2.789,0,0,0-.409-1.5,3.551,3.551,0,0,0-1.359-1.176,12.047,12.047,0,0,0-2.572-.957A18.223,18.223,0,0,1,10.469-89a6.616,6.616,0,0,1-2.411-2.1A5.127,5.127,0,0,1,7.247-94a5.115,5.115,0,0,1,.928-3.024A6.287,6.287,0,0,1,10.754-99.1a9.185,9.185,0,0,1,3.813-.774,12.082,12.082,0,0,1,4.186.614,10.03,10.03,0,0,1,3.076,1.68V-93H19.038l-.526-2.981a5.585,5.585,0,0,0-1.556-.723,7.589,7.589,0,0,0-2.257-.3,4.909,4.909,0,0,0-1.958.365,3.126,3.126,0,0,0-1.33,1.03,2.627,2.627,0,0,0-.482,1.585,2.366,2.366,0,0,0,.424,1.4,3.692,3.692,0,0,0,1.417,1.089,17.268,17.268,0,0,0,2.688.986A12.5,12.5,0,0,1,20.7-88.006a5.343,5.343,0,0,1,1.783,4.135,5.131,5.131,0,0,1-.957,3.09,6.193,6.193,0,0,1-2.688,2.053A10.373,10.373,0,0,1,14.786-78ZM33.6-78a8.958,8.958,0,0,1-3.828-.8,8.465,8.465,0,0,1-2.929-2.243,10.281,10.281,0,0,1-1.877-3.419,13.606,13.606,0,0,1-.657-4.325V-89.1a13.557,13.557,0,0,1,.657-4.31,10.365,10.365,0,0,1,1.877-3.426,8.427,8.427,0,0,1,2.929-2.25,8.923,8.923,0,0,1,3.813-.8,9.2,9.2,0,0,1,3.9.8,8.321,8.321,0,0,1,2.937,2.25,10.236,10.236,0,0,1,1.856,3.426,13.841,13.841,0,0,1,.643,4.31v.321a13.89,13.89,0,0,1-.643,4.325,10.153,10.153,0,0,1-1.856,3.419,8.358,8.358,0,0,1-2.937,2.243A9.164,9.164,0,0,1,33.6-78Zm0-2.922a4.972,4.972,0,0,0,3.178-.986,5.8,5.8,0,0,0,1.856-2.754,12.7,12.7,0,0,0,.606-4.12v-.351a12.332,12.332,0,0,0-.614-4.076,5.892,5.892,0,0,0-1.863-2.747,4.947,4.947,0,0,0-3.178-.994,4.779,4.779,0,0,0-3.083.994,6.013,6.013,0,0,0-1.87,2.747A12.069,12.069,0,0,0,28-89.131v.351a12.311,12.311,0,0,0,.628,4.113,5.933,5.933,0,0,0,1.877,2.761A4.832,4.832,0,0,0,33.6-80.92ZM44.714-78.3v-2.25l2.309-.438V-96.875l-2.309-.438v-2.265H52.3l6.239,15.385h.088l6.049-15.385h7.671v2.265l-2.323.438v15.882l2.323.438v2.25H64.029v-2.25l2.44-.438v-4.953l.029-9.307-.073-.015L59.836-78.787H57.162L50.383-95.18l-.073.015.19,8.971v5.2l2.528.438v2.25Zm28.384,0v-2.25l1.549-.219,7.042-18.8h3.58l6.955,18.8,1.549.219v2.25H87.007v-2.25l1.52-.278L87.4-84.178H79.483l-1.154,3.346,1.534.278v2.25ZM80.447-87h6.005l-2.761-7.875-.19-.57h-.088l-.2.6ZM95.3-78.3v-2.25l2.323-.438V-96.875L95.3-97.314v-2.265h8.314v2.265l-2.309.438v15.882l2.309.438v2.25Zm15.629,0v-2.25l2.309-.438v-4.792l-6.4-11.236-1.929-.292v-2.265h8.007v2.265l-2.031.263,3.945,7.452.321.643.058-.029.307-.6,4.266-7.466-2.411-.263v-2.265h7.846v2.265l-2,.292-6.312,10.944v5.085l2.323.438v2.25Zm11.844,0v-2.25l1.549-.219,7.042-18.8h3.58l6.955,18.8,1.549.219v2.25h-6.765v-2.25l1.52-.278-1.125-3.346h-7.919l-1.154,3.346,1.534.278v2.25ZM130.124-87h6.005l-2.761-7.875-.19-.57h-.088l-.2.6Z" transform="translate(-6.753 99.885)" fill="#b7202e"/>
    </g>
  </g>
</svg>
