<svg xmlns="http://www.w3.org/2000/svg" width="92.507" height="69" viewBox="0 0 92.507 69">
    <path data-name="Rectangle 3648" transform="translate(.276 52.735)" style="fill:#d3d5d6" d="M0 0h91.955v16.265H0z"/>
    <path data-name="Path 10267" d="M390.618 511.579h3.3v9.411h1.317v-9.411h3.3V510.3h-7.91zm-11.084 1.846c-.054-1.176-.392-3.409-3.8-3.409a3.118 3.118 0 0 0-3.352 3.3 2.477 2.477 0 0 0 2.076 2.516l1.995.506c1.6.417 2.076.775 2.076 1.891 0 1.533-1.6 1.8-2.55 1.8a2.4 2.4 0 0 1-2.687-2.5h-1.235a3.461 3.461 0 0 0 .99 2.71 3.669 3.669 0 0 0 2.945 1.03c1.668 0 3.811-.7 3.811-3.233a2.707 2.707 0 0 0-2.211-2.858l-2.781-.7a1.306 1.306 0 0 1-1.153-1.355c0-1.623 1.4-1.875 2.225-1.875a2.185 2.185 0 0 1 2.414 2.173zm-21.15-3.127v6.759c0 2.323-1.356 2.934-2.563 2.934-1.181 0-2.469-.641-2.469-2.963V510.3h-1.316v7.132a3.544 3.544 0 0 0 3.745 3.843 3.709 3.709 0 0 0 3.92-4.038V510.3zm-21.691 1.237h3.282c.652 0 1.75.133 1.75 1.785 0 1.579-1.017 1.847-1.98 1.847h-3.052zm0 4.868h3.188c1.573 0 1.736 1.028 1.736 1.9a14.387 14.387 0 0 0 .231 2.68h1.615v-.237c-.407-.254-.475-.476-.489-1.073l-.081-1.934c-.055-1.489-.611-1.757-1.167-2.011a2.663 2.663 0 0 0 1.357-2.561c0-2.263-1.6-2.873-3.2-2.873h-4.5v10.69h1.316zm-21.3-4.824h3.3v9.411H320v-9.411h3.3V510.3h-7.908z" transform="translate(-310.602 -454.776)" style="fill-rule:evenodd;fill:#1a1818"/>
    <path data-name="Path 10268" d="M335.351 497.616c.006.161.011.321.012.482s0 .322 0 .483c0 .019-.015.035-.016.054-.008.107 0 .215-.015.322 0 .013-.012.023-.016.036-.012.052-.022.106-.032.161s-.007.083-.015.125-.022.1-.032.144-.008.071-.016.107c0 .012-.013.023-.016.036-.013.064-.017.131-.03.2s-.03.121-.047.18c0 .012-.012.023-.016.035-.013.048-.018.1-.032.144-.007.025-.024.047-.032.072s-.007.06-.016.089c0 .008-.013.011-.016.019a.193.193 0 0 0-.016.054 1.018 1.018 0 0 1-.016.107c0 .016-.024.021-.033.036s-.019.048-.032.071c0 .007-.012.011-.016.019-.018.04-.029.085-.047.125 0 .008-.013.011-.016.017a.473.473 0 0 0-.016.055c-.01.024-.024.046-.033.071s-.007.048-.016.071c-.018.05-.044.1-.063.144 0 .012 0 .025-.007.036a.579.579 0 0 1-.04.09c-.013.02-.034.034-.048.054s-.01.025-.016.036-.012.011-.016.017-.009.026-.016.036-.026.021-.033.036-.018.06-.032.09a.171.171 0 0 1-.024.035.363.363 0 0 1-.023.036c-.011.013-.026.021-.033.036s-.008.036-.016.054-.019.048-.032.073c0 .007-.012.009-.016.017-.018.035-.03.072-.049.107 0 .008-.011.011-.016.019s-.009.026-.016.035-.034.035-.049.055-.009.024-.016.035a.1.1 0 0 1-.024.028c-.009.007-.022.009-.032.017a.1.1 0 0 0-.024.027c-.009.016-.006.039-.016.054a.331.331 0 0 1-.056.063l-.016.009c-.01.011-.016.026-.024.036s-.029.023-.04.036a.205.205 0 0 0-.04.054.378.378 0 0 0-.016.054l-.009.009a.215.215 0 0 0-.04.027.5.5 0 0 0-.024.044l-.016.009a.376.376 0 0 0-.024.036.433.433 0 0 0-.032.036c-.007.011-.008.026-.016.035s-.034.035-.049.055-.013.032-.024.044-.029.015-.04.027-.009.026-.016.036a.232.232 0 0 1-.04.046c-.01.008-.023.009-.033.017s-.029.039-.047.054-.046.02-.064.036c-.041.039-.073.087-.113.126-.009.009-.023.011-.032.019a.34.34 0 0 0-.041.044l-.007.019c-.01.011-.023.016-.033.027-.033.035-.059.076-.1.109a.193.193 0 0 1-.049.017l-.007.009c-.006.011-.01.026-.016.036a.16.16 0 0 1-.024.027c-.01.008-.023.009-.033.017a.247.247 0 0 0-.024.027.529.529 0 0 1-.023.054.116.116 0 0 1-.033.028c-.016.011-.032.017-.047.027a.441.441 0 0 0-.049.027c-.007.005-.01.013-.016.019s-.023.011-.033.017-.01.015-.016.019-.035.007-.049.017c-.03.026-.05.064-.08.09-.013.012-.034.008-.049.019s-.028.042-.049.054-.066.021-.1.038c-.007 0-.011.012-.017.017s-.023.009-.032.017-.041.05-.064.072l-.016.009c-.012.011-.021.027-.033.036s-.033.016-.049.027-.008.013-.016.017a.874.874 0 0 0-.08.038c-.019.013-.029.04-.048.054-.045.029-.1.044-.145.072-.013.008-.021.026-.033.036a.105.105 0 0 1-.032.017c-.021.008-.044.009-.064.019s-.01.013-.017.019-.044.02-.064.036-.029.039-.047.054-.034.008-.049.017-.018.03-.033.036c-.051.03-.108.047-.16.074-.007 0-.01.013-.017.017-.03.02-.064.034-.1.055-.007 0-.01.013-.016.017a.854.854 0 0 0-.081.028c-.009 0-.009.019-.016.027a.2.2 0 0 1-.033.017c-.006.005-.008.015-.016.019-.026.013-.055.021-.08.036-.007 0-.01.015-.016.017s-.044.009-.066.019a.14.14 0 0 0-.047.027c-.01.009 0 .032-.016.036-.03.012-.067 0-.1.009-.046.017-.085.052-.129.072s-.077.021-.113.038c-.061.026-.118.063-.178.09-.019.009-.044.009-.064.019a.64.64 0 0 0-.1.055c-.007 0-.008.015-.016.017-.027.009-.056.008-.081.019a1.6 1.6 0 0 0-.177.091c-.006 0-.008.015-.016.017-.032.011-.066.009-.1.019a.107.107 0 0 0-.032.017c-.007.005-.01.016-.017.019-.068.027-.141.044-.209.072-.05.022-.095.056-.146.074s-.119.021-.177.036c-.012 0-.021.015-.033.019-.036.013-.075.023-.113.036-.011 0-.019.015-.032.019-.059.015-.119.021-.177.038-.012 0-.022.013-.033.017-.027.008-.055.009-.081.019-.006 0-.01.013-.016.017a.1.1 0 0 1-.032.019c-.059.015-.119.023-.177.038-.017 0-.033.013-.049.017-.038.009-.076.008-.114.019-.006 0-.009.017-.016.019-.075.013-.194.017-.29.038-.024.005-.041.029-.064.036-.064.019-.13.021-.194.038-.044.011-.085.036-.129.046-.011 0-.022-.009-.033-.008a.7.7 0 0 0-.129.019 1.992 1.992 0 0 0-.194.055c-.011 0-.021.016-.032.019a7.83 7.83 0 0 1-.356.039c-.006 0-.011-.011-.017-.009s-.019.016-.032.017-.016-.009-.024-.008-.016.013-.024.017a.225.225 0 0 1-.073.028c-.015 0-.026-.016-.04-.017s-.022.008-.033.009-.016-.011-.024-.009a1 1 0 0 0-.137.028c-.017 0-.032.016-.049.019-.161.017-.375.027-.484.039-.012 0-.021.015-.032.019a.646.646 0 0 1-.13.028c-.017 0-.032-.02-.049-.017a.151.151 0 0 0-.064.027c-.007 0-.009.017-.016.017-.049 0-.626.028-.906.035-.14 0-.28 0-.42-.005-.011 0-.022-.009-.033-.008s-.032.017-.049.017-.021-.015-.033-.017-.01.008-.016.009a.2.2 0 0 1-.056.009 1.467 1.467 0 0 1-.2-.026c-.018 0-.032-.021-.049-.025s-.011.008-.016.008a2.498 2.498 0 0 1-.227.011 1.413 1.413 0 0 1-.226-.007c-.024 0-.041-.032-.066-.035-.1-.013-.363-.021-.469-.032-.012 0-.021-.015-.033-.017a.751.751 0 0 0-.121-.026c-.024 0-.049.013-.073.009a2.171 2.171 0 0 1-.243-.051c-.012 0-.021-.016-.033-.017-.042-.009-.086-.008-.129-.017-.012 0-.022-.015-.033-.017-.032-.009-.066-.009-.1-.017-.012 0-.021-.015-.033-.017-.1-.02-.205-.03-.307-.051-.012 0-.021-.015-.033-.017-.038-.009-.076-.008-.113-.017-.012 0-.021-.013-.033-.017-.064-.019-.131-.031-.194-.051-.007 0-.008-.016-.017-.019-.026-.009-.053-.008-.08-.017s-.021-.013-.033-.017c-.049-.013-.1-.02-.146-.034-.012 0-.021-.013-.033-.017a.293.293 0 0 0-.056-.017h-.024c-.045-.02-.085-.054-.13-.071s-.065-.007-.1-.016c-.007 0-.01-.015-.017-.019-.036-.015-.077-.021-.113-.035-.012 0-.021-.013-.033-.017s-.055-.008-.081-.017a.1.1 0 0 1-.033-.017c-.006 0-.008-.013-.016-.017a1.237 1.237 0 0 0-.13-.07c-.042-.02-.089-.031-.13-.052-.013-.008-.018-.029-.033-.036-.03-.012-.066 0-.1-.017-.013-.005-.019-.024-.032-.035s-.023-.009-.033-.017-.021-.025-.033-.035a.082.082 0 0 0-.033-.019c-.043-.013-.087-.019-.13-.034-.006 0-.01-.013-.016-.019s-.022-.009-.033-.017-.008-.013-.016-.017-.033-.009-.049-.017-.01-.013-.016-.017-.034-.009-.05-.017-.008-.015-.016-.019c-.064-.036-.132-.066-.194-.1-.013-.008-.019-.028-.033-.036s-.045-.005-.066-.016-.019-.027-.032-.036-.034-.015-.05-.027-.018-.027-.032-.035-.045-.015-.066-.027-.01-.012-.016-.017a.26.26 0 0 1-.033-.017c-.012-.009-.019-.025-.033-.035-.036-.03-.076-.051-.113-.081-.013-.009-.019-.027-.033-.035s-.057-.017-.081-.035-.018-.034-.033-.044a.558.558 0 0 0-.081-.035c-.006 0-.01-.013-.016-.017s-.024-.009-.033-.019-.029-.046-.049-.062-.046-.012-.066-.025-.039-.054-.064-.071-.035 0-.049-.009 0-.019 0-.027a.059.059 0 0 0-.016-.027c-.015-.011-.034-.015-.048-.025s-.02-.027-.033-.036-.034-.007-.049-.017a.23.23 0 0 1-.041-.044s0-.015-.007-.017c-.021-.012-.045-.015-.066-.027a.077.077 0 0 1-.024-.025c-.01-.017-.012-.04-.024-.054s-.051-.033-.073-.054c0 0 0-.013-.008-.017s-.034-.016-.049-.027a.158.158 0 0 1-.033-.026c-.01-.011-.016-.025-.024-.036s-.029-.021-.041-.035-.03-.044-.049-.063-.023-.008-.033-.017a.906.906 0 0 1-.106-.115.392.392 0 0 1-.024-.052c-.008-.015-.026-.021-.033-.036a.682.682 0 0 1-.024-.071c0-.007-.013-.011-.017-.017-.013-.028-.019-.06-.033-.09 0-.007-.013-.009-.017-.017-.012-.028-.019-.06-.033-.089 0-.008-.013-.011-.016-.017-.008-.023-.01-.048-.017-.071s-.024-.059-.033-.09a.7.7 0 0 1-.025-.134c0-.019.019-.035.016-.054a.823.823 0 0 0-.041-.1.275.275 0 0 1-.008-.062.623.623 0 0 0 .007-.08c0-.023-.024-.04-.024-.063s.022-.064.024-.1c.01-.137 0-.275.013-.41a.7.7 0 0 1 .016-.072 1.426 1.426 0 0 1 .015-.161 1.606 1.606 0 0 1 .063-.2c0-.008.015-.009.016-.017.008-.035.008-.072.016-.107a.835.835 0 0 1 .032-.107c0-.008.012-.011.016-.019a.125.125 0 0 0 .016-.035c.012-.042.018-.086.032-.126 0-.008.012-.011.017-.017.012-.023.018-.05.032-.072s.024-.021.032-.036c.019-.039.03-.085.047-.125 0-.008.012-.011.017-.019a.741.741 0 0 0 .032-.071c.006-.017.008-.036.016-.054a.416.416 0 0 1 .032-.072c.008-.013.024-.021.032-.035.019-.035.029-.074.049-.109.007-.013.023-.021.032-.035s.01-.025.016-.036.012-.011.017-.019.019-.048.032-.071c0-.007.012-.011.016-.017s.008-.025.016-.036.023-.023.033-.036l.007-.017c.01-.013.024-.023.033-.036s.013-.038.023-.054.024-.021.033-.036.006-.038.016-.054a.172.172 0 0 1 .04-.046c.012-.011.03-.013.04-.027s.007-.038.016-.054.023-.023.032-.036.008-.026.016-.036.023-.023.033-.035l.007-.019c.01-.011.023-.016.033-.027a.477.477 0 0 0 .072-.08c.011-.016.006-.039.016-.055.028-.039.067-.07.1-.107.01-.013.012-.034.023-.044s.035-.015.049-.028.019-.032.033-.044.033-.016.047-.028.01-.013.017-.017.033-.016.047-.027a.088.088 0 0 0 .033-.028c.01-.015 0-.039.016-.054s.022 0 .033 0a.121.121 0 0 0 .047-.017c.012-.009.016-.026.024-.036a.663.663 0 0 1 .056-.063c.01-.008.023-.009.033-.019s.03-.038.049-.054a.249.249 0 0 1 .032-.017c.006-.005.01-.015.016-.019.027-.016.056-.027.081-.046s.04-.044.064-.063.033-.015.047-.027.009-.02.017-.027.044-.021.064-.036.019-.025.032-.036.023-.009.033-.017.038-.055.063-.072.045-.009.066-.019.009-.013.016-.017.033-.011.049-.019.009-.015.016-.017c.034-.019.072-.027.1-.046a.38.38 0 0 0 .057-.046c.011-.011.018-.027.032-.036s.055-.023.08-.036c.044-.023.085-.052.13-.073.026-.011.053-.009.08-.019a1.206 1.206 0 0 0 .129-.055c.023-.009.042-.026.064-.036a.3.3 0 0 1 .049-.017c.038-.009.076-.008.113-.019a.311.311 0 0 0 .064-.036c.007-.005.01-.016.017-.019.058-.016.119-.021.177-.038.012 0 .021-.015.032-.017a2.482 2.482 0 0 1 .259-.056 2.546 2.546 0 0 1 .267-.011 2.224 2.224 0 0 1 .267.007 1.13 1.13 0 0 1 .194.052c.011 0 .021.013.033.017.032.008.066.007.1.017.007 0 .009.013.016.017s.044.009.064.017.022.013.033.017c.038.013.076.02.114.035.006 0 .01.012.016.017s.023.009.033.017.03.039.049.054.044.021.064.035.011.013.017.017.023.009.033.017.019.027.032.036.035.007.049.017a.483.483 0 0 1 .074.079l.008.017a.315.315 0 0 0 .032.027c.053.055.106.11.155.169.009.009.009.024.016.035s.024.023.033.036.01.024.017.035.012.011.016.017a.164.164 0 0 1 .017.036c.007.023.01.048.016.071l.008.009c.011.009.025.013.033.027a.415.415 0 0 1 .041.089c.008.028.007.06.017.089 0 .008.011.011.016.019a.184.184 0 0 1 .017.035c.006.024.008.048.016.071s.026.047.033.071.009.06.017.09a.62.62 0 0 1 .033.071c.012.052.01.107.017.161s.021.076.025.115c0 .015-.007.03-.007.044s.01.042.008.063-.015.066-.016.1.009.036.009.054a.8.8 0 0 1-.016.107c0 .019-.013.035-.016.054s.01.017.008.027a.2.2 0 0 1-.024.063c0 .008-.013.011-.016.017-.008.024-.008.05-.016.072a.371.371 0 0 1-.032.071c0 .008-.012.011-.016.019-.023.052-.04.109-.064.161a.078.078 0 0 1-.023.027c-.016.011-.034.016-.049.027s0 .013-.008.019c-.019.025-.046.044-.064.071s-.021.064-.039.09-.034.016-.049.028a.148.148 0 0 0-.04.044c-.017.028-.024.062-.04.09s-.024.021-.031.036-.023.062-.04.09-.034.034-.049.054a.119.119 0 0 0-.016.036c-.007.023-.008.048-.016.071s-.023.059-.032.09a.268.268 0 0 0-.007.062.271.271 0 0 0 .009.063c0 .007.008.011.008.017s-.007.012-.008.019a.447.447 0 0 0-.007.071.233.233 0 0 0 .008.071.754.754 0 0 0 .033.071.248.248 0 0 0 .016.054c.018.027.047.044.066.071a.335.335 0 0 1 .017.054.109.109 0 0 0 .024.044c.018.016.045.02.064.035s.021.027.033.036.056.025.081.043c.009.007.007.023.017.027.052.023.108.032.161.052.007 0 .01.013.016.017a.289.289 0 0 0 .065.036c.043.011.086.008.13.016a1.064 1.064 0 0 1 .129.035c.012 0 .021.015.033.017.038.009.077.007.113.017.007 0 .01.015.017.017.036.009.075.009.113.017.022 0 .042.013.066.016.069.009.14.007.21.016.012 0 .021.016.033.017a.989.989 0 0 0 .177.026c.03 0 .058-.019.089-.017.047 0 .091.021.138.025.024 0 .047-.009.073-.011a.317.317 0 0 1 .072.009.809.809 0 0 0 .106.025c.022 0 .043-.016.064-.019a.089.089 0 0 1 .041.009.632.632 0 0 0 .064.025c.006 0 .011-.007.016-.009a.439.439 0 0 1 .1-.027c.022 0 .042.017.066.017s.02-.019.032-.019.021.016.033.017.01-.008.016-.008c.038-.008.075-.011.113-.019.006 0 .011-.011.017-.009s.019.017.032.017.043-.017.066-.019a.412.412 0 0 1 .08.008c.006 0 .011.009.016.009s.011-.008.017-.009c.053-.013.107-.03.161-.038.091-.012.183-.008.274-.02.017 0 .032-.015.049-.017.064-.011.13-.009.194-.02.04-.005.08-.023.12-.027.015 0 .027.011.041.008.049-.008.1-.028.144-.038.006 0 .011.009.017.009s.01-.008.016-.009c.038-.008.075-.009.113-.019.017 0 .032-.015.049-.019a.653.653 0 0 1 .113-.017c.009 0 .016.009.024.008a.8.8 0 0 0 .137-.028c.044-.012.085-.038.129-.046.012 0 .021.02.033.017s.019-.021.033-.027a.21.21 0 0 1 .064-.019c.075-.009.152-.007.226-.02a.746.746 0 0 0 .1-.036h.017a.141.141 0 0 1 .032-.009c.012 0 .022.009.033.009l.008-.009a.064.064 0 0 1 .024-.017 1.206 1.206 0 0 1 .153-.047c.069-.016.141-.021.21-.038.012 0 .021-.015.032-.017.032-.009.066-.009.1-.019.012 0 .021-.015.033-.019.032-.009.064-.011.1-.019a.664.664 0 0 0 .113-.036c.007 0 .01-.015.017-.017a.742.742 0 0 1 .129-.055c.053-.017.108-.023.161-.038a.216.216 0 0 0 .049-.019c.022-.009.041-.027.064-.035.063-.023.13-.035.193-.056.028-.009.053-.026.081-.036.047-.019.1-.035.144-.055a.132.132 0 0 0 .033-.017c.006-.005.009-.016.016-.019.027-.009.055-.008.081-.017.006 0 .008-.016.016-.019s.044-.009.064-.019.009-.015.016-.017c.052-.021.108-.035.161-.055a.137.137 0 0 0 .033-.019c.006 0 .008-.015.016-.017.032-.015.066-.021.1-.036s.064-.039.1-.055.066-.021.1-.036a.869.869 0 0 0 .1-.055c.007 0 .01-.013.017-.017.025-.015.053-.023.08-.036s.043-.025.064-.036.033-.011.049-.019.009-.015.016-.017.044-.009.064-.019.01-.013.016-.017.023-.011.033-.019.03-.038.049-.054a.128.128 0 0 1 .032-.019c.021-.008.044-.008.064-.017s.01-.015.017-.019.034-.008.047-.019.021-.025.033-.035.022-.011.032-.019.01-.013.017-.017.033-.009.047-.019.02-.027.033-.036c.041-.027.089-.043.129-.072.019-.013.03-.038.049-.054s.022-.011.032-.019.01-.012.016-.017.023-.009.033-.017.019-.027.032-.036.023-.009.033-.019.039-.052.064-.072.089-.042.129-.072.049-.066.08-.09c.013-.009.035 0 .049-.009s0-.017 0-.027a.067.067 0 0 1 .016-.027l.016-.008c.044-.047.085-.1.129-.145l.016-.009c.01-.011.016-.024.024-.035a.339.339 0 0 1 .04-.046c.01-.008.023-.011.033-.019s.019-.025.032-.035.023-.011.032-.019a.483.483 0 0 0 .081-.08c.015-.021.018-.05.032-.072s.019-.008.024-.017.007-.038.016-.054a.417.417 0 0 1 .04-.055c.008-.011.015-.024.024-.035s.045-.047.063-.072a.186.186 0 0 0 .016-.036c0-.007.012-.011.017-.017a.233.233 0 0 1 .016-.036c.029-.039.065-.07.1-.107.008-.011.008-.026.016-.036s.023-.023.033-.036l.007-.017c.012-.013.03-.021.04-.036s.007-.038.016-.054.036-.034.049-.055.03-.072.047-.107c0-.007.012-.011.017-.017s.008-.026.016-.036.023-.023.032-.036a.1.1 0 0 0 .016-.035c.007-.036.008-.072.016-.109a.293.293 0 0 1 .016-.054c.01-.024.023-.046.032-.071s.007-.048.016-.071.015-.011.016-.019c.01-.059.007-.119.016-.178 0-.013.013-.023.016-.036a1.392 1.392 0 0 0 .022-.223 1.824 1.824 0 0 0-.026-.259c0-.013-.015-.023-.017-.036-.01-.071-.01-.143-.017-.215a.538.538 0 0 0-.017-.089c0-.008-.013-.011-.016-.017-.025-.059-.043-.121-.067-.178a1.157 1.157 0 0 0-.049-.107c0-.007-.013-.009-.017-.017-.013-.04-.019-.085-.033-.125a.286.286 0 0 0-.033-.071c-.013-.02-.039-.031-.049-.054a.544.544 0 0 1-.017-.089c0-.008-.012-.011-.017-.017a.161.161 0 0 0-.016-.036c-.017-.02-.041-.032-.057-.054s-.013-.036-.024-.052-.036-.034-.05-.054-.018-.05-.032-.071-.024-.023-.034-.035-.008-.025-.016-.036-.012-.011-.016-.017a.543.543 0 0 0-.025-.054c-.011-.015-.029-.021-.04-.035s-.015-.032-.024-.046-.024-.015-.033-.026a.213.213 0 0 1-.025-.054c0-.017 0-.039-.009-.054s-.016 0-.023 0a.051.051 0 0 1-.026-.017c-.013-.019-.017-.046-.032-.062s-.035-.015-.05-.027a.121.121 0 0 1-.024-.036c-.007-.016-.006-.038-.017-.052a.606.606 0 0 0-.089-.107c-.022-.021-.053-.03-.074-.052s-.018-.051-.033-.071a.549.549 0 0 0-.073-.081l-.016-.008c-.01-.011-.016-.026-.026-.036-.074-.083-.154-.162-.227-.248-.011-.012-.013-.032-.026-.044s-.022-.009-.032-.017a.171.171 0 0 1-.025-.027.306.306 0 0 0-.024-.044c-.022-.024-.051-.038-.073-.062s-.009-.026-.017-.036-.028-.021-.04-.035a.365.365 0 0 1-.024-.036.576.576 0 0 0-.041-.044l-.016-.008c-.01-.011-.016-.025-.024-.036-.032-.036-.068-.068-.1-.106-.007-.011-.01-.026-.016-.036a.082.082 0 0 0-.025-.026c-.015-.009-.033-.009-.049-.019s-.01-.012-.016-.017-.023-.009-.033-.017a.217.217 0 0 1-.04-.044c-.007-.011-.01-.024-.017-.035a.1.1 0 0 0-.024-.027c-.01-.008-.023-.009-.033-.017s-.021-.026-.033-.036l-.016-.008c-.01-.011-.016-.025-.024-.036a.49.49 0 0 0-.074-.079c-.013-.011-.033-.008-.047-.017a.1.1 0 0 1-.025-.027.321.321 0 0 0-.024-.044c-.009-.009-.023-.009-.033-.017a.878.878 0 0 1-.073-.08c-.01-.011-.015-.026-.024-.035s-.023-.009-.033-.017-.041-.044-.066-.063-.034-.013-.049-.026-.007-.027-.016-.036a.315.315 0 0 0-.049-.044c-.016-.011-.035-.013-.05-.025s-.03-.044-.049-.063-.022-.009-.033-.017-.01-.013-.016-.017a.513.513 0 0 1-.073-.044c-.012-.011-.013-.032-.024-.044s-.023-.009-.033-.017-.03-.038-.049-.054-.063-.036-.09-.062-.012-.034-.024-.044a.39.39 0 0 0-.066-.035c-.006-.005-.01-.013-.016-.017s-.023-.009-.033-.019c-.029-.027-.051-.062-.081-.089s-.052-.023-.073-.043-.012-.04-.024-.054-.034-.016-.05-.027a.119.119 0 0 1-.024-.027c-.01-.013-.012-.034-.024-.044s-.034-.007-.048-.017-.03-.038-.049-.054-.023-.009-.033-.017-.01-.012-.016-.017a.26.26 0 0 1-.033-.017c-.012-.011-.021-.026-.033-.035s-.033-.016-.049-.027-.01-.013-.016-.017a1.027 1.027 0 0 1-.09-.054c-.01-.008-.008-.025-.016-.035a.168.168 0 0 0-.041-.044c-.015-.011-.035-.007-.049-.017s-.041-.051-.065-.071-.045-.02-.064-.035a.3.3 0 0 1-.033-.036l-.017-.008c-.011-.011-.018-.028-.032-.036a.675.675 0 0 0-.066-.026l-.008-.009a.142.142 0 0 0-.024-.036c-.019-.015-.045-.02-.064-.035s-.021-.026-.033-.035-.034-.015-.049-.027-.03-.039-.049-.052-.035-.007-.049-.017-.041-.052-.066-.071-.033-.011-.048-.017l-.009-.009c-.006-.011-.01-.026-.016-.035a.084.084 0 0 0-.025-.027c-.03-.02-.066-.034-.1-.054-.006 0-.01-.012-.016-.017s-.023-.009-.033-.017-.021-.025-.033-.035-.023-.009-.033-.017c-.034-.034-.061-.076-.1-.107-.013-.011-.033-.009-.049-.017a.49.49 0 0 1-.081-.044c-.013-.008-.019-.027-.033-.035s-.044-.015-.064-.027-.01-.013-.017-.017-.045-.02-.064-.035-.019-.027-.033-.035-.033-.009-.048-.017a.164.164 0 0 1-.033-.027c-.012-.013-.017-.035-.033-.044s-.044-.008-.064-.017-.01-.013-.016-.019a.27.27 0 0 1-.033-.017c-.007 0-.01-.012-.017-.017s-.022-.009-.032-.017-.019-.028-.033-.035a.369.369 0 0 0-.066-.017l-.007-.009c-.01-.015-.012-.035-.025-.044a.733.733 0 0 0-.08-.035.517.517 0 0 1-.09-.062c-.011-.009-.012-.028-.024-.036s-.056-.012-.081-.026-.021-.025-.033-.036-.022-.009-.032-.017-.01-.012-.017-.017-.022-.011-.033-.017-.01-.013-.016-.017-.044-.021-.064-.036-.01-.013-.017-.017a.94.94 0 0 0-.1-.052c-.016-.008-.034-.007-.049-.017s-.03-.039-.049-.054-.034-.007-.048-.017-.019-.027-.033-.035-.056-.021-.081-.035c-.007 0-.01-.013-.017-.017-.026-.017-.055-.027-.08-.044s-.019-.028-.033-.036c-.041-.024-.087-.038-.13-.06-.007 0-.01-.015-.017-.019-.032-.019-.066-.032-.1-.052-.006 0-.009-.015-.016-.017a.529.529 0 0 0-.066-.017.149.149 0 0 1-.032-.017c-.007-.005-.01-.015-.017-.017a.926.926 0 0 1-.13-.054c-.032-.021-.049-.066-.081-.088a.494.494 0 0 0-.1-.035.433.433 0 0 1-.064-.035c-.007 0-.01-.013-.017-.017a.106.106 0 0 0-.032-.017c-.022-.008-.045-.008-.066-.017s-.01-.015-.016-.017-.033-.009-.049-.017-.01-.013-.017-.019-.022-.009-.031-.017-.011-.013-.017-.017a.446.446 0 0 0-.064-.035c-.016-.008-.034-.009-.049-.017s-.011-.013-.017-.017a.272.272 0 0 0-.033-.017c-.006-.005-.008-.016-.016-.019s-.044-.008-.064-.017-.01-.013-.017-.017c-.032-.02-.065-.032-.1-.052-.013-.009-.019-.028-.033-.036s-.045-.013-.064-.026-.03-.034-.049-.044c-.063-.039-.131-.068-.2-.106-.006 0-.01-.013-.016-.017-.038-.02-.078-.031-.114-.052-.013-.008-.021-.026-.033-.036a.106.106 0 0 0-.032-.017c-.022-.008-.045-.008-.065-.017a.234.234 0 0 1-.064-.035c-.019-.015-.029-.04-.05-.054-.046-.031-.1-.048-.146-.079-.008-.005-.007-.02-.016-.026s-.035-.008-.049-.019c-.035-.025-.064-.06-.1-.089-.01-.007-.022-.009-.032-.017s-.011-.012-.017-.017a.994.994 0 0 1-.09-.062c-.011-.011-.013-.032-.024-.044s-.023-.009-.032-.017c-.024-.021-.041-.051-.066-.071s-.052-.024-.073-.044-.013-.032-.026-.044-.023-.009-.032-.017c-.029-.027-.051-.064-.081-.089-.015-.012-.034-.011-.049-.017l-.009-.009c-.006-.011-.01-.024-.017-.035a.081.081 0 0 0-.024-.027c-.015-.011-.034-.015-.049-.027a.218.218 0 0 1-.024-.035.664.664 0 0 0-.057-.063.546.546 0 0 0-.049-.026c-.007-.005-.011-.013-.017-.019s-.022-.016-.032-.025a.746.746 0 0 1-.074-.081c-.007-.009-.008-.026-.016-.035s-.036-.034-.05-.054-.017-.05-.033-.071-.056-.056-.081-.089a.5.5 0 0 0-.024-.044c-.011-.012-.029-.015-.041-.027s-.008-.024-.016-.035a.121.121 0 0 0-.024-.027c-.013-.011-.03-.013-.041-.027s-.019-.05-.033-.071a.1.1 0 0 0-.024-.027c-.01-.008-.022-.009-.033-.017a.121.121 0 0 1-.024-.027c0-.008 0-.019-.007-.027a.524.524 0 0 0-.041-.062c-.015-.02-.036-.032-.049-.054s-.017-.062-.033-.089-.029-.023-.041-.036a.067.067 0 0 1-.016-.025c-.011-.027-.016-.055-.026-.081l-.008-.009-.016-.008a.356.356 0 0 1-.024-.036.432.432 0 0 1-.033-.035c-.013-.023-.021-.048-.033-.071a.412.412 0 0 0-.041-.063s-.012 0-.016-.008c-.011-.023-.015-.05-.024-.071s-.012-.011-.017-.019-.021-.048-.033-.071c0-.007-.012-.011-.016-.017a.13.13 0 0 1-.017-.035c-.007-.03-.007-.06-.017-.09 0-.008-.012-.011-.016-.017s-.01-.024-.017-.036-.011-.009-.016-.017-.01-.024-.017-.035-.012-.011-.016-.019a.371.371 0 0 0-.017-.052c-.007-.015-.024-.021-.033-.036a1.032 1.032 0 0 1-.049-.106c-.007-.017-.01-.036-.017-.054a.419.419 0 0 0-.033-.071c0-.008-.013-.011-.016-.019s-.01-.048-.017-.071-.012-.023-.016-.035-.01-.048-.017-.071-.024-.047-.033-.072-.01-.047-.017-.071a.174.174 0 0 0-.016-.035c0-.007-.015-.011-.017-.017-.011-.039-.012-.079-.024-.117-.007-.017-.026-.027-.033-.044a.539.539 0 0 1-.041-.107c-.01-.035-.009-.072-.017-.106s-.024-.059-.033-.09c-.018-.059-.036-.118-.05-.178-.01-.04-.009-.083-.017-.125 0-.008-.015-.009-.017-.017-.019-.07-.029-.143-.05-.215 0-.007-.015-.008-.016-.017-.013-.079-.021-.2-.035-.3 0-.019-.013-.035-.016-.054-.009-.047-.009-.1-.017-.142 0-.013-.013-.024-.017-.036a.354.354 0 0 1-.017-.071c-.015-.154-.019-.31-.035-.464 0-.019-.016-.035-.017-.054a73.686 73.686 0 0 1-.038-.8c0-.012.01-.024.009-.036s-.018-.04-.017-.062a.718.718 0 0 1 .023-.134.3.3 0 0 1 .016-.036.242.242 0 0 0 .016-.071c0-.1-.01-.2-.01-.3s0-.2.006-.3c0-.024.013-.047.016-.071.007-.09 0-.18.013-.268 0-.026.023-.047.024-.071s-.017-.035-.017-.054a.525.525 0 0 1 .024-.107.888.888 0 0 0 .032-.09.471.471 0 0 0-.008-.071.364.364 0 0 1 .007-.072c0-.019.013-.035.016-.054.008-.059.006-.119.015-.178a.242.242 0 0 1 .017-.036c.011-.042.018-.085.03-.125 0-.013.013-.023.016-.036.013-.047.019-.1.032-.144a.232.232 0 0 1 .016-.036c0-.007.012-.011.017-.017s.008-.024.016-.036.013-.009.016-.017c.013-.052.018-.109.032-.161a.82.82 0 0 1 .032-.107.531.531 0 0 1 .032-.072c0-.007.013-.009.016-.017s.007-.048.016-.071.013-.011.016-.019.01-.048.016-.071.023-.059.032-.09c.013-.047.019-.1.031-.144a.236.236 0 0 1 .016-.036c0-.007.013-.009.017-.017s.007-.036.015-.054.013-.011.017-.017c.013-.035.018-.074.031-.109 0-.007.012-.009.016-.017.012-.028.019-.06.032-.09 0-.007.012-.011.016-.017a.135.135 0 0 0 .016-.036c.007-.023.009-.048.016-.071.015-.043.03-.086.049-.126 0-.007.012-.011.016-.017.012-.03.018-.062.032-.09 0-.008.012-.011.016-.017.023-.054.045-.107.064-.162a.646.646 0 0 1 .015-.071c.007-.015.024-.021.033-.036a.754.754 0 0 0 .047-.107c.009-.023.007-.048.016-.072s.03-.072.047-.107c0-.007.012-.011.017-.017a.189.189 0 0 0 .016-.036c.006-.023.009-.048.016-.071s.012-.024.016-.036a.455.455 0 0 1 .016-.071c.006-.016.023-.023.032-.036a.134.134 0 0 0 .016-.036c.007-.023.01-.048.016-.071a.16.16 0 0 1 .016-.036c0-.007.012-.011.016-.019s.01-.024.017-.035.025-.021.031-.036.007-.048.016-.071.012-.012.016-.019c.012-.023.018-.05.032-.071s.026-.021.033-.036.006-.05.016-.072.023-.021.032-.035.008-.025.016-.036.024-.021.033-.036a.518.518 0 0 0 .032-.071c.006-.017.009-.038.016-.054s.013-.011.016-.019c.018-.047.029-.1.047-.144 0-.008.012-.011.016-.017s.01-.025.017-.036.012-.011.016-.017c.018-.042.025-.087.047-.126s.045-.046.064-.072a.111.111 0 0 0 .016-.035c.007-.03.007-.06.016-.09 0-.008.012-.011.016-.017a.4.4 0 0 1 .016-.055c.012-.02.038-.031.049-.054s0-.063.016-.089.052-.058.072-.091a.6.6 0 0 0 .023-.071c0-.008.012-.011.017-.017a.311.311 0 0 1 .016-.036c.008-.013.023-.021.032-.036s.018-.05.032-.071.036-.034.048-.055a.385.385 0 0 0 .016-.054c0-.007.013-.009.016-.017s.009-.036.016-.054.012-.011.017-.019a.285.285 0 0 1 .016-.035c.013-.02.035-.034.047-.055s.034-.079.056-.117c.007-.012.026-.013.033-.027s.013-.06.023-.089l.009-.009a.221.221 0 0 0 .04-.027c.009-.009.01-.025.016-.036s.012-.011.016-.019.009-.026.016-.035c.019-.027.047-.044.064-.072s.016-.063.033-.09.045-.044.063-.071.024-.056.04-.082l.016-.008a.28.28 0 0 0 .04-.055.762.762 0 0 0 .049-.107c.006-.017.008-.036.016-.054l.007-.009c.013-.009.03-.013.04-.027s.013-.038.024-.054.018-.009.024-.017.013-.032.024-.046.023-.015.032-.027.013-.038.024-.054.039-.046.056-.072.015-.036.024-.054a.34.34 0 0 1 .04-.063c.011-.012.029-.015.04-.027s.008-.026.016-.036a.12.12 0 0 1 .024-.027c.01-.008.022-.009.032-.017a.086.086 0 0 0 .024-.028c.009-.016.006-.038.016-.052.023-.035.055-.059.08-.091.01-.011.016-.024.024-.035a.377.377 0 0 1 .024-.036c.015-.019.034-.035.047-.054s.034-.07.056-.1c.011-.013.03-.015.041-.027s.008-.026.016-.036.023-.023.032-.036.008-.026.016-.036.023-.021.033-.036.008-.024.016-.035a.083.083 0 0 1 .024-.027c.01-.008.022-.011.032-.019a.124.124 0 0 0 .024-.027c.007-.011.009-.026.016-.036a.123.123 0 0 1 .024-.027c.015-.011.035-.013.049-.027s.013-.038.023-.054a.082.082 0 0 1 .024-.027c.015-.009.033-.011.049-.019l.009-.009a.585.585 0 0 1 .056-.1c.012-.015.033-.016.049-.028s0-.012.007-.017c.025-.031.056-.058.08-.09.009-.011.009-.025.016-.036a.267.267 0 0 1 .04-.044c.01-.008.023-.009.033-.019s.041-.05.064-.072.029-.013.04-.027.011-.039.023-.054.034-.016.048-.027.01-.013.017-.019a.248.248 0 0 0 .032-.017c.023-.021.04-.052.064-.072s.033-.009.049-.017a.24.24 0 0 0 .056-.046c.011-.012.012-.034.024-.046s.045-.027.064-.044.018-.035.032-.046.056-.027.081-.046c0 0 0-.012.007-.017a.481.481 0 0 1 .073-.081c.013-.012.034-.008.047-.019.041-.032.074-.074.113-.109.01-.008.023-.009.033-.017s.019-.026.032-.036a.254.254 0 0 1 .033-.017c.006-.005.01-.013.016-.019s.022-.009.032-.017.019-.028.033-.036c.03-.021.066-.035.1-.055.007 0 .01-.013.017-.017a.443.443 0 0 1 .064-.036c.015-.008.034-.009.049-.019s.019-.027.032-.036.045-.02.064-.036.017-.035.032-.044.057-.019.081-.036.017-.035.032-.046a.761.761 0 0 1 .081-.036c.006 0 .009-.013.016-.019s.022-.009.032-.017.01-.013.017-.017.022-.011.032-.019.01-.015.016-.017.044-.011.066-.019a.625.625 0 0 1 .08-.036c.011 0 .022.011.032.008s0-.013 0-.017.034-.016.049-.027.01-.013.016-.019.023-.011.033-.017.008-.016.016-.019c.027-.009.055-.008.081-.019.007 0 .01-.012.016-.017s.022-.011.031-.019.01-.012.017-.017a.075.075 0 0 1 .032-.017c.035-.009.07-.009.106-.019.008 0 .015-.015.024-.019s.033-.009.047-.019.01-.013.016-.017c.022-.013.045-.023.066-.036s.009-.015.016-.017c.036-.016.076-.021.113-.038s.042-.025.064-.036a.214.214 0 0 1 .049-.017c.032-.008.064-.012.1-.019s.086-.023.129-.038.053-.026.08-.036.044-.011.066-.019.019-.015.032-.017c.069-.016.141-.019.21-.038.023-.007.041-.027.064-.036a.274.274 0 0 1 .064-.019c.053-.009.108-.009.161-.019.033-.007.064-.024.1-.028s.044.011.064.008a.3.3 0 0 0 .066-.017c.011 0 .019-.016.032-.019.049-.009.1-.011.146-.019.022 0 .042-.016.064-.019.089-.008.177-.011.267-.011s.177 0 .267.007c.009 0 .016.009.024.008s.026-.017.04-.017.032.017.049.017.047-.019.073-.019.036.015.056.017.022-.009.033-.009.01.009.016.009.038-.017.057-.019a.107.107 0 0 1 .04.008.483.483 0 0 0 .081.035c.064.012.13.007.194.016.012 0 .021.016.033.019.063.015.13.019.194.034a1.412 1.412 0 0 1 .177.052c.007 0 .01.015.017.017s.044.009.064.017.022.013.033.017.044.008.064.017a.13.13 0 0 1 .033.027c.011.008.019.021.033.027a1.4 1.4 0 0 1 .146.043c.016.008.018.035.033.044.035.023.078.031.113.052.013.008.022.026.033.036l.017.008c.012.013.017.035.032.044a.28.28 0 0 0 .066.017.112.112 0 0 1 .033.017c.017.016.032.038.049.054l.016.008a.294.294 0 0 1 .033.036l.024.035a1.093 1.093 0 0 0 .09.1c.01.009.023.009.033.017a.547.547 0 0 1 .073.081c.009.009.01.024.017.035s.023.021.033.036.023.056.04.079.032.013.041.027.018.062.033.089.023.023.033.036.008.025.016.035.024.021.033.036c.019.034.032.072.05.106 0 .008.012.011.016.019a.6.6 0 0 1 .033.089c.007.023.009.048.017.071a.842.842 0 0 0 .05.107c0 .007.011.011.016.017a.123.123 0 0 1 .017.036c.007.035.007.071.016.106 0 .008.013.011.017.019s.01.036.017.054a.617.617 0 0 1 .033.071c.017.094.019.19.034.284a.95.95 0 0 0 .033.144c0 .008.016.009.017.017.006.067.012.29.018.357 0 .008.016.009.016.017 0 .064.01.227.011.341s0 .225-.006.339c0 .009-.008.017-.007.027s.013.028.016.044-.006.011-.007.017c-.007.066-.007.131-.015.2 0 .024-.015.047-.016.071-.008.125 0 .251-.013.376 0 .013-.015.023-.016.036-.008.052-.008.107-.016.161s-.018.119-.032.178c0 .012-.012.023-.016.036-.017.071-.034.142-.046.215s-.018.144-.032.215c0 .013-.012.023-.016.036-.017.059-.033.118-.047.178s-.019.1-.032.143a.807.807 0 0 1-.039.134c-.006.013-.028.013-.033.027s0 .042 0 .063a1.222 1.222 0 0 1-.023.134c0 .008-.012.011-.017.017s-.008.025-.016.036-.013.011-.016.017c-.013.042-.02.085-.032.126 0 .012-.012.023-.016.035-.017.054-.03.109-.047.162 0 .012-.012.023-.016.035-.012.042-.017.086-.032.126s-.046.094-.064.144c-.008.023-.007.048-.016.071s-.011.011-.016.019-.019.048-.032.071c0 .007-.012.011-.016.019a.128.128 0 0 0-.016.035c-.007.024-.007.05-.016.072 0 .007-.013.009-.016.017-.019.047-.03.1-.049.144 0 .008-.012.011-.016.017s-.008.038-.016.054-.012.011-.016.019-.009.036-.016.054-.012.011-.016.017-.01.025-.016.036-.013.011-.017.017c-.007.024-.009.05-.015.073a.235.235 0 0 1-.016.036.865.865 0 0 0-.057.081c-.012.024-.011.056-.023.08s-.034.034-.049.054-.01.026-.016.036-.012.011-.016.017c-.016.035-.022.075-.04.107s-.04.047-.056.072-.019.048-.032.072c0 .007-.012.011-.016.017-.013.023-.021.048-.033.072 0 .007-.012.009-.016.017a.394.394 0 0 1-.016.054c-.012.021-.035.034-.049.054a.474.474 0 0 0-.032.072.271.271 0 0 1-.016.054c-.017.027-.047.044-.064.072a.745.745 0 0 0-.032.089l-.009.009-.016.009c-.008.011-.015.024-.024.035s-.045.047-.063.072-.01.025-.017.036-.011.011-.016.017 0 .019-.007.027-.023.03-.033.046-.018.043-.032.063-.012 0-.016.008a.283.283 0 0 0-.04.055c-.009.016 0 .039-.016.054-.049.064-.112.115-.16.18-.016.02-.018.05-.033.071a.172.172 0 0 1-.04.046c-.012.011-.029.015-.04.027s-.009.026-.016.036-.034.034-.047.054-.01.025-.017.036-.012.011-.016.017-.008.036-.016.054l-.007.009c-.016.008-.034.009-.049.019a.062.062 0 0 0-.024.027c-.007.011-.008.026-.016.036a.329.329 0 0 1-.04.044c-.012.011-.029.015-.04.027s-.009.026-.017.036a.434.434 0 0 1-.056.063l-.016.009c-.01.011-.015.024-.024.036a.431.431 0 0 1-.04.044c-.012.011-.029.015-.04.027s-.009.025-.016.036a.1.1 0 0 1-.024.027c-.01.008-.023.009-.032.019s-.029.046-.048.063-.034.016-.049.027-.032.031-.049.046a.281.281 0 0 0-.032.027c-.033.035-.062.074-.1.107-.01.009-.023.011-.033.019s-.018.028-.032.036a.386.386 0 0 1-.064.017l-.008.009a.319.319 0 0 1-.016.036c-.007.011-.013.023-.024.027-.052.017-.109.02-.161.038-.023.007-.041.03-.064.036-.043.012-.087.008-.129.019-.018 0-.032.023-.049.027s-.022-.008-.033-.008c-.057 0-.113.009-.17.009a1.206 1.206 0 0 1-.17-.007c-.017 0-.032-.013-.049-.017s-.066-.008-.1-.017a.478.478 0 0 1-.081-.035c-.006 0-.008-.013-.016-.017s-.033-.009-.049-.017-.01-.015-.016-.017-.034-.011-.05-.019a.407.407 0 0 1-.1-.052 1.261 1.261 0 0 1-.1-.106l-.017-.009a.821.821 0 0 1-.081-.115c-.013-.024-.013-.055-.024-.079 0-.008-.013-.011-.017-.019a.722.722 0 0 1-.049-.125 1.234 1.234 0 0 1-.034-.178c0-.007.008-.011.008-.017a.31.31 0 0 1-.008-.036c0-.009.01-.017.007-.027s-.021-.04-.024-.062a2.806 2.806 0 0 1-.027-.259.3.3 0 0 1 .008-.08c.007-.036.027-.07.032-.107.011-.107.006-.215.013-.322s.018-.224.03-.3c0-.008.012-.011.016-.017a.317.317 0 0 0 .016-.036c0-.007.013-.009.016-.017.013-.035.019-.072.033-.107 0-.008.012-.011.016-.019s.019-.048.032-.071.012-.011.016-.019a.1.1 0 0 0 .016-.035c.007-.03.009-.06.016-.09a.12.12 0 0 1 .016-.036c.015-.019.039-.031.049-.054.017-.039.018-.085.032-.125 0-.008.012-.011.016-.019a.419.419 0 0 1 .024-.054c.011-.015.032-.019.04-.036a.7.7 0 0 0 .016-.09c0-.008.012-.009.016-.017s.012-.05.023-.071.025-.021.033-.036.013-.06.023-.09c0-.008.012-.011.016-.017.018-.035.03-.074.049-.109 0-.007.013-.009.016-.017s.006-.05.016-.071.024-.023.032-.036.021-.05.033-.072c0-.007.013-.009.016-.017.009-.035.006-.072.016-.107a.269.269 0 0 1 .032-.072c.008-.013.025-.02.031-.035.016-.035.018-.074.032-.109 0-.007.012-.011.016-.017.012-.023.021-.048.033-.071s.012-.011.016-.019.015-.048.023-.071.025-.06.04-.09c0-.008.012-.011.016-.019a.53.53 0 0 0 .033-.071c0-.011 0-.024.007-.036a.6.6 0 0 0 .032-.063c.017-.055.023-.114.04-.169 0-.008.013-.011.016-.019a.837.837 0 0 0 .032-.125c.008-.047.006-.1.015-.143 0-.008.012-.011.017-.017a.1.1 0 0 0 .016-.036 1.937 1.937 0 0 0 .006-.205c0-.068 0-.138-.01-.205a.638.638 0 0 0-.017-.107.827.827 0 0 0-.033-.107c0-.008-.013-.009-.016-.017a.66.66 0 0 0-.017-.071c-.012-.023-.034-.035-.049-.054l-.009-.017a.147.147 0 0 0-.033-.036.37.37 0 0 0-.081-.043c-.036-.015-.076-.021-.113-.035-.012 0-.021-.015-.033-.017-.043-.009-.086-.009-.129-.017-.006 0-.011-.008-.017-.008s-.01.008-.016.008c-.049.009-.1.009-.146.02a.708.708 0 0 0-.129.036c-.007 0-.008.016-.017.019-.068.016-.14.023-.209.036a.369.369 0 0 0-.066.019c-.006 0-.01.013-.016.019s-.022.011-.032.017-.01.013-.017.019-.033.015-.047.027l-.008.017c-.01.013-.023.023-.032.036s-.015.031-.024.044l-.016.009c-.01.011-.016.026-.024.036a.339.339 0 0 1-.04.046c-.012.011-.029.015-.04.027s-.009.026-.016.036a.435.435 0 0 1-.057.062l-.016.009c-.01.011-.015.025-.024.036a.27.27 0 0 1-.04.046c-.015.011-.034.015-.049.027a.145.145 0 0 0-.023.036c-.007.011-.01.024-.016.035a.172.172 0 0 1-.024.028c-.01.007-.023.009-.033.017s-.021.025-.032.036l-.016.009a.222.222 0 0 0-.033.036c-.009.011-.015.024-.024.035s-.022.023-.032.036-.013.032-.024.046c-.027.03-.062.051-.089.08-.008.009-.008.026-.016.036s-.012.011-.016.017a.532.532 0 0 1-.04.081c-.007.011-.022.011-.032.019a.1.1 0 0 0-.024.027c-.01.015-.012.034-.024.046s-.034.015-.049.027a.118.118 0 0 0-.023.036c-.007.011-.009.025-.017.035-.018.027-.044.047-.063.072s-.013.032-.024.046-.029.015-.04.027-.008.024-.016.035-.023.024-.033.036l-.007.019c-.018.019-.04.034-.057.054s0 .019-.007.027a.529.529 0 0 1-.04.063c-.023.031-.051.058-.073.09-.01.016-.012.038-.023.054a.53.53 0 0 1-.04.036.239.239 0 0 0-.04.054.377.377 0 0 0-.016.054l-.009.009c-.016.009-.033.016-.049.027a.056.056 0 0 0-.016.019c-.015.028-.024.06-.04.09 0 .007-.011.011-.016.017s-.008.026-.016.036-.023.021-.033.035-.022.058-.039.082-.023.009-.033.017a.123.123 0 0 0-.024.027c-.011.023-.011.051-.023.072s-.023.016-.033.027a.269.269 0 0 0-.04.044c-.013.023-.017.051-.032.072s-.046.044-.064.072-.018.05-.032.071-.023.023-.032.036-.01.024-.017.036-.012.009-.016.017-.007.038-.016.054-.022.023-.032.036l-.009.017c-.012.013-.032.02-.04.036s0 .051-.016.072-.058.055-.08.09-.011.05-.023.071-.032.02-.04.036-.019.06-.033.09c0 .007-.012.011-.016.017s-.013.038-.024.054-.023.023-.032.036a.261.261 0 0 0-.024.054c-.007.024-.007.048-.016.072 0 .007-.011.011-.016.017s-.008.026-.016.036-.035.032-.049.054-.008.036-.016.054a.618.618 0 0 1-.032.072c0 .007-.012.011-.016.017-.023.052-.04.109-.063.161 0 .008-.013.011-.017.019a.453.453 0 0 1-.016.054c-.007.015-.026.02-.032.036a.665.665 0 0 0-.016.071.23.23 0 0 1-.016.036c0 .007-.013.009-.016.017-.022.056-.034.115-.056.17-.007.02-.023.035-.032.054a1.613 1.613 0 0 0-.056.153c-.008.028-.006.06-.016.089s-.033.071-.047.109c-.007.017-.008.036-.016.054s-.013.009-.016.017c-.008.03-.006.062-.016.09-.017.05-.05.093-.064.144s-.017.131-.03.2a.319.319 0 0 1-.016.036c-.012.047-.019.1-.032.143 0 .013-.012.023-.016.036a.449.449 0 0 0-.016.071c-.006.042-.007.085-.016.125s-.024.083-.032.126 0 .107-.015.161c0 .008-.015.009-.016.017-.01.071-.007.144-.015.215 0 .046-.022.089-.024.134 0 .019.017.035.017.054s-.016.028-.016.044.015.023.016.036-.007.011-.007.017q-.007.08-.007.161c0 .054 0 .107.01.161 0 .007.008.011.008.017s-.015.03-.016.046.007.017.007.027c.008.094.008.19.018.286.008.078.021.154.034.232.009.047.025.094.034.142.015.089.018.18.034.267 0 .009.012.011.016.019s.019.048.033.071.027.02.033.035.007.05.017.071.024.021.033.036.019.048.033.071c0 .007.012.011.016.017s.01.024.017.036.012.011.016.017.01.024.017.035.024.021.033.036c.022.039.033.086.057.125.015.021.04.032.057.052s.008.026.016.036.023.023.033.035l.009.017c.012.013.032.02.04.036s.007.048.017.071a.071.071 0 0 0 .024.027c.01.008.023.009.033.017a.081.081 0 0 1 .024.027c.01.016.015.036.024.054s.012 0 .017.008a.533.533 0 0 1 .057.062c.01.016.006.039.016.054a.374.374 0 0 0 .057.054.333.333 0 0 1 .033.027.516.516 0 0 1 .057.062c.007.011.009.025.017.035a.545.545 0 0 0 .073.08c.012.011.029.015.04.027s.015.032.025.044.022.009.032.017a.1.1 0 0 1 .025.027c.006.011.007.025.016.035.044.052.09.1.138.152.009.008.023.008.033.017s.021.031.033.044.022.016.033.027a.44.44 0 0 1 .04.044l.008.017c.017.019.04.032.057.052s.008.025.016.036a.17.17 0 0 0 .041.044c.015.009.034.008.049.017a.189.189 0 0 1 .04.044l.008.017a.5.5 0 0 0 .049.044c.029.023.062.039.09.062 0 0 0 .015.009.019s.035.005.049.017 0 .017 0 .027a.077.077 0 0 0 .017.035.077.077 0 0 0 .032.017c.022.008.044.011.066.017l.007.009a.3.3 0 0 0 .017.035c.015.02.034.035.049.054l.008.017a.335.335 0 0 0 .033.027c.011.011.019.027.033.035.03.021.067.031.1.054.013.011.021.031.033.044a.4.4 0 0 0 .049.044c.01.008.022.009.033.017s.01.013.016.017.044.021.066.035c.006.005.01.013.016.019s.023.009.033.017.019.024.032.035.03.015.041.027.011.035.024.044.044.008.065.017c.006 0 .01.013.016.017s.034.015.049.027a.432.432 0 0 1 .033.035 1.1 1.1 0 0 0 .114.106c.019.015.045.015.064.027s.021.026.033.036.023.009.033.016.01.013.016.019.023.009.033.017.03.038.049.052.023.011.033.019.018.028.033.035.056.005.08.017.021.025.033.035.023.011.033.017.01.015.016.019.034.008.049.017.011.013.017.017a.344.344 0 0 1 .049.027c.013.011.018.034.033.044s.055.02.081.035c.006 0 .01.013.016.017a.511.511 0 0 1 .049.017c.013.008.019.027.033.035s.033.009.049.017.01.013.016.019a.257.257 0 0 1 .033.017c.006 0 .01.015.017.017s.045.007.064.017.019.027.033.035.034.008.049.017.051.054.081.071.044.008.064.017.01.013.017.017.045.02.064.035.029.042.049.054.045.008.065.017.01.013.016.017.045.021.066.035.01.015.016.019.034.008.049.017.01.013.017.017c.03.017.066.026.1.044.016.008.026.027.04.035s.05.015.073.025c.007 0 .01.015.017.019.025.013.055.02.081.035.006 0 .008.015.016.017.026.012.055.015.081.027.007 0 .01.013.016.017.027.016.055.027.081.043.006.005.01.015.016.019.027.013.056.02.081.035.007 0 .01.013.017.017.063.032.132.052.194.087.021.012.032.038.049.054s.023.011.033.017.01.015.016.017a.594.594 0 0 0 .066.017l.007.009c.01.015.012.035.026.044a.866.866 0 0 0 .08.035.52.52 0 0 1 .09.062c.011.009.013.028.024.036s.056.019.081.035.03.032.049.044.056.021.081.035c.007 0 .01.013.017.017s.022.009.032.017.021.027.033.036a.391.391 0 0 0 .065.035.424.424 0 0 1 .049.017.263.263 0 0 1 .056.044s0 .015.008.017c.021.012.045.013.066.027s.021.025.032.035.024.009.033.017.03.039.05.054.044.021.064.035.032.032.049.044a.76.76 0 0 1 .09.052c.013.013.011.042.024.054a.448.448 0 0 0 .081.044c.006 0 .01.013.016.017l.033.017c.01.006.021.025.033.036s.023.009.033.017.032.036.049.054l.016.008c.012.013.018.035.033.044s.057.019.081.035.03.039.049.054.017 0 .024.008c.042.033.08.074.123.107.014.011.033.015.049.025s.01.013.016.019a.258.258 0 0 1 .033.017c.012.009.021.026.033.035s.034.015.049.027.019.032.033.044.023.009.033.017c.034.034.061.075.1.106a.43.43 0 0 0 .064.035c.007.005.011.013.017.019s.023.009.033.017a.1.1 0 0 1 .024.027c.01.013.012.034.024.044s.035.005.049.017c.064.059.115.135.18.194.013.012.034.008.049.017a.123.123 0 0 1 .024.027c.01.013.012.034.024.044s.034.015.048.027 0 .013.009.017a1.715 1.715 0 0 0 .138.15c.022.02.051.027.073.044 0 0 0 .013.009.019s.023.016.033.026.021.031.033.044.04.034.057.054.009.026.016.036a.151.151 0 0 0 .024.025c.01.008.024.009.033.017.029.031.051.068.081.1s.051.034.073.054l.008.017c.012.013.029.021.041.035s.015.031.024.044l.016.009c.013.016.018.039.033.054s.052.031.073.052.01.026.017.036a.433.433 0 0 0 .057.062s.013 0 .016.009.006.039.017.052.017 0 .024 0a.072.072 0 0 1 .033.017c.009.011.009.027.016.036.03.038.068.068.1.106.007.011.008.026.016.036s.023.021.033.035.009.025.017.036c.046.055.1.1.146.16.009.009.01.024.017.035a.436.436 0 0 0 .057.062c0 .005.013 0 .016.009.017.028.026.062.041.089s.023.023.033.036.009.026.017.035.034.034.048.054.009.025.016.035.036.034.049.054.007.039.017.054c.023.034.059.054.081.089a.946.946 0 0 1 .033.09c.008.013.024.021.033.035s.01.024.017.035.012.011.016.019.01.024.017.035.023.023.033.036.009.024.016.035.024.021.033.036.018.05.033.071.047.043.066.071.007.038.016.052.023.023.033.036.01.024.017.035.024.021.033.036.019.06.033.089c0 .008.012.011.016.017.012.023.021.048.033.071s.013.011.017.019c.012.028.019.06.033.089 0 .008.012.011.016.017.012.023.021.048.033.071s.013.011.017.019.009.036.016.052a.44.44 0 0 0 .041.081c.009.012.027.013.033.027.018.039.024.085.041.125 0 .008.011.011.016.017s.01.024.017.036.012.009.016.017c.013.028.018.062.033.089s.025.021.033.036a.764.764 0 0 1 .05.123c.008.03.006.062.016.09.023.062.06.117.083.178.015.04.019.083.034.125a.516.516 0 0 0 .032.071c0 .007.015.009.017.017.015.046.019.1.033.142a.374.374 0 0 0 .034.071c0 .008.012.011.016.019a.625.625 0 0 1 .033.106c.01.047 0 .1.017.144s.052.115.067.177c.024.106.03.216.05.322 0 .013.012.023.017.036a1.429 1.429 0 0 1 .05.16c.01.047.008.1.017.142a1.154 1.154 0 0 0 .033.143c0 .008.013.011.017.017a.207.207 0 0 1 .016.054c.015.1.022.191.035.286 0 .007.008.011.007.017s-.016.023-.016.036a.817.817 0 0 0 .025.089c.023.13.044.262.059.393 0 .017-.008.035-.008.054.019.063.03.158.034.253zm34.739-12.462c.106-.569-1.08-.626-1.076-.062.003.45.986.559 1.076.063zm2.385.131a1.8 1.8 0 0 1-.989 1.787c-1.607 1.125-3 .535-4.138-.948a3.815 3.815 0 0 1 .164-3.243 2.594 2.594 0 0 1 .747-.641 2.7 2.7 0 0 1 2.467.06 3.482 3.482 0 0 1 1.608 2.406c.029.17.106.394.142.58zm-31.85 4.612c-.017 0-.033-.008-.049-.008a.117.117 0 0 0-.049.009c-.007 0-.01.013-.016.017s-.034.011-.049.019-.01.013-.016.017c-.032.02-.067.034-.1.055a.1.1 0 0 0-.024.027c-.007.011-.008.026-.016.036s-.023.021-.032.035a.139.139 0 0 0-.017.036.63.63 0 0 0-.023.134.392.392 0 0 0 .026.117c0 .008.012.011.016.017s.01.026.017.035a.269.269 0 0 0 .057.063.588.588 0 0 0 .154.079c.018.005.036-.019.056-.019s.032.015.049.017.012-.005.017-.009.018-.027.032-.036c.304-.199.519-.644-.033-.638zm-.024 3.556c-.019-.016-.028-.047-.049-.063s-.056-.019-.081-.035-.03-.032-.049-.044a.177.177 0 0 0-.049-.017c-.033-.007-.066-.007-.1-.016-.007 0-.01-.015-.017-.019s-.044-.008-.064-.017-.01-.012-.017-.017a.149.149 0 0 0-.032-.017c-.022-.008-.045-.008-.066-.017s-.008-.016-.016-.017c-.043-.011-.087-.007-.13-.017-.007 0-.008-.013-.016-.017-.075-.032-.153-.055-.227-.087-.007 0-.01-.013-.017-.017a2.435 2.435 0 0 1-1.1-1.34 4.148 4.148 0 0 1 .124-3.038c.178-.471.671-.731.963-1.116a.87.87 0 0 0 .064-.071.778.778 0 0 0 .032-.09c0-.008.012-.011.016-.017s.015-.038.024-.055.011-.011.016-.017.022-.021.024-.036a.613.613 0 0 0 .007-.115.375.375 0 0 0-.008-.117.19.19 0 0 0-.057-.062c-.01-.008-.023-.009-.033-.017s-.018-.031-.033-.036c-.427-.126-1.435-.059-1.719.417a4.049 4.049 0 0 0-.524 1.361 23.239 23.239 0 0 0-.2 4.861c.007 1.061.8 5.272 2.424 4.581.007 0 .01-.016.017-.019a.783.783 0 0 0 .1-.027c.016-.009.018-.035.033-.046a.878.878 0 0 1 .08-.036c.007 0 .01-.015.016-.019.026-.013.055-.021.081-.036.006 0 .009-.013.016-.017s.044-.023.064-.036.01-.013.016-.017a.528.528 0 0 0 .064-.038c.035-.031.063-.072.1-.107l.016-.009c.017-.019.029-.044.047-.063s.023-.009.033-.017.019-.032.032-.046.03-.02.04-.036c.021-.032.027-.075.049-.107a.477.477 0 0 1 .072-.08c0-.005.013 0 .016-.009s.013-.038.024-.054.047-.044.064-.072c.649-1.103 1.029-2.883-.071-3.784zm34.171 11.706a6.825 6.825 0 0 1 .03-2.5c.448-3.1.954-6.319 1.333-9.462.154-1.286-.845.5-1.029.634-.964.694-1.42.66-2.31-.892-.3-.525-.827-.814-1.1-.044-.37.985-1.232 2.068-2.248 1.092-.376-.357-1.051-1.708-1.713-1.022-1.269 1.337-2.332 3.745-4.652 1.925-.306-.24-.556-.8-.867-.359a11.1 11.1 0 0 1-.971.973c-.713.8-2.688 2.038-3.66 1.577-.5-.236-.758-.9-1.327-.266a1.538 1.538 0 0 1-.9.463c-2.3.559-3.429-6.291-4.314-.777a2.608 2.608 0 0 1-1.061 1.877c-.546.237-1.12-.907-1.279-1.375-.134-.4-.67-3.627-1.357-2.149-.6 1.352-.243 2.895-.73 4.258a.987.987 0 0 1-1.776.337 5.121 5.121 0 0 1-.572-3.068c.032-.838-.2-2.605-1.095-2.859-.507-.131-.065 1.179-.055 1.484.11 2.6-.475 4.569-2.464 5.934-.013.008-.019.027-.033.036-.03.019-.065.028-.1.046-.007 0-.01.013-.016.017a.69.69 0 0 1-.081.046c-.021.009-.044.011-.064.019a.106.106 0 0 0-.032.017c-.007.005-.01.013-.017.017a.79.79 0 0 1-.129.074c-.046.017-.1.02-.144.036-.007 0-.01.013-.017.019a.514.514 0 0 1-.064.036c-.032.013-.065.021-.1.036-.006 0-.009.013-.016.017s-.033.011-.049.019-.008.013-.016.017a.438.438 0 0 1-.08.036c-1.829.621-3.106-2.058-3.542-3.641a27.947 27.947 0 0 1-.821-4.156 23.293 23.293 0 0 1-.07-5.431c.193-1.759 1.059-4.121 2.79-4.553 3.108-.774 4.4 2.567 4.667 5.115.154 1.441.732 1.347 1.64 2.086a2.433 2.433 0 0 1 .823.931c.317.943.727-.688.85-.936a3.7 3.7 0 0 1 .5-.826c1.69-1.9 2.418 1.788 3.146 1.447.789-.376.738-1.282 1.362-1.78 2.263-1.842 2.328 3.728 4.073 4.486.813.373.959-1.814 1.092-2.323.625-2.37 1.738-5.63 4.036-6.492a3.58 3.58 0 0 1 4.012 1.351c.539.919.773 1.934-.136 2.547-1.345.924-1.591-.57-2.641-.728a1.214 1.214 0 0 0-.9.2c-.866.557-2.576 3.751-1.916 4.759.441.673 1 .2 1.479-.129a6.931 6.931 0 0 0 1.449-1.914c.346-.488 1.128-1.439 1.737-1.445 1.418-.012.364 2.712 1.425 2.7l2.684-3.5c.994-.628 1.268-.233 1.7.727a1.783 1.783 0 0 0 .522.612c1.366.931 1.018-3.226 2.878-2.275.794.388 1.533 2.372 1.933 2.35.262-.011 1.347-2.88 1.61-3.319.642-1.088 1.375-1.087 1.748.272a18.643 18.643 0 0 1 .282 5.661c-.148 3.875-.331 8.345.666 12.161.249.907 1.242 2.14.815 3.244-.344.884-1.772.338-2.3-.043a5.633 5.633 0 0 1-2.518-3.426zM394.622 486a3.685 3.685 0 0 1-.975 2.83c-.089.1-.151.244-.239.342-.487.549-.971 1.113-1.493 1.611a18.251 18.251 0 0 1-2.089 1.769c-1.089.73-2.911 1.335-3.761-.156-.206-.364-.876-.9-1.231-.419a7.389 7.389 0 0 1-1.809 1.543 2.348 2.348 0 0 1-2.749-.083c-1.788-1.563-1.888-5.819-.515-7.741a13.338 13.338 0 0 1 1.4-1.879c.148-.141.273-.3.418-.449 1.034-1.057 2.877-2.5 4.306-1.608 1.521.908.8 2.842-.657 3.238-.113.031-.21.046-.323.075a4.779 4.779 0 0 0-3.049 2.054c-.469.728-1.122 2.071-.361 2.817.932.919 1.837-.761 2.132-1.547.37-1 1.472-3.056 2.694-2.005.7.592.354 1.289.62 2.031.124.343.311.786.646.915 1.794.688 2.424-2.211 3.185-3.394.675-1.054 1.542-1.886 2.78-1.391.737.291.848.676 1.07 1.447z" transform="translate(-309.857 -461.7)" style="fill:#fff;fill-rule:evenodd"/>
    <path data-name="Rectangle 3649" style="fill:#004a9c" d="M0 0h92.507v50.945H0z"/>
    <path data-name="Path 10269" d="M335.351 497.321c.006.16.011.321.012.482s0 .322 0 .483c0 .019-.015.035-.016.054-.008.107 0 .215-.015.322 0 .013-.012.023-.016.035-.012.054-.022.107-.032.161s-.007.084-.015.126-.022.1-.032.142-.008.072-.016.109c0 .012-.013.021-.016.035-.013.066-.017.131-.03.2s-.03.119-.047.178c0 .013-.012.024-.016.036-.013.047-.018.1-.032.143-.007.026-.024.046-.032.071s-.007.06-.016.09c0 .008-.013.011-.016.019a.194.194 0 0 0-.016.054 1.075 1.075 0 0 1-.016.107c0 .015-.024.021-.033.035s-.019.05-.032.072c0 .007-.012.011-.016.017-.018.04-.029.086-.047.126 0 .007-.013.011-.016.017a.452.452 0 0 0-.016.054c-.01.024-.024.047-.033.072s-.007.048-.016.071c-.018.05-.044.1-.063.144 0 .012 0 .024-.007.036a.578.578 0 0 1-.04.09c-.013.02-.034.034-.048.054a.307.307 0 0 0-.016.036c0 .007-.012.011-.016.017s-.009.025-.016.036-.026.021-.033.036-.018.06-.032.089a.229.229 0 0 1-.024.036l-.023.036c-.008.012-.026.021-.033.036s-.008.036-.016.054a.71.71 0 0 1-.032.071c0 .008-.012.011-.016.019-.018.035-.03.072-.049.107 0 .008-.011.011-.016.017s-.009.025-.016.036-.034.035-.049.054-.009.025-.016.036a.081.081 0 0 1-.024.027c-.009.008-.022.011-.032.019a.082.082 0 0 0-.024.027c-.009.016-.006.038-.016.054a.377.377 0 0 1-.056.063l-.016.009a.356.356 0 0 0-.024.036c-.012.013-.029.021-.04.035a.237.237 0 0 0-.04.055.377.377 0 0 0-.016.054l-.009.008c-.013.011-.029.015-.04.028a.492.492 0 0 0-.024.044l-.016.009a.369.369 0 0 0-.024.036.4.4 0 0 0-.032.035c-.007.011-.008.025-.016.036s-.034.035-.049.054-.013.033-.024.046-.029.015-.04.027-.009.025-.016.036a.224.224 0 0 1-.04.044c-.01.008-.023.011-.033.019s-.029.039-.047.054-.046.019-.064.036c-.041.038-.073.087-.113.126-.009.009-.023.011-.032.019a.271.271 0 0 0-.041.044l-.007.019c-.01.009-.023.016-.033.027a1.276 1.276 0 0 1-.1.107c-.013.012-.033.011-.049.019l-.007.009-.016.035a.172.172 0 0 1-.024.028c-.01.007-.023.009-.033.017a.164.164 0 0 0-.024.027c-.01.017-.012.038-.023.054a.093.093 0 0 1-.033.027c-.016.011-.032.019-.047.028a.426.426 0 0 0-.049.027c-.007 0-.01.013-.016.017s-.023.011-.033.019-.01.013-.016.017-.035.007-.049.019c-.03.026-.05.064-.08.09-.013.011-.034.008-.049.019s-.028.042-.049.054a.835.835 0 0 1-.1.036c-.007 0-.011.013-.017.019a.246.246 0 0 0-.032.017c-.023.021-.041.05-.064.072l-.016.009c-.012.011-.021.025-.033.035s-.033.017-.049.028-.008.013-.016.017a.871.871 0 0 0-.08.036c-.019.013-.029.042-.048.055-.045.03-.1.044-.145.072-.013.008-.021.026-.033.036a.106.106 0 0 1-.032.017c-.021.008-.044.009-.064.019s-.01.013-.017.017-.044.021-.064.036-.029.04-.047.055-.034.008-.049.017-.018.028-.033.036c-.051.03-.108.046-.16.072-.007 0-.01.015-.017.019-.03.02-.064.034-.1.054-.007.005-.01.015-.016.019-.027.012-.056.013-.081.027-.009.005-.009.02-.016.027s-.022.011-.033.019-.008.013-.016.017c-.026.015-.055.023-.08.036-.007 0-.01.015-.016.019s-.044.009-.066.019a.141.141 0 0 0-.047.027c-.01.008 0 .031-.016.036-.03.012-.067 0-.1.009-.046.016-.085.052-.129.072s-.077.02-.113.036c-.061.027-.118.064-.178.091-.019.009-.044.009-.064.019a.762.762 0 0 0-.1.054c-.007 0-.008.016-.016.019a.8.8 0 0 0-.081.019 1.865 1.865 0 0 0-.177.09c-.006 0-.008.016-.016.019-.032.009-.066.009-.1.019a.083.083 0 0 0-.032.017c-.007.005-.01.015-.017.019-.068.027-.141.044-.209.072-.05.02-.095.055-.146.072s-.119.023-.177.038c-.012 0-.021.013-.033.019-.036.013-.075.023-.113.036-.011 0-.019.015-.032.019-.059.015-.119.022-.177.036-.012 0-.022.015-.033.019-.027.008-.055.008-.081.019-.006 0-.01.012-.016.017a.1.1 0 0 1-.032.019c-.059.015-.119.022-.177.036-.017 0-.033.015-.049.019-.038.008-.076.008-.114.019-.006 0-.009.016-.016.017-.075.015-.194.019-.29.039-.024.005-.041.029-.064.036-.064.017-.13.021-.194.038-.044.011-.085.035-.129.046-.011 0-.022-.009-.033-.009a.7.7 0 0 0-.129.02 2.018 2.018 0 0 0-.194.055c-.011 0-.021.016-.032.017-.119.017-.26.031-.356.039-.006 0-.011-.009-.017-.009s-.019.017-.032.019-.016-.011-.024-.008-.016.013-.024.017a.258.258 0 0 1-.073.028c-.015 0-.026-.016-.04-.019s-.022.009-.033.009-.016-.009-.024-.008a.991.991 0 0 0-.137.028.341.341 0 0 1-.049.017c-.161.017-.375.028-.484.04-.012 0-.021.015-.032.017a.564.564 0 0 1-.13.028c-.017 0-.032-.019-.049-.017a.173.173 0 0 0-.064.028c-.007 0-.009.017-.016.017-.049 0-.626.028-.906.035-.14 0-.28 0-.42-.005-.011 0-.022-.011-.033-.009s-.032.019-.049.019-.021-.016-.033-.017-.01.007-.016.009a.266.266 0 0 1-.056.009 1.481 1.481 0 0 1-.2-.025c-.018 0-.032-.021-.049-.027s-.011.009-.016.009a2.498 2.498 0 0 1-.227.011 1.417 1.417 0 0 1-.226-.007c-.024 0-.041-.032-.066-.035-.1-.013-.363-.021-.469-.032-.012 0-.021-.015-.033-.017a.543.543 0 0 0-.121-.026c-.024 0-.049.012-.073.009a2.17 2.17 0 0 1-.243-.052c-.012 0-.021-.015-.033-.017-.042-.009-.086-.007-.129-.016-.012 0-.022-.015-.033-.017-.032-.009-.066-.009-.1-.017-.012 0-.021-.015-.033-.017-.1-.021-.205-.031-.307-.051-.012 0-.021-.015-.033-.017-.038-.009-.076-.008-.113-.017-.012 0-.021-.013-.033-.017-.064-.02-.131-.031-.194-.052-.007 0-.008-.015-.017-.017-.026-.009-.053-.009-.08-.017s-.021-.013-.033-.017c-.049-.015-.1-.02-.146-.035-.012 0-.021-.013-.033-.017a.447.447 0 0 0-.056-.017h-.024c-.045-.02-.085-.052-.13-.07s-.065-.008-.1-.017c-.007 0-.01-.015-.017-.017-.036-.015-.077-.021-.113-.035-.012 0-.021-.013-.033-.017s-.055-.009-.081-.017a.1.1 0 0 1-.033-.017c-.006 0-.008-.013-.016-.017-.042-.026-.085-.05-.13-.071s-.089-.029-.13-.052c-.013-.007-.018-.029-.033-.035-.03-.012-.066 0-.1-.017-.013-.005-.019-.026-.032-.035s-.023-.011-.033-.017-.021-.026-.033-.036a.1.1 0 0 0-.033-.017c-.043-.013-.087-.019-.13-.035-.006 0-.01-.012-.016-.017s-.022-.009-.033-.017-.008-.014-.016-.017-.033-.009-.049-.017-.01-.015-.016-.017-.034-.009-.05-.019-.008-.013-.016-.017c-.064-.038-.132-.066-.194-.1-.013-.008-.019-.028-.033-.036s-.045-.007-.066-.017-.019-.025-.032-.035-.034-.015-.05-.027-.018-.027-.032-.035-.045-.015-.066-.027-.01-.013-.016-.017-.023-.009-.033-.017-.019-.026-.033-.036c-.036-.028-.076-.051-.113-.079-.013-.009-.019-.027-.033-.035s-.057-.019-.081-.035-.018-.035-.033-.044a.761.761 0 0 0-.081-.036c-.006 0-.01-.012-.016-.017s-.024-.008-.033-.017-.029-.046-.049-.062-.046-.012-.066-.027-.039-.052-.064-.071-.035 0-.049-.008 0-.019 0-.027a.059.059 0 0 0-.016-.027c-.015-.012-.034-.015-.048-.027s-.02-.027-.033-.035-.034-.008-.049-.017a.23.23 0 0 1-.041-.044c0-.005 0-.015-.007-.017-.021-.012-.045-.015-.066-.027a.07.07 0 0 1-.024-.027c-.01-.016-.012-.039-.024-.052s-.051-.034-.073-.054c0 0 0-.013-.008-.017s-.034-.016-.049-.027a.165.165 0 0 1-.033-.027.344.344 0 0 1-.024-.035c-.012-.013-.029-.023-.041-.036s-.03-.043-.049-.062-.023-.008-.033-.017a1 1 0 0 1-.106-.115.342.342 0 0 1-.024-.054c-.008-.013-.026-.02-.033-.035a.685.685 0 0 1-.024-.071c0-.008-.013-.011-.017-.017-.013-.029-.019-.062-.033-.09 0-.007-.013-.009-.017-.017-.012-.028-.019-.06-.033-.088 0-.008-.013-.011-.016-.019s-.01-.047-.017-.071-.024-.058-.033-.089a.72.72 0 0 1-.025-.134c0-.019.019-.035.016-.054a.745.745 0 0 0-.041-.1.276.276 0 0 1-.008-.063.6.6 0 0 0 .007-.08c0-.021-.024-.039-.024-.062s.022-.064.024-.1c.01-.137 0-.275.013-.412 0-.024.012-.047.016-.071a1.426 1.426 0 0 1 .015-.161 1.532 1.532 0 0 1 .063-.2c0-.008.015-.009.016-.017.008-.035.008-.072.016-.107a.8.8 0 0 1 .032-.109c0-.007.012-.011.016-.017a.117.117 0 0 0 .016-.036c.012-.04.018-.084.032-.125 0-.008.012-.011.017-.017.012-.024.018-.05.032-.072s.024-.021.032-.036c.019-.04.03-.085.047-.125 0-.008.012-.011.017-.019a.728.728 0 0 0 .032-.071c.006-.017.008-.036.016-.054a.378.378 0 0 1 .032-.072c.008-.013.024-.022.032-.036.019-.034.029-.072.049-.107.007-.015.023-.023.032-.036s.01-.024.016-.035.012-.012.017-.019c.012-.023.019-.048.032-.071s.012-.011.016-.019.008-.024.016-.036.023-.023.033-.035l.007-.019a.4.4 0 0 0 .033-.035c.01-.017.013-.038.023-.055s.024-.021.033-.035.006-.039.016-.055a.189.189 0 0 1 .04-.044c.012-.011.03-.013.04-.027s.007-.038.016-.054.023-.023.032-.036.008-.025.016-.036.023-.023.033-.036l.007-.017c.01-.011.023-.017.033-.027a.542.542 0 0 0 .072-.082c.011-.015.006-.039.016-.054.028-.04.067-.07.1-.107.01-.013.012-.033.023-.046s.035-.015.049-.027.019-.034.033-.046.033-.016.047-.027.01-.013.017-.017.033-.017.047-.027a.088.088 0 0 0 .033-.028c.01-.016 0-.04.016-.054s.022 0 .033 0a.122.122 0 0 0 .047-.019c.012-.008.016-.024.024-.035a.526.526 0 0 1 .056-.063c.01-.009.023-.011.033-.019s.03-.038.049-.054.022-.011.032-.019.01-.013.016-.017c.027-.017.056-.027.081-.046s.04-.044.064-.063.033-.015.047-.027.009-.02.017-.027.044-.021.064-.036.019-.025.032-.036.023-.009.033-.019.038-.054.063-.071.045-.009.066-.019.009-.015.016-.019.033-.009.049-.017.009-.015.016-.017c.034-.019.072-.027.1-.047a.3.3 0 0 0 .057-.044c.011-.011.018-.028.032-.036s.055-.023.08-.036c.044-.023.085-.054.13-.072a.786.786 0 0 1 .08-.019 1.206 1.206 0 0 0 .129-.055c.023-.009.042-.025.064-.036a.3.3 0 0 1 .049-.019c.038-.008.076-.007.113-.017a.266.266 0 0 0 .064-.038c.007 0 .01-.015.017-.017.058-.016.119-.021.177-.038.012 0 .021-.015.032-.017a1.932 1.932 0 0 1 .259-.056 2.227 2.227 0 0 1 .267-.011 1.771 1.771 0 0 1 .267.007 1.133 1.133 0 0 1 .194.052c.011 0 .021.013.033.017.032.008.066.007.1.016.007 0 .009.015.016.017a.568.568 0 0 0 .064.017c.012.005.022.013.033.019.038.012.076.019.114.034.006 0 .01.013.016.019s.023.009.033.017.03.039.049.052a.634.634 0 0 0 .064.036c.007 0 .011.012.017.017s.023.009.033.017.019.027.032.035.035.007.05.017a.621.621 0 0 1 .073.08l.008.017c.009.011.022.016.032.027.053.055.106.11.155.168.009.011.009.026.016.036s.024.023.033.035.01.025.017.036.012.011.016.017a.122.122 0 0 1 .017.036c.007.023.01.048.016.071l.008.008c.011.009.025.015.033.027a.459.459 0 0 1 .041.09c.008.028.007.06.017.089 0 .008.011.011.016.017a.245.245 0 0 1 .017.036c.006.023.008.048.016.071s.026.046.033.071.009.06.017.09a.461.461 0 0 1 .033.071c.012.052.01.107.017.16s.021.076.025.117c0 .015-.007.03-.007.044s.01.042.008.063-.015.064-.016.1.009.035.009.054a.827.827 0 0 1-.016.107c0 .019-.013.035-.016.054s.01.017.008.027a.2.2 0 0 1-.024.063c0 .007-.013.009-.016.017s-.008.048-.016.071a.382.382 0 0 1-.032.072c0 .007-.012.011-.016.017-.023.054-.04.11-.064.162a.078.078 0 0 1-.023.027c-.016.011-.034.015-.049.027s0 .013-.008.017c-.019.026-.046.046-.064.072s-.021.064-.039.09-.034.016-.049.027a.171.171 0 0 0-.04.046c-.017.028-.024.062-.04.09s-.024.021-.031.036-.023.062-.04.089-.034.035-.049.055a.112.112 0 0 0-.016.035c-.007.024-.008.048-.016.072s-.023.059-.032.09a.259.259 0 0 0-.007.062.281.281 0 0 0 .009.063c0 .007.008.011.008.017s-.007.011-.008.017a.481.481 0 0 0-.007.072.233.233 0 0 0 .008.071.753.753 0 0 0 .033.071.25.25 0 0 0 .016.054c.018.027.047.043.066.071a.336.336 0 0 1 .017.054.118.118 0 0 0 .024.044c.018.016.045.02.064.035s.021.027.033.035.056.025.081.044c.009.005.007.023.017.027.052.023.108.031.161.052.007 0 .01.013.016.017a.238.238 0 0 0 .065.035c.043.012.086.008.13.017a.875.875 0 0 1 .129.035c.012 0 .021.015.033.017.038.008.077.007.113.016.007 0 .01.016.017.019.036.009.075.009.113.016.022 0 .042.015.066.017.069.008.14.007.21.016.012 0 .021.016.033.017a1 1 0 0 0 .177.025c.03 0 .058-.019.089-.019.047 0 .091.023.138.025a.7.7 0 0 0 .073-.009.421.421 0 0 1 .072.008.8.8 0 0 0 .106.027c.022 0 .043-.017.064-.019a.109.109 0 0 1 .041.008.647.647 0 0 0 .064.027c.006 0 .011-.007.016-.009a.375.375 0 0 1 .1-.027c.022 0 .042.017.066.016s.02-.017.032-.017.021.016.033.017.01-.008.016-.009c.038-.008.075-.011.113-.019.006 0 .011-.009.017-.009s.019.019.032.019.043-.017.066-.019a.325.325 0 0 1 .08.008c.006 0 .011.009.016.009s.011-.008.017-.009c.053-.013.107-.03.161-.038.091-.012.183-.009.274-.02.017 0 .032-.016.049-.019.064-.009.13-.009.194-.019.04-.005.08-.023.12-.028.015 0 .027.011.041.009.049-.008.1-.029.144-.038.006 0 .011.009.017.009s.01-.008.016-.009c.038-.008.075-.011.113-.019.017 0 .032-.015.049-.019a.819.819 0 0 1 .113-.019c.009 0 .016.009.024.009a.957.957 0 0 0 .137-.028c.044-.012.085-.038.129-.046.012 0 .021.019.033.017s.019-.021.033-.027a.179.179 0 0 1 .064-.019c.075-.009.152-.007.226-.02a.75.75 0 0 0 .1-.036.07.07 0 0 1 .017 0 .142.142 0 0 1 .032-.009c.012 0 .022.008.033.008l.008-.008a.087.087 0 0 1 .024-.019 1.459 1.459 0 0 1 .153-.046c.069-.016.141-.021.21-.038.012 0 .021-.015.032-.019.032-.008.066-.009.1-.017.012 0 .021-.015.033-.019.032-.009.064-.011.1-.019a1.014 1.014 0 0 0 .113-.036c.007 0 .01-.015.017-.019a1.026 1.026 0 0 1 .129-.055c.053-.016.108-.023.161-.036a.218.218 0 0 0 .049-.019.627.627 0 0 1 .064-.036c.063-.023.13-.034.193-.055.028-.009.053-.025.081-.036.047-.02.1-.035.144-.055a.1.1 0 0 0 .033-.019c.006 0 .009-.015.016-.017.027-.009.055-.009.081-.019.006 0 .008-.015.016-.017s.044-.009.064-.019.009-.015.016-.017c.052-.021.108-.035.161-.055a.213.213 0 0 0 .033-.019c.006 0 .008-.015.016-.017.032-.015.066-.021.1-.036s.064-.039.1-.055.066-.021.1-.036a.864.864 0 0 0 .1-.055c.007 0 .01-.013.017-.017a.858.858 0 0 1 .08-.036c.022-.012.043-.027.064-.036s.033-.011.049-.019.009-.015.016-.019.044-.008.064-.017.01-.013.016-.019a.26.26 0 0 0 .033-.017c.017-.016.03-.038.049-.054a.078.078 0 0 1 .032-.019c.021-.008.044-.009.064-.019s.01-.013.017-.017.034-.008.047-.019.021-.026.033-.036a.356.356 0 0 1 .032-.017c.006-.005.01-.015.017-.019s.034-.008.047-.017.02-.027.033-.036c.041-.028.089-.043.129-.072.019-.013.03-.038.049-.054s.022-.011.032-.019.01-.013.016-.017.023-.011.033-.019.019-.026.032-.036.023-.009.033-.017a.866.866 0 0 1 .064-.072c.04-.03.089-.042.129-.072s.049-.066.08-.09c.013-.011.035 0 .049-.009s0-.019 0-.027a.067.067 0 0 1 .016-.027l.016-.009c.044-.046.085-.1.129-.144l.016-.009a.349.349 0 0 0 .024-.036.263.263 0 0 1 .04-.044c.01-.008.023-.011.033-.019s.019-.026.032-.036.023-.009.032-.017a.49.49 0 0 0 .081-.082c.015-.02.018-.05.032-.071s.019-.009.024-.017.007-.038.016-.055a.407.407 0 0 1 .04-.054l.024-.036c.009-.012.045-.046.063-.071a.229.229 0 0 0 .016-.036c0-.007.012-.011.017-.019s.007-.025.016-.035c.029-.039.065-.07.1-.109.008-.009.008-.024.016-.035s.023-.024.033-.036l.007-.019c.012-.013.03-.02.04-.036s.007-.038.016-.054.036-.032.049-.054.03-.072.047-.107c0-.008.012-.011.017-.019s.008-.024.016-.035.023-.023.032-.036a.1.1 0 0 0 .016-.036c.007-.035.008-.071.016-.107a.265.265 0 0 1 .016-.054c.01-.024.023-.047.032-.071s.007-.05.016-.072c0-.007.015-.009.016-.017.01-.059.007-.119.016-.178 0-.013.013-.023.016-.036a1.394 1.394 0 0 0 .022-.224 1.845 1.845 0 0 0-.026-.259c0-.012-.015-.021-.017-.035-.01-.071-.01-.144-.017-.215a.538.538 0 0 0-.017-.089c0-.008-.013-.011-.016-.019-.025-.058-.043-.119-.067-.177a1.02 1.02 0 0 0-.049-.107c0-.008-.013-.009-.017-.017-.013-.04-.019-.085-.033-.125a.285.285 0 0 0-.033-.071c-.013-.021-.039-.031-.049-.054a.544.544 0 0 1-.017-.089c0-.009-.012-.012-.017-.019s-.007-.026-.016-.035-.041-.032-.057-.054-.013-.038-.024-.054-.036-.032-.05-.052-.018-.05-.032-.071-.024-.023-.034-.036-.008-.024-.016-.035-.012-.011-.016-.019-.013-.038-.025-.052-.029-.021-.04-.036a.5.5 0 0 1-.024-.044c-.01-.011-.024-.015-.033-.027a.184.184 0 0 1-.025-.052c0-.017 0-.039-.009-.054s-.016 0-.023 0a.059.059 0 0 1-.026-.017c-.013-.019-.017-.046-.032-.063s-.035-.013-.05-.026a.121.121 0 0 1-.024-.036c-.007-.017-.006-.039-.017-.054a.644.644 0 0 0-.089-.106c-.022-.021-.053-.03-.074-.054s-.018-.05-.033-.071a.617.617 0 0 0-.073-.079l-.016-.009c-.01-.009-.016-.024-.026-.035-.074-.085-.154-.162-.227-.248-.011-.012-.013-.032-.026-.044s-.022-.011-.032-.017a.175.175 0 0 1-.025-.027.247.247 0 0 0-.024-.044c-.022-.024-.051-.039-.073-.063s-.009-.025-.017-.035a.536.536 0 0 0-.04-.036.346.346 0 0 1-.024-.035.446.446 0 0 0-.041-.044l-.016-.009a.343.343 0 0 1-.024-.035c-.032-.036-.068-.068-.1-.106-.007-.011-.01-.025-.016-.036a.086.086 0 0 0-.025-.027c-.015-.008-.033-.009-.049-.017s-.01-.012-.016-.017-.023-.009-.033-.017a.26.26 0 0 1-.04-.044c-.007-.011-.01-.025-.017-.036a.114.114 0 0 0-.024-.026c-.01-.008-.023-.011-.033-.017s-.021-.026-.033-.036l-.016-.008c-.01-.011-.016-.025-.024-.036a.5.5 0 0 0-.074-.08c-.013-.011-.033-.008-.047-.016a.1.1 0 0 1-.025-.027.256.256 0 0 0-.024-.044c-.009-.011-.023-.009-.033-.019a.849.849 0 0 1-.073-.079c-.01-.011-.015-.025-.024-.036s-.023-.009-.033-.017-.041-.043-.066-.062-.034-.013-.049-.027-.007-.026-.016-.035a.259.259 0 0 0-.049-.044.354.354 0 0 1-.05-.027c-.018-.017-.03-.043-.049-.062s-.022-.011-.033-.017-.01-.013-.016-.017a.677.677 0 0 1-.073-.044c-.012-.011-.013-.032-.024-.044s-.023-.009-.033-.017-.03-.039-.049-.054a1.086 1.086 0 0 1-.09-.062c-.012-.012-.012-.033-.024-.044a.531.531 0 0 0-.066-.036c-.006 0-.01-.012-.016-.017s-.023-.008-.033-.017c-.029-.027-.051-.063-.081-.089s-.052-.023-.073-.044-.012-.039-.024-.054-.034-.015-.05-.025a.245.245 0 0 1-.024-.027c-.01-.013-.012-.034-.024-.044s-.034-.008-.048-.017-.03-.038-.049-.054-.023-.009-.033-.017-.01-.013-.016-.017-.023-.009-.033-.017-.021-.027-.033-.036-.033-.016-.049-.026-.01-.013-.016-.019a.753.753 0 0 1-.09-.052c-.01-.008-.008-.025-.016-.036a.225.225 0 0 0-.041-.044c-.015-.009-.035-.007-.049-.017s-.041-.05-.065-.07-.045-.021-.064-.036a.291.291 0 0 1-.033-.035l-.017-.009c-.011-.011-.018-.027-.032-.035a.7.7 0 0 0-.066-.027l-.008-.008a.141.141 0 0 0-.024-.036c-.019-.015-.045-.02-.064-.035s-.021-.025-.033-.035-.034-.015-.049-.027-.03-.039-.049-.054-.035-.007-.049-.017-.041-.051-.066-.071-.033-.009-.048-.017l-.009-.008c-.006-.012-.01-.025-.016-.036a.119.119 0 0 0-.024-.027c-.032-.02-.067-.032-.1-.052-.006 0-.01-.013-.016-.017s-.023-.009-.033-.017-.021-.025-.033-.036-.023-.008-.033-.017c-.034-.032-.061-.075-.1-.106-.013-.012-.033-.011-.049-.017a.614.614 0 0 1-.081-.044c-.013-.009-.019-.027-.033-.035a.556.556 0 0 0-.064-.027c-.007 0-.01-.013-.017-.017s-.045-.02-.064-.035-.019-.027-.033-.036-.033-.009-.048-.017a.161.161 0 0 1-.033-.026c-.012-.013-.017-.036-.033-.046s-.044-.008-.064-.017-.01-.012-.016-.017a.266.266 0 0 1-.033-.017c-.007 0-.01-.013-.017-.017s-.022-.009-.032-.017-.019-.028-.033-.036a.368.368 0 0 0-.066-.016l-.007-.009c-.01-.015-.012-.035-.025-.044a.434.434 0 0 0-.08-.035.617.617 0 0 1-.09-.063c-.011-.008-.012-.028-.024-.035s-.056-.012-.081-.025-.021-.025-.033-.036-.022-.009-.032-.017-.01-.013-.017-.017a.261.261 0 0 0-.033-.017c-.006-.005-.01-.013-.016-.017s-.044-.023-.064-.036-.01-.013-.017-.017a.775.775 0 0 0-.1-.052c-.016-.008-.034-.008-.049-.017s-.03-.04-.049-.054-.034-.008-.048-.017-.019-.027-.033-.035-.056-.021-.081-.035c-.007 0-.01-.015-.017-.019-.026-.016-.055-.026-.08-.043s-.019-.028-.033-.036c-.041-.024-.087-.039-.13-.062-.007 0-.01-.013-.017-.017-.032-.02-.066-.034-.1-.052-.006 0-.009-.015-.016-.019s-.044-.009-.066-.016a.11.11 0 0 1-.032-.019c-.007 0-.01-.013-.017-.017a.922.922 0 0 1-.13-.052c-.032-.021-.049-.066-.081-.089a.5.5 0 0 0-.1-.035.425.425 0 0 1-.064-.035c-.007-.005-.01-.013-.017-.017a.112.112 0 0 0-.032-.019c-.022-.007-.045-.008-.066-.016s-.01-.015-.016-.019-.033-.009-.049-.017-.01-.012-.017-.017-.022-.011-.031-.017-.011-.013-.017-.017a.437.437 0 0 0-.064-.035c-.016-.008-.034-.009-.049-.017s-.011-.013-.017-.019-.022-.009-.033-.017-.008-.015-.016-.017-.044-.008-.064-.017-.01-.013-.017-.017c-.032-.02-.065-.032-.1-.052-.013-.009-.019-.028-.033-.036s-.045-.013-.064-.025-.03-.034-.049-.044c-.063-.039-.131-.068-.2-.106-.006 0-.01-.013-.016-.017-.038-.02-.078-.031-.114-.054-.013-.008-.021-.026-.033-.035a.106.106 0 0 0-.032-.017c-.022-.008-.045-.009-.065-.017a.277.277 0 0 1-.064-.035c-.019-.015-.029-.04-.05-.054-.046-.031-.1-.048-.146-.079-.008-.005-.007-.021-.016-.027s-.035-.007-.049-.017c-.035-.026-.064-.06-.1-.089-.01-.008-.022-.011-.032-.017s-.011-.013-.017-.017a.987.987 0 0 1-.09-.062c-.011-.011-.013-.032-.024-.044s-.023-.009-.032-.019c-.024-.02-.041-.05-.066-.07s-.052-.026-.073-.044-.013-.032-.026-.044-.023-.009-.032-.017c-.029-.028-.051-.064-.081-.089-.015-.012-.034-.011-.049-.017l-.009-.009a.316.316 0 0 0-.017-.036.121.121 0 0 0-.024-.027.44.44 0 0 1-.049-.025.227.227 0 0 1-.024-.036.523.523 0 0 0-.057-.062c-.015-.012-.033-.016-.049-.027s-.011-.012-.017-.017-.022-.016-.032-.027a.729.729 0 0 1-.074-.079c-.007-.009-.008-.025-.016-.036s-.036-.032-.05-.052a.728.728 0 0 0-.033-.071c-.023-.034-.056-.058-.081-.089-.01-.013-.013-.032-.024-.044s-.029-.015-.041-.027-.008-.025-.016-.036a.243.243 0 0 0-.024-.027c-.013-.009-.03-.012-.041-.025s-.019-.05-.033-.071a.082.082 0 0 0-.024-.027.258.258 0 0 0-.033-.017.164.164 0 0 1-.024-.027c0-.008 0-.019-.007-.027a.524.524 0 0 0-.041-.062c-.015-.02-.036-.032-.049-.054s-.017-.062-.033-.089-.029-.023-.041-.036a.063.063 0 0 1-.016-.027c-.011-.026-.016-.054-.026-.079l-.008-.009-.016-.009a.34.34 0 0 1-.024-.035c-.01-.013-.024-.021-.033-.035s-.021-.05-.033-.072a.4.4 0 0 0-.041-.062c0-.005-.012 0-.016-.008-.011-.023-.015-.05-.024-.072 0-.007-.012-.011-.017-.017-.012-.023-.021-.048-.033-.071 0-.007-.012-.011-.016-.017a.122.122 0 0 1-.017-.036c-.007-.028-.007-.06-.017-.089 0-.008-.011-.011-.016-.017s-.01-.025-.017-.036-.011-.011-.016-.017-.01-.024-.017-.036-.012-.009-.016-.017a.45.45 0 0 0-.017-.054c-.007-.013-.024-.021-.032-.035a.766.766 0 0 1-.05-.107c-.007-.017-.01-.036-.017-.054a.417.417 0 0 0-.033-.071c0-.007-.013-.009-.016-.017s-.01-.048-.017-.071-.012-.023-.016-.036-.01-.048-.017-.071-.024-.046-.033-.071-.01-.048-.017-.071a.233.233 0 0 0-.016-.036c0-.007-.015-.009-.017-.017-.011-.038-.012-.079-.024-.115-.007-.017-.026-.028-.033-.044a.572.572 0 0 1-.041-.107c-.01-.035-.009-.072-.017-.107s-.024-.059-.033-.089c-.018-.059-.036-.118-.05-.178-.01-.04-.009-.085-.017-.125 0-.008-.015-.009-.017-.017-.019-.071-.029-.145-.05-.215 0-.008-.015-.009-.016-.017-.013-.079-.021-.2-.035-.3 0-.019-.013-.035-.016-.054-.009-.047-.009-.1-.017-.143 0-.012-.013-.023-.017-.035a.355.355 0 0 1-.017-.071c-.015-.154-.019-.31-.035-.464 0-.019-.016-.035-.017-.054a77.485 77.485 0 0 1-.038-.8c0-.012.01-.024.009-.036s-.018-.04-.017-.062a.7.7 0 0 1 .023-.134.3.3 0 0 1 .016-.036.251.251 0 0 0 .016-.072c0-.1-.01-.2-.01-.294s0-.2.006-.3c0-.024.013-.047.016-.071.007-.09 0-.18.013-.268 0-.025.023-.047.024-.072s-.017-.035-.017-.054a.568.568 0 0 1 .024-.107.861.861 0 0 0 .032-.089.486.486 0 0 0-.008-.072.351.351 0 0 1 .007-.071c0-.019.013-.035.016-.054.008-.059.006-.119.015-.178a.2.2 0 0 1 .017-.036c.011-.042.018-.085.03-.126 0-.012.013-.023.016-.035.013-.047.019-.1.032-.144a.188.188 0 0 1 .016-.036c0-.007.012-.011.017-.017s.008-.025.016-.036.013-.009.016-.017c.013-.054.018-.109.032-.161a.82.82 0 0 1 .032-.107.465.465 0 0 1 .032-.072c0-.007.013-.011.016-.017.008-.023.007-.05.016-.072s.013-.009.016-.017a.7.7 0 0 0 .016-.072c.01-.029.023-.059.032-.089.013-.048.019-.1.031-.143a.159.159 0 0 1 .016-.036c0-.007.013-.011.017-.017s.007-.038.015-.054.013-.011.017-.019c.013-.034.018-.072.031-.107 0-.008.012-.011.016-.017.012-.03.019-.062.032-.09 0-.008.012-.011.016-.019a.126.126 0 0 0 .016-.035c.007-.024.009-.048.016-.072.015-.042.03-.085.049-.125 0-.008.012-.011.016-.019.012-.028.018-.06.032-.089 0-.008.012-.011.016-.019.023-.052.045-.106.064-.161a.644.644 0 0 1 .015-.071c.007-.016.024-.023.033-.036a.845.845 0 0 0 .047-.109c.009-.023.007-.048.016-.071a1.047 1.047 0 0 1 .047-.107c0-.008.012-.011.017-.017a.235.235 0 0 0 .016-.036c.006-.024.009-.048.016-.072s.012-.023.016-.035a.473.473 0 0 1 .016-.072c.006-.015.023-.021.032-.036a.126.126 0 0 0 .016-.035c.007-.024.01-.048.016-.072a.178.178 0 0 1 .016-.035c0-.008.012-.011.016-.019s.01-.025.017-.036.025-.02.031-.035.007-.05.016-.072c0-.007.012-.011.016-.017.012-.023.018-.05.032-.072s.026-.02.033-.035.006-.05.016-.072.023-.023.032-.036.008-.024.016-.035.024-.023.033-.036a.471.471 0 0 0 .032-.072c.006-.017.009-.036.016-.054s.013-.009.016-.017c.018-.047.029-.1.047-.144 0-.008.012-.011.016-.019s.01-.024.017-.035.012-.011.016-.019c.018-.04.025-.087.047-.125s.045-.046.064-.072a.106.106 0 0 0 .016-.036c.007-.028.007-.06.016-.088 0-.008.012-.011.016-.019a.442.442 0 0 1 .016-.054c.012-.021.038-.031.049-.054s0-.063.016-.09.052-.056.072-.09a.7.7 0 0 0 .023-.071c0-.008.012-.011.017-.019s.008-.024.016-.035.023-.023.032-.036.018-.05.032-.072.036-.032.048-.054a.382.382 0 0 0 .016-.054c0-.008.013-.011.016-.017s.009-.038.016-.054.012-.012.017-.019.008-.025.016-.036a.634.634 0 0 0 .047-.054c.023-.036.034-.081.056-.117.007-.012.026-.013.033-.027s.013-.06.023-.09l.009-.008a.325.325 0 0 0 .04-.028c.009-.009.01-.024.016-.035s.012-.011.016-.019.009-.025.016-.036a.87.87 0 0 0 .064-.071c.016-.027.016-.063.033-.09s.045-.046.063-.072.024-.055.04-.08l.016-.009a.238.238 0 0 0 .04-.054.83.83 0 0 0 .049-.107c.006-.017.008-.036.016-.054l.007-.009c.013-.009.03-.013.04-.027s.013-.038.024-.054.018-.011.024-.019.013-.031.024-.044.023-.016.032-.027.013-.038.024-.054.039-.047.056-.072.015-.036.024-.054a.344.344 0 0 1 .04-.063c.011-.012.029-.015.04-.027s.008-.025.016-.036a.1.1 0 0 1 .024-.027c.01-.008.022-.011.032-.019a.082.082 0 0 0 .024-.027c.009-.016.006-.039.016-.054.023-.034.055-.059.08-.09a.353.353 0 0 0 .024-.036l.024-.036c.009-.012.034-.034.047-.054s.034-.068.056-.1c.011-.013.03-.015.041-.028s.008-.024.016-.035.023-.023.032-.036.008-.026.016-.036.023-.023.033-.036.008-.024.016-.035a.105.105 0 0 1 .024-.028.357.357 0 0 0 .032-.017.122.122 0 0 0 .024-.027c.007-.011.009-.026.016-.036a.1.1 0 0 1 .024-.027c.015-.011.035-.013.049-.027s.013-.038.023-.055a.124.124 0 0 1 .024-.027.3.3 0 0 1 .049-.017l.009-.009a.655.655 0 0 1 .056-.1c.012-.015.033-.015.049-.027s0-.013.007-.017c.025-.032.056-.058.08-.09.009-.011.009-.026.016-.036a.277.277 0 0 1 .04-.046c.01-.008.023-.009.033-.017s.041-.051.064-.073.029-.013.04-.027.011-.04.023-.054.034-.016.048-.027.01-.013.017-.019.023-.009.032-.017.04-.052.064-.072.033-.009.049-.019a.235.235 0 0 0 .056-.044c.011-.013.012-.034.024-.046s.045-.027.064-.046.018-.034.032-.044.056-.027.081-.046c0 0 0-.012.007-.017a.555.555 0 0 1 .073-.082c.013-.011.034-.007.047-.017.041-.032.074-.075.113-.109.01-.008.023-.009.033-.017s.019-.027.032-.036.022-.011.033-.019.01-.012.016-.017.022-.011.032-.019.019-.027.033-.035c.03-.021.066-.035.1-.055.007 0 .01-.013.017-.017a.453.453 0 0 1 .064-.038.347.347 0 0 0 .049-.017c.012-.009.019-.027.032-.036s.045-.02.064-.036.017-.035.032-.046.057-.019.081-.036.017-.034.032-.044a.56.56 0 0 1 .081-.036c.006 0 .009-.013.016-.019s.022-.011.032-.017.01-.013.017-.019.022-.011.032-.017.01-.015.016-.019.044-.009.066-.017a.616.616 0 0 1 .08-.036c.011 0 .022.011.032.008s0-.013 0-.017a.449.449 0 0 1 .049-.028c.007 0 .01-.013.016-.017s.023-.011.033-.019.008-.015.016-.017c.027-.009.055-.009.081-.019.007 0 .01-.013.016-.017s.022-.011.031-.019.01-.013.017-.017a.1.1 0 0 1 .032-.019c.035-.009.07-.008.106-.019.008 0 .015-.013.024-.017s.033-.011.047-.019.01-.013.016-.017c.022-.015.045-.023.066-.036s.009-.015.016-.019c.036-.015.076-.021.113-.036s.042-.025.064-.036a.216.216 0 0 1 .049-.019c.032-.008.064-.011.1-.019s.086-.021.129-.036.053-.027.08-.036.044-.011.066-.019.019-.015.032-.019c.069-.015.141-.019.21-.036.023-.007.041-.028.064-.036a.273.273 0 0 1 .064-.019c.053-.009.108-.009.161-.02.033-.005.064-.023.1-.027s.044.009.064.008a.242.242 0 0 0 .066-.019c.011 0 .019-.015.032-.017.049-.011.1-.011.146-.019a.4.4 0 0 1 .064-.019 4.756 4.756 0 0 1 .534-.006c.009 0 .016.011.024.009s.026-.019.04-.019.032.019.049.017.047-.017.073-.017.036.015.056.017.022-.009.033-.009.01.009.016.008.038-.016.057-.017a.108.108 0 0 1 .04.008.624.624 0 0 0 .081.035c.064.012.13.007.194.016.012 0 .021.015.033.017.063.015.13.02.194.035a1.427 1.427 0 0 1 .177.052c.007 0 .01.015.017.017s.044.009.064.017.022.013.033.017a.563.563 0 0 1 .064.017.131.131 0 0 1 .033.027c.011.008.019.021.033.026.047.019.1.021.146.044.016.007.018.035.033.044.035.023.078.031.113.052.013.008.022.026.033.035l.017.009c.012.013.017.035.032.044s.045.009.066.017a.113.113 0 0 1 .033.017c.017.016.032.036.049.054l.016.008a.221.221 0 0 1 .033.036l.024.035c.029.034.058.067.09.1.01.008.023.009.033.017a.611.611 0 0 1 .073.079c.009.011.01.025.017.036s.023.021.033.035.023.058.04.081.032.012.041.027a.919.919 0 0 1 .033.089c.007.015.023.023.033.036s.008.024.016.035.024.021.033.036c.019.034.032.072.05.106 0 .008.012.011.016.017a.616.616 0 0 1 .033.09c.007.023.009.048.017.071a.843.843 0 0 0 .05.107c0 .007.011.009.016.017a.133.133 0 0 1 .017.035c.007.036.007.072.016.107 0 .008.013.011.017.017s.01.036.017.054a.743.743 0 0 1 .033.071c.017.094.019.192.034.286a.933.933 0 0 0 .033.142c0 .009.016.009.017.019.006.067.012.29.018.357 0 .008.016.009.016.017 0 .064.01.227.011.339s0 .227-.006.339c0 .009-.008.017-.007.027s.013.03.016.044-.006.012-.007.019c-.007.064-.007.131-.015.2 0 .025-.015.048-.016.072-.008.125 0 .251-.013.376 0 .013-.015.023-.016.035-.008.054-.008.109-.016.161s-.018.121-.032.18c0 .012-.012.023-.016.035-.017.071-.034.144-.046.216s-.018.144-.032.215c0 .012-.012.023-.016.035-.017.059-.033.119-.047.18s-.019.1-.032.144a.888.888 0 0 1-.039.134c-.006.013-.028.013-.033.027s0 .042 0 .062a1.241 1.241 0 0 1-.023.135c0 .008-.012.011-.017.017s-.008.024-.016.036-.013.009-.016.017c-.013.04-.02.085-.032.126 0 .012-.012.023-.016.035-.017.054-.03.109-.047.161 0 .013-.012.024-.016.036-.012.042-.017.085-.032.125s-.046.1-.064.145c-.008.021-.007.048-.016.071s-.011.011-.016.017c-.012.024-.019.05-.032.072 0 .007-.012.011-.016.017a.157.157 0 0 0-.016.036c-.007.023-.007.048-.016.071s-.013.011-.016.019c-.019.047-.03.1-.049.143 0 .007-.012.011-.016.017s-.008.036-.016.054-.012.011-.016.019-.009.036-.016.054-.012.011-.016.017-.01.025-.016.036-.013.009-.017.017-.009.048-.015.072a.178.178 0 0 1-.016.035.733.733 0 0 0-.057.082c-.012.024-.011.056-.023.08s-.034.034-.049.054a.32.32 0 0 0-.016.036c0 .007-.012.009-.016.017-.016.035-.022.074-.04.107s-.04.046-.056.072-.019.048-.032.071-.012.011-.016.019-.021.048-.033.071-.012.011-.016.019a.453.453 0 0 1-.016.054c-.012.021-.035.034-.049.054a.422.422 0 0 0-.032.072.258.258 0 0 1-.016.052c-.017.028-.047.044-.064.072a.688.688 0 0 0-.032.09l-.009.009-.016.008c-.008.011-.015.026-.024.036s-.045.046-.063.072a.324.324 0 0 0-.017.036c0 .007-.011.011-.016.017s0 .019-.007.027-.023.03-.033.046a.59.59 0 0 1-.032.062c0 .005-.012.005-.016.009a.274.274 0 0 0-.04.054c-.009.017 0 .04-.016.054-.049.066-.112.117-.16.181-.016.02-.018.05-.033.071a.172.172 0 0 1-.04.046c-.012.011-.029.015-.04.027s-.009.025-.016.036-.034.034-.047.054a.319.319 0 0 0-.017.036c0 .007-.012.009-.016.017s-.008.036-.016.054l-.007.009c-.016.008-.034.008-.049.017a.075.075 0 0 0-.024.028c-.007.011-.008.025-.016.035a.276.276 0 0 1-.04.046c-.012.011-.029.015-.04.027s-.009.026-.017.036a.433.433 0 0 1-.056.063l-.016.009c-.01.009-.015.024-.024.035a.341.341 0 0 1-.04.046c-.012.011-.029.015-.04.027s-.009.026-.016.036a.122.122 0 0 1-.024.027c-.01.008-.023.009-.032.019s-.029.044-.048.062-.034.016-.049.028a.5.5 0 0 0-.047.044.345.345 0 0 0-.033.028c-.033.033-.062.074-.1.107-.01.009-.023.011-.033.019s-.018.028-.032.035a.384.384 0 0 1-.064.019l-.008.009c-.006.011-.009.025-.016.036s-.013.023-.024.027c-.052.017-.109.02-.161.036-.023.008-.041.029-.064.036-.043.012-.087.008-.129.02-.018 0-.032.023-.049.027s-.022-.009-.033-.008c-.057 0-.113.009-.17.009s-.113 0-.17-.007c-.017 0-.032-.015-.049-.017s-.066-.008-.1-.017a.433.433 0 0 1-.08-.035c-.007 0-.01-.015-.017-.017s-.033-.009-.049-.017-.01-.015-.016-.019-.034-.009-.05-.017a.535.535 0 0 1-.1-.052c-.036-.031-.064-.072-.1-.106l-.017-.009a.918.918 0 0 1-.081-.115c-.013-.024-.013-.055-.024-.081 0-.007-.013-.009-.017-.017a.723.723 0 0 1-.049-.125 1.234 1.234 0 0 1-.034-.178c0-.007.008-.011.008-.017s-.008-.024-.008-.036.01-.017.007-.027-.021-.04-.024-.062a2.842 2.842 0 0 1-.027-.259.3.3 0 0 1 .008-.08c.007-.038.027-.07.032-.107.011-.107.006-.215.013-.322s.018-.224.03-.3c0-.008.012-.011.016-.017s.01-.025.016-.036.013-.011.017-.017c.012-.035.018-.074.032-.107 0-.008.012-.011.016-.019s.019-.048.032-.071.012-.012.016-.019a.1.1 0 0 0 .016-.036c.007-.028.009-.059.016-.089a.12.12 0 0 1 .016-.036c.015-.02.039-.031.049-.054.017-.039.018-.085.032-.126 0-.007.012-.011.016-.017a.353.353 0 0 1 .024-.054c.011-.015.032-.019.04-.036a.7.7 0 0 0 .016-.09c0-.008.012-.011.016-.017.01-.023.012-.05.023-.072s.025-.02.033-.036.013-.06.023-.089c0-.008.012-.011.016-.019.018-.034.03-.072.049-.107 0-.007.013-.009.016-.017s.006-.05.016-.072.024-.021.032-.035.021-.05.033-.072c0-.007.013-.009.016-.017.009-.035.006-.072.016-.107a.269.269 0 0 1 .032-.072c.008-.013.025-.02.031-.036.016-.034.018-.072.032-.107 0-.008.012-.011.016-.017.012-.023.021-.05.033-.072 0-.007.012-.011.016-.017.01-.023.015-.048.023-.073s.025-.06.04-.089c0-.008.012-.011.016-.019a.527.527 0 0 0 .033-.071c0-.012 0-.024.007-.036a.6.6 0 0 0 .032-.063c.017-.055.023-.114.04-.17 0-.008.013-.009.016-.017a.881.881 0 0 0 .032-.125c.008-.048.006-.1.015-.144 0-.008.012-.011.017-.017a.106.106 0 0 0 .016-.036 1.936 1.936 0 0 0 .036-.264c0-.07 0-.138-.01-.205a.639.639 0 0 0-.017-.107.768.768 0 0 0-.033-.107c0-.008-.013-.011-.016-.017a.656.656 0 0 0-.017-.071c-.012-.023-.034-.035-.049-.054l-.009-.017a.148.148 0 0 0-.033-.036.441.441 0 0 0-.081-.044c-.036-.015-.076-.021-.113-.035-.012 0-.021-.015-.033-.017-.043-.008-.086-.008-.129-.016-.006 0-.011-.009-.017-.009s-.01.008-.016.009c-.049.008-.1.009-.146.019a.847.847 0 0 0-.129.038c-.007 0-.008.016-.017.017-.068.017-.14.024-.209.038a.287.287 0 0 0-.066.019c-.006 0-.01.013-.016.017s-.022.011-.032.019-.01.013-.017.017-.033.016-.047.028l-.008.017c-.01.013-.023.023-.032.036s-.015.031-.024.044l-.016.009a.371.371 0 0 0-.024.036.333.333 0 0 1-.04.044c-.012.011-.029.015-.04.027s-.009.025-.016.036a.532.532 0 0 1-.057.063l-.016.009c-.01.011-.015.024-.024.036a.219.219 0 0 1-.04.044c-.015.012-.034.016-.049.028a.167.167 0 0 0-.023.035c-.007.012-.01.026-.016.036a.119.119 0 0 1-.024.027c-.01.008-.023.011-.033.019a.443.443 0 0 0-.032.036l-.016.008a.44.44 0 0 0-.033.036.364.364 0 0 1-.024.036c-.01.013-.022.023-.032.036a.5.5 0 0 1-.024.044c-.027.031-.062.051-.089.082-.008.009-.008.024-.016.035s-.012.012-.016.019a.7.7 0 0 1-.04.08c-.007.011-.022.011-.032.019a.082.082 0 0 0-.024.027c-.01.013-.012.034-.024.044s-.034.015-.049.028a.112.112 0 0 0-.023.035.332.332 0 0 1-.017.036c-.018.027-.044.047-.063.072s-.013.032-.024.044-.029.015-.04.027-.008.026-.016.036-.023.023-.033.036l-.007.017c-.018.02-.04.034-.057.055s0 .019-.007.027a.674.674 0 0 1-.04.063c-.023.031-.051.058-.073.09-.01.016-.012.038-.023.054a.536.536 0 0 1-.04.036.24.24 0 0 0-.04.054.376.376 0 0 0-.016.054l-.009.009c-.016.009-.033.016-.049.027a.052.052 0 0 0-.016.017c-.015.03-.024.062-.04.09 0 .008-.011.011-.016.019s-.008.024-.016.035-.023.023-.033.036-.022.056-.039.08-.023.011-.033.019a.1.1 0 0 0-.024.027c-.011.023-.011.05-.023.071s-.023.017-.033.028a.265.265 0 0 0-.04.044c-.013.023-.017.051-.032.072s-.046.044-.064.071-.018.05-.032.073-.023.023-.032.036-.01.024-.017.035-.012.011-.016.019-.007.038-.016.054-.022.023-.032.036l-.009.017c-.012.013-.032.02-.04.036s0 .051-.016.071c-.021.036-.058.056-.08.09s-.011.051-.023.072-.032.02-.04.036-.019.06-.033.09c0 .007-.012.011-.016.017s-.013.038-.024.054-.023.023-.032.036a.262.262 0 0 0-.024.054c-.007.023-.007.048-.016.071s-.011.011-.016.019-.008.025-.016.036a.657.657 0 0 0-.049.054c-.008.016-.008.036-.016.054a.515.515 0 0 1-.032.071c0 .008-.012.011-.016.019-.023.052-.04.109-.063.161 0 .008-.013.011-.017.019a.437.437 0 0 1-.016.052c-.007.016-.026.021-.032.036a.688.688 0 0 0-.016.072.176.176 0 0 1-.016.035c0 .008-.013.011-.016.019-.022.055-.034.115-.056.17-.007.019-.023.034-.032.054-.021.05-.04.1-.056.152-.008.03-.006.062-.016.09s-.033.071-.047.107c-.007.017-.008.038-.016.054s-.013.011-.016.019c-.008.03-.006.06-.016.09-.017.05-.05.091-.064.143s-.017.131-.03.2c0 .013-.012.023-.016.036-.012.047-.019.1-.032.143 0 .012-.012.023-.016.035a.5.5 0 0 0-.016.072c-.006.042-.007.083-.016.125s-.024.083-.032.126 0 .107-.015.161c0 .008-.015.009-.016.017-.01.071-.007.144-.015.215 0 .046-.022.089-.024.134 0 .019.017.035.017.054s-.016.028-.016.044.015.023.016.036-.007.011-.007.017q-.007.081-.007.161c0 .054 0 .107.01.161 0 .007.008.011.008.017s-.015.03-.016.044.007.019.007.027c.008.1.008.192.018.286a3.5 3.5 0 0 0 .034.232c.009.048.025.1.034.143.015.089.018.178.034.267 0 .008.012.011.016.019s.019.048.033.07.027.021.033.036.007.05.017.071.024.021.033.036.019.048.033.071c0 .007.012.009.016.017s.01.024.017.035.012.011.016.017.01.025.017.036.024.021.033.036c.022.039.033.086.057.123s.04.034.057.054.008.025.016.036.023.021.033.035l.009.017c.012.013.032.02.04.036s.008.048.017.071a.082.082 0 0 0 .024.027.371.371 0 0 1 .033.017.092.092 0 0 1 .024.025c.01.017.015.038.024.054l.017.009a.374.374 0 0 1 .057.062c.01.016.006.039.016.054a.311.311 0 0 0 .057.052c.011.011.023.017.033.027a.664.664 0 0 1 .057.063c.007.009.009.025.017.035a.626.626 0 0 0 .073.08c.012.011.029.013.04.025s.015.032.025.044.022.011.032.019a.119.119 0 0 1 .025.026c.006.011.007.027.016.036a1.937 1.937 0 0 0 .138.15c.009.009.023.009.033.017s.021.032.033.044a.33.33 0 0 0 .033.027c.013.015.028.028.04.044l.008.017c.017.02.04.034.057.054s.008.026.016.036a.2.2 0 0 0 .041.044c.015.009.034.007.049.017a.189.189 0 0 1 .04.044l.008.017a.515.515 0 0 0 .049.044c.029.023.062.039.09.062 0 0 0 .015.009.017s.035.007.049.017 0 .019 0 .027a.061.061 0 0 0 .049.054c.022.008.044.009.066.017l.007.008a.321.321 0 0 0 .017.036c.015.02.034.035.049.054l.008.017c.01.011.022.016.033.027s.019.027.033.035c.03.022.067.031.1.054.013.009.021.031.033.044a.4.4 0 0 0 .049.044c.01.007.022.009.033.017s.01.013.016.017.044.021.066.035c.006 0 .01.013.016.017s.023.009.033.017.021.025.032.036.03.015.041.027.011.035.024.044.044.008.065.017c.006 0 .01.013.016.017s.034.015.049.027a.422.422 0 0 1 .033.035 1.266 1.266 0 0 0 .114.106c.019.015.045.013.064.027s.021.025.033.035.023.011.033.017.01.013.016.017.023.009.033.019.03.038.049.052.023.009.033.017.018.029.033.036.056.005.081.017.019.026.031.035.023.011.033.017.01.015.016.017.034.009.049.017.011.013.017.019a.339.339 0 0 1 .049.025c.013.012.018.035.033.044a.573.573 0 0 0 .081.035c.006 0 .01.015.016.019s.034.007.049.017.019.027.033.035a.5.5 0 0 0 .049.017c.007 0 .01.013.016.017l.033.017c.01.006.01.016.017.019a.51.51 0 0 1 .064.017c.013.007.019.027.033.035s.034.008.049.017.051.052.081.071.044.008.064.017.01.013.017.017.045.02.064.035.029.042.049.054.045.008.065.017.01.013.016.017.045.021.066.035.01.015.016.017.034.009.049.017.01.015.017.019c.03.016.066.025.1.043.016.009.026.027.04.036s.05.015.073.026c.007 0 .01.015.017.017.025.015.055.021.081.036.006 0 .008.013.016.017.026.012.055.013.081.026.007 0 .01.013.016.017.027.017.055.028.081.044.006 0 .01.015.016.017.027.015.056.021.081.036.007 0 .01.013.017.017.063.032.132.051.194.087.021.012.032.038.049.054s.023.009.033.017.01.015.016.017c.022.009.044.009.066.017l.007.009c.01.013.012.034.026.044s.055.02.08.035a.52.52 0 0 1 .09.062c.011.009.013.028.024.035s.056.02.081.036.03.032.049.043.056.021.081.036c.007 0 .01.012.017.017s.022.009.032.017.021.027.033.035a.4.4 0 0 0 .065.036.43.43 0 0 1 .049.017.262.262 0 0 1 .056.044s0 .013.008.017c.021.012.045.013.066.025s.021.026.033.036.023.009.032.017.03.039.05.054.044.02.064.035.032.032.049.044a.773.773 0 0 1 .09.052c.013.013.011.042.024.054a.444.444 0 0 0 .081.044c.006 0 .01.013.016.017a.254.254 0 0 1 .033.017c.012.011.021.025.033.036s.023.009.033.017.032.036.049.052l.016.009c.012.013.018.034.033.044s.057.017.081.035.03.038.049.054.017 0 .024.008c.042.034.08.074.123.106.014.012.033.016.049.027s.01.013.016.017.023.009.033.017.021.027.033.036.034.013.049.026.019.032.033.046.023.008.033.017c.034.032.061.075.1.106a.622.622 0 0 0 .064.035c.007 0 .011.013.017.017s.023.011.033.019a.114.114 0 0 1 .024.025c.01.015.012.035.024.044s.035.005.049.019c.064.059.115.135.18.195.013.012.034.008.049.017a.1.1 0 0 1 .024.027c.01.013.012.032.024.044s.034.015.048.025 0 .013.009.019a1.942 1.942 0 0 0 .138.15c.022.02.051.027.073.044 0 0 0 .013.009.017s.023.016.033.027.021.031.033.044.04.034.057.054.009.024.016.035a.124.124 0 0 0 .024.027c.01.008.024.009.033.017.029.03.051.068.081.1s.051.032.073.052l.008.019c.012.013.029.02.041.035s.015.031.024.044l.016.009c.013.016.018.039.033.052s.052.032.073.054.01.025.017.036a.665.665 0 0 0 .057.062s.013 0 .016.008.006.039.017.054.017 0 .024 0a.073.073 0 0 1 .033.017c.009.009.009.026.016.036.03.038.068.068.1.106.007.009.008.024.016.035s.023.023.033.036.009.025.017.036c.046.055.1.1.146.158.009.011.01.025.017.036a.436.436 0 0 0 .057.062c0 .005.013 0 .016.009.017.028.026.06.041.089s.023.023.033.036.009.024.017.035.034.033.048.054.009.025.016.035.036.032.049.054.007.039.017.054c.023.034.059.054.081.089a.929.929 0 0 1 .033.089c.008.015.024.023.033.036s.01.024.017.035.012.011.016.017.01.025.017.036.023.021.033.035.009.026.016.036.024.021.033.035.018.05.033.071.047.044.066.071.007.038.016.054.023.023.033.035.01.026.017.036.024.021.033.035.019.062.033.09c0 .007.012.011.016.017.012.023.021.048.033.071s.013.011.017.017c.012.03.019.062.033.09 0 .007.012.011.016.017.012.023.021.048.033.071 0 .007.013.011.017.017s.009.036.016.054a.443.443 0 0 0 .041.08c.009.012.027.013.033.027.018.038.024.085.041.125 0 .007.011.009.016.017s.01.024.017.035.012.011.016.019c.013.028.018.06.033.089s.025.021.033.035a.777.777 0 0 1 .05.125c.008.029.006.062.016.09.023.062.06.117.083.178.015.039.019.083.034.123a.457.457 0 0 0 .032.071c0 .008.015.011.017.019.015.046.019.1.033.142a.375.375 0 0 0 .034.071c0 .007.012.011.016.017a.678.678 0 0 1 .033.107c.01.047 0 .1.017.142.017.063.052.117.067.178.024.106.03.215.05.322 0 .012.012.023.017.035a1.54 1.54 0 0 1 .05.161c.01.047.008.1.017.142a1.151 1.151 0 0 0 .033.143c0 .008.013.009.017.017a.193.193 0 0 1 .016.054c.015.094.022.19.035.284 0 .007.008.012.007.019s-.016.023-.016.035a.841.841 0 0 0 .025.09c.023.13.044.26.059.393 0 .017-.008.035-.008.052-.012.129-.001.224.003.319zm34.739-12.461c.106-.569-1.08-.628-1.076-.063.003.45.986.559 1.076.063zm2.385.131a1.8 1.8 0 0 1-.989 1.785c-1.607 1.127-3 .537-4.138-.947a3.815 3.815 0 0 1 .164-3.243 2.553 2.553 0 0 1 .747-.641 2.708 2.708 0 0 1 2.467.059 3.485 3.485 0 0 1 1.608 2.408c.029.169.106.395.142.579zm-31.85 4.612c-.017 0-.033-.009-.049-.009a.184.184 0 0 0-.049.009c-.007 0-.01.015-.016.019s-.034.009-.049.017-.01.015-.016.019c-.032.02-.067.034-.1.054a.1.1 0 0 0-.024.028c-.007.011-.008.024-.016.035s-.023.023-.032.036a.121.121 0 0 0-.017.036.631.631 0 0 0-.023.134.384.384 0 0 0 .026.115c0 .008.012.011.016.019s.01.024.017.035a.24.24 0 0 0 .057.062.518.518 0 0 0 .154.079c.018.005.036-.017.056-.017s.032.015.049.017a.031.031 0 0 0 .017-.009c.011-.011.018-.027.032-.036.304-.202.519-.646-.033-.646zm-.024 3.555c-.019-.016-.028-.047-.049-.062s-.056-.019-.081-.035-.03-.032-.049-.044a.174.174 0 0 0-.049-.017c-.033-.008-.066-.008-.1-.017-.007 0-.01-.015-.017-.017s-.044-.008-.064-.017-.01-.013-.017-.017a.106.106 0 0 0-.032-.017c-.022-.008-.045-.008-.066-.017s-.008-.016-.016-.017c-.043-.011-.087-.007-.13-.017-.007 0-.008-.015-.016-.017-.075-.032-.153-.055-.227-.087-.007 0-.01-.013-.017-.017a2.435 2.435 0 0 1-1.1-1.34 4.148 4.148 0 0 1 .124-3.038c.178-.471.671-.731.963-1.116a.879.879 0 0 0 .064-.072.762.762 0 0 0 .032-.089c0-.008.012-.011.016-.019l.024-.054c.009-.018.011-.011.016-.017s.022-.021.024-.036a.62.62 0 0 0 .007-.117.366.366 0 0 0-.008-.115.167.167 0 0 0-.057-.062c-.01-.009-.023-.011-.033-.019s-.018-.031-.033-.035c-.427-.127-1.435-.059-1.719.417a4.049 4.049 0 0 0-.524 1.362 23.239 23.239 0 0 0-.2 4.861c.007 1.061.8 5.27 2.424 4.58.007 0 .01-.015.017-.017a.8.8 0 0 0 .1-.028c.016-.008.018-.034.033-.044a.62.62 0 0 1 .08-.036c.007 0 .01-.015.016-.019.026-.015.055-.021.081-.036.006 0 .009-.013.016-.017s.044-.023.064-.036.01-.013.016-.019a.4.4 0 0 0 .064-.036c.035-.032.063-.074.1-.107l.016-.009c.017-.02.029-.044.047-.063s.023-.009.033-.019.019-.031.032-.044.03-.02.04-.036c.021-.034.027-.075.049-.107a.546.546 0 0 1 .072-.082s.013 0 .016-.008.013-.039.024-.054.047-.044.064-.072c.649-1.105 1.029-2.886-.071-3.787zm34.171 11.708a6.8 6.8 0 0 1 .03-2.5c.448-3.1.954-6.319 1.333-9.462.154-1.288-.845.5-1.029.634-.964.694-1.42.66-2.31-.892-.3-.525-.827-.814-1.1-.044-.37.983-1.232 2.068-2.248 1.091-.376-.355-1.051-1.706-1.713-1.021-1.269 1.336-2.332 3.745-4.652 1.924-.306-.239-.556-.8-.867-.358a11.1 11.1 0 0 1-.971.973c-.713.8-2.688 2.038-3.66 1.576-.5-.235-.758-.9-1.327-.266a1.54 1.54 0 0 1-.9.464c-2.3.559-3.429-6.291-4.314-.777a2.607 2.607 0 0 1-1.061 1.875c-.546.237-1.12-.905-1.279-1.374-.134-.4-.67-3.629-1.357-2.15-.6 1.353-.243 2.895-.73 4.259a.987.987 0 0 1-1.776.337 5.121 5.121 0 0 1-.572-3.068c.032-.84-.2-2.606-1.095-2.858-.507-.131-.065 1.179-.055 1.484.11 2.6-.475 4.567-2.464 5.934-.013.008-.019.027-.033.035-.03.02-.065.028-.1.046-.007 0-.01.015-.016.019-.027.016-.053.032-.081.046s-.044.009-.064.017a.112.112 0 0 0-.032.019c-.007 0-.01.013-.017.017a.693.693 0 0 1-.129.072c-.046.019-.1.021-.144.038-.007 0-.01.013-.017.017a.306.306 0 0 1-.064.036c-.032.015-.065.021-.1.038-.006 0-.009.013-.016.017s-.033.009-.049.019-.008.013-.016.017a.438.438 0 0 1-.08.036c-1.829.621-3.106-2.059-3.542-3.641a27.932 27.932 0 0 1-.821-4.157 23.282 23.282 0 0 1-.07-5.43c.193-1.759 1.059-4.121 2.79-4.553 3.108-.774 4.4 2.567 4.667 5.115.154 1.441.732 1.347 1.64 2.086a2.423 2.423 0 0 1 .823.931c.317.943.727-.689.85-.936a3.692 3.692 0 0 1 .5-.826c1.69-1.9 2.418 1.788 3.146 1.447.789-.376.738-1.284 1.362-1.78 2.263-1.842 2.328 3.726 4.073 4.484.813.373.959-1.814 1.092-2.322.625-2.37 1.738-5.63 4.036-6.492a3.581 3.581 0 0 1 4.012 1.349c.539.92.773 1.936-.136 2.547-1.345.926-1.591-.569-2.641-.727a1.208 1.208 0 0 0-.9.2c-.866.557-2.576 3.751-1.916 4.759.441.672 1 .2 1.479-.129a6.959 6.959 0 0 0 1.449-1.915c.346-.487 1.128-1.438 1.737-1.443 1.418-.012.364 2.712 1.425 2.7l2.684-3.5c.994-.629 1.268-.233 1.7.727a1.794 1.794 0 0 0 .522.612c1.366.931 1.018-3.227 2.878-2.275.794.388 1.533 2.372 1.933 2.35.262-.012 1.347-2.881 1.61-3.319.642-1.089 1.375-1.087 1.748.271a18.684 18.684 0 0 1 .282 5.661c-.148 3.877-.331 8.346.666 12.161.249.908 1.242 2.141.815 3.245-.344.883-1.772.337-2.3-.043a5.633 5.633 0 0 1-2.518-3.428zm19.85-19.16a3.687 3.687 0 0 1-.975 2.832c-.089.1-.151.243-.239.342-.487.549-.971 1.113-1.493 1.611a18.382 18.382 0 0 1-2.089 1.769c-1.089.728-2.911 1.333-3.761-.157-.206-.362-.876-.9-1.231-.417a7.419 7.419 0 0 1-1.809 1.543 2.349 2.349 0 0 1-2.749-.085c-1.788-1.561-1.888-5.818-.515-7.74a13.333 13.333 0 0 1 1.4-1.879c.148-.141.273-.3.418-.449 1.034-1.057 2.877-2.5 4.306-1.61 1.521.909.8 2.842-.657 3.239-.113.031-.21.044-.323.074a4.789 4.789 0 0 0-3.049 2.054c-.469.728-1.122 2.072-.361 2.817.932.919 1.837-.759 2.132-1.545.37-1 1.472-3.056 2.694-2.005.7.59.354 1.288.62 2.031.124.342.311.786.646.915 1.794.688 2.424-2.211 3.185-3.4.675-1.053 1.542-1.885 2.78-1.39.737.291.848.676 1.07 1.444z" transform="translate(-309.857 -461.801)" style="fill:#fff;fill-rule:evenodd"/>
</svg>
